{"glyphs":{"0":{"ha":840,"x_min":42,"x_max":799,"o":"m 421 -18 q 267 21 336 -18 q 147 130 197 60 q 69 291 97 199 q 42 486 42 382 q 69 682 42 590 q 147 842 97 773 q 267 951 197 912 q 421 990 336 990 q 574 951 505 990 q 694 842 644 912 q 771 682 744 773 q 799 486 799 590 q 771 291 799 382 q 694 130 744 199 q 574 21 644 60 q 421 -18 505 -18 m 421 156 q 542 202 494 156 q 613 324 590 249 q 636 486 636 400 q 611 652 636 577 q 539 772 587 727 q 421 817 491 817 q 299 770 347 817 q 227 648 251 723 q 204 486 204 572 q 228 325 204 400 q 300 202 252 249 q 421 156 348 156 z "},"1":{"ha":463,"x_min":56,"x_max":352,"o":"m 178 0 l 178 799 l 56 799 l 102 972 l 352 972 l 352 0 l 178 0 z "},"2":{"ha":796,"x_min":56,"x_max":713,"o":"m 56 0 l 56 155 q 161 237 100 188 q 288 345 223 287 q 409 463 353 403 q 500 574 465 522 q 535 665 535 627 q 491 772 535 728 q 385 817 447 817 q 309 796 343 817 q 254 741 274 776 q 233 665 233 707 l 60 665 q 104 831 60 757 q 223 947 149 904 q 385 990 297 990 q 547 947 474 990 q 664 829 620 903 q 708 665 708 756 q 663 508 708 587 q 542 346 618 428 q 373 174 466 263 l 713 174 l 713 0 l 56 0 z "},"3":{"ha":712,"x_min":42,"x_max":670,"o":"m 356 -18 q 197 24 268 -18 q 84 136 126 66 q 42 293 42 207 l 215 293 q 255 196 215 237 q 356 156 295 156 q 425 174 393 156 q 477 224 458 193 q 497 293 497 256 q 438 405 497 368 q 285 442 380 442 l 285 576 q 419 607 369 576 q 469 702 469 639 q 434 784 469 749 q 351 818 399 818 q 289 802 319 818 q 239 760 258 786 q 219 702 219 733 l 46 702 q 88 847 46 781 q 200 952 131 913 q 349 992 269 992 q 494 953 428 992 q 602 848 561 914 q 642 702 642 782 q 617 592 642 646 q 543 516 591 538 q 613 465 585 500 q 656 384 641 430 q 670 293 670 339 q 627 137 670 208 q 513 24 584 66 q 356 -18 442 -18 z "},"4":{"ha":807,"x_min":56,"x_max":724,"o":"m 469 0 l 469 233 l 56 233 l 56 408 l 429 972 l 642 972 l 642 407 l 724 407 l 724 233 l 642 233 l 642 0 l 469 0 m 256 408 l 469 407 l 469 736 l 256 408 z "},"5":{"ha":799,"x_min":49,"x_max":716,"o":"m 383 -18 q 213 28 289 -18 q 93 149 138 74 q 49 315 49 225 l 222 315 q 244 235 222 271 q 302 177 265 199 q 383 156 338 156 q 463 177 427 156 q 521 235 499 199 q 543 315 543 271 q 500 430 543 382 q 351 478 456 478 l 101 478 l 204 972 l 683 972 l 683 799 l 344 799 l 315 652 l 381 651 q 555 602 479 647 q 673 483 631 558 q 716 315 716 408 q 671 148 716 224 q 551 27 626 72 q 383 -18 475 -18 z "},"6":{"ha":764,"x_min":35,"x_max":722,"o":"m 377 -18 q 206 28 283 -18 q 81 153 128 75 q 35 326 35 231 q 82 500 35 417 l 354 972 l 555 972 l 374 658 q 506 639 443 663 q 617 569 568 615 q 694 461 666 523 q 722 326 722 399 q 676 153 722 231 q 551 28 629 75 q 377 -18 472 -18 m 377 156 q 465 180 426 156 q 526 243 504 204 q 549 325 549 281 q 526 410 549 372 q 465 473 503 449 q 378 496 426 496 q 290 472 328 496 q 230 408 251 447 q 208 325 208 369 q 232 238 208 276 q 294 178 256 200 q 377 156 333 156 z "},"7":{"ha":765,"x_min":28,"x_max":737,"o":"m 76 0 l 536 799 l 28 799 l 28 972 l 737 972 l 737 799 l 275 0 l 76 0 z "},"8":{"ha":758,"x_min":56,"x_max":703,"o":"m 378 -18 q 216 23 289 -18 q 99 133 142 64 q 56 288 56 203 q 85 412 56 353 q 165 511 115 470 q 101 598 125 548 q 76 705 76 648 q 117 849 76 784 q 227 952 158 913 q 378 990 295 990 q 531 952 462 990 q 640 849 599 913 q 681 705 681 784 q 656 598 681 648 q 592 511 632 548 q 673 412 644 470 q 703 288 703 353 q 659 134 703 203 q 542 23 615 65 q 378 -18 468 -18 m 378 594 q 463 626 428 594 q 498 705 498 659 q 463 784 498 751 q 378 817 428 817 q 294 784 329 817 q 260 705 260 751 q 294 626 260 659 q 378 594 329 594 m 378 156 q 478 194 437 156 q 519 288 519 233 q 478 381 519 342 q 378 420 437 420 q 279 381 321 420 q 238 288 238 342 q 279 194 238 233 q 378 156 321 156 z "},"9":{"ha":763,"x_min":42,"x_max":722,"o":"m 199 0 l 385 321 q 215 359 293 316 q 89 478 137 401 q 42 650 42 554 q 88 820 42 743 q 211 944 133 898 q 383 990 288 990 q 552 944 475 990 q 675 821 629 899 q 722 650 722 744 q 675 478 722 560 l 399 0 l 199 0 m 381 483 q 468 507 431 483 q 527 569 506 531 q 549 651 549 607 q 525 736 549 699 q 464 795 501 774 q 383 817 426 817 q 296 793 334 817 q 236 732 258 769 q 215 651 215 694 q 237 567 215 605 q 297 506 259 528 q 381 483 334 483 z "},"A":{"ha":1016,"x_min":56,"x_max":960,"o":"m 408 972 l 608 972 l 960 0 l 776 0 l 715 170 l 301 170 l 240 0 l 56 0 l 408 972 m 365 344 l 651 344 l 508 737 l 365 344 z "},"Á":{"ha":1016,"x_min":56,"x_max":960,"o":"m 408 972 l 608 972 l 960 0 l 776 0 l 715 170 l 301 170 l 240 0 l 56 0 l 408 972 m 365 344 l 651 344 l 508 737 l 365 344 m 463 1051 l 518 1251 l 692 1251 l 578 1051 l 463 1051 z "},"Ă":{"ha":1016,"x_min":56,"x_max":960,"o":"m 408 972 l 608 972 l 960 0 l 776 0 l 715 170 l 301 170 l 240 0 l 56 0 l 408 972 m 365 344 l 651 344 l 508 737 l 365 344 m 508 1033 q 392 1065 444 1033 q 308 1148 340 1096 q 277 1264 277 1201 l 385 1264 q 421 1177 385 1213 q 508 1141 458 1141 q 594 1177 558 1141 q 631 1264 631 1213 l 738 1264 q 707 1147 738 1199 q 623 1064 676 1094 q 508 1033 571 1033 z "},"Ặ":{"ha":1016,"x_min":56,"x_max":960,"o":"m 408 972 l 608 972 l 960 0 l 776 0 l 715 170 l 301 170 l 240 0 l 56 0 l 408 972 m 365 344 l 651 344 l 508 737 l 365 344 m 509 -308 q 445 -282 471 -308 q 419 -219 419 -257 q 445 -156 419 -181 q 509 -130 471 -130 q 572 -156 546 -130 q 598 -219 598 -181 q 572 -282 598 -257 q 509 -308 547 -308 m 508 1033 q 392 1065 444 1033 q 308 1148 340 1096 q 277 1264 277 1201 l 385 1264 q 421 1177 385 1213 q 508 1141 458 1141 q 594 1177 558 1141 q 631 1264 631 1213 l 738 1264 q 707 1147 738 1199 q 623 1064 676 1094 q 508 1033 571 1033 z "},"Ằ":{"ha":1016,"x_min":56,"x_max":960,"o":"m 408 972 l 608 972 l 960 0 l 776 0 l 715 170 l 301 170 l 240 0 l 56 0 l 408 972 m 365 344 l 651 344 l 508 737 l 365 344 m 508 1033 q 392 1065 444 1033 q 308 1148 340 1096 q 277 1264 277 1201 l 385 1264 q 421 1177 385 1213 q 508 1141 458 1141 q 594 1177 558 1141 q 631 1264 631 1213 l 738 1264 q 707 1147 738 1199 q 623 1064 676 1094 q 508 1033 571 1033 m 324 1540 l 497 1540 l 553 1340 l 438 1340 l 324 1540 z "},"Ǎ":{"ha":1016,"x_min":56,"x_max":960,"o":"m 408 972 l 608 972 l 960 0 l 776 0 l 715 170 l 301 170 l 240 0 l 56 0 l 408 972 m 365 344 l 651 344 l 508 737 l 365 344 m 412 1049 l 277 1249 l 392 1249 l 509 1115 l 623 1249 l 739 1249 l 607 1049 l 412 1049 z "},"Â":{"ha":1016,"x_min":56,"x_max":960,"o":"m 408 972 l 608 972 l 960 0 l 776 0 l 715 170 l 301 170 l 240 0 l 56 0 l 408 972 m 365 344 l 651 344 l 508 737 l 365 344 m 606 1249 l 740 1049 l 624 1049 l 508 1183 l 394 1049 l 278 1049 l 410 1249 l 606 1249 z "},"Ấ":{"ha":1016,"x_min":56,"x_max":960,"o":"m 408 972 l 608 972 l 960 0 l 776 0 l 715 170 l 301 170 l 240 0 l 56 0 l 408 972 m 365 344 l 651 344 l 508 737 l 365 344 m 606 1249 l 740 1049 l 624 1049 l 508 1183 l 394 1049 l 278 1049 l 410 1249 l 606 1249 m 463 1317 l 518 1517 l 692 1517 l 578 1317 l 463 1317 z "},"Ậ":{"ha":1016,"x_min":56,"x_max":960,"o":"m 408 972 l 608 972 l 960 0 l 776 0 l 715 170 l 301 170 l 240 0 l 56 0 l 408 972 m 365 344 l 651 344 l 508 737 l 365 344 m 509 -308 q 445 -282 471 -308 q 419 -219 419 -257 q 445 -156 419 -181 q 509 -130 471 -130 q 572 -156 546 -130 q 598 -219 598 -181 q 572 -282 598 -257 q 509 -308 547 -308 m 606 1249 l 740 1049 l 624 1049 l 508 1183 l 394 1049 l 278 1049 l 410 1249 l 606 1249 z "},"Ầ":{"ha":1016,"x_min":56,"x_max":960,"o":"m 408 972 l 608 972 l 960 0 l 776 0 l 715 170 l 301 170 l 240 0 l 56 0 l 408 972 m 365 344 l 651 344 l 508 737 l 365 344 m 606 1249 l 740 1049 l 624 1049 l 508 1183 l 394 1049 l 278 1049 l 410 1249 l 606 1249 m 324 1515 l 497 1515 l 553 1315 l 438 1315 l 324 1515 z "},"Ẫ":{"ha":1016,"x_min":56,"x_max":960,"o":"m 408 972 l 608 972 l 960 0 l 776 0 l 715 170 l 301 170 l 240 0 l 56 0 l 408 972 m 365 344 l 651 344 l 508 737 l 365 344 m 606 1249 l 740 1049 l 624 1049 l 508 1183 l 394 1049 l 278 1049 l 410 1249 l 606 1249 m 617 1310 q 555 1328 590 1310 q 485 1369 519 1347 q 424 1405 450 1391 q 389 1408 397 1418 q 379 1384 381 1399 q 383 1348 377 1370 l 283 1320 q 273 1420 264 1375 q 315 1492 282 1465 q 400 1519 348 1519 q 458 1504 425 1519 q 525 1469 492 1489 q 584 1435 558 1450 q 620 1420 610 1420 q 640 1440 641 1420 q 632 1479 639 1460 l 735 1513 q 743 1409 753 1455 q 699 1337 733 1363 q 617 1310 666 1310 z "},"Ä":{"ha":1016,"x_min":56,"x_max":960,"o":"m 408 972 l 608 972 l 960 0 l 776 0 l 715 170 l 301 170 l 240 0 l 56 0 l 408 972 m 365 344 l 651 344 l 508 737 l 365 344 m 369 1020 q 305 1045 331 1020 q 279 1109 279 1071 q 305 1172 279 1146 q 369 1198 331 1198 q 433 1172 407 1198 q 458 1109 458 1146 q 433 1045 458 1071 q 369 1020 407 1020 m 648 1020 q 583 1045 610 1020 q 557 1109 557 1071 q 583 1172 557 1146 q 648 1198 610 1198 q 711 1172 685 1198 q 737 1109 737 1146 q 711 1045 737 1071 q 648 1020 685 1020 z "},"Ǟ":{"ha":1016,"x_min":56,"x_max":960,"o":"m 408 972 l 608 972 l 960 0 l 776 0 l 715 170 l 301 170 l 240 0 l 56 0 l 408 972 m 365 344 l 651 344 l 508 737 l 365 344 m 369 1020 q 305 1045 331 1020 q 279 1109 279 1071 q 305 1172 279 1146 q 369 1198 331 1198 q 433 1172 407 1198 q 458 1109 458 1146 q 433 1045 458 1071 q 369 1020 407 1020 m 648 1020 q 583 1045 610 1020 q 557 1109 557 1071 q 583 1172 557 1146 q 648 1198 610 1198 q 711 1172 685 1198 q 737 1109 737 1146 q 711 1045 737 1071 q 648 1020 685 1020 m 273 1399 l 742 1399 l 742 1270 l 273 1270 l 273 1399 z "},"Ạ":{"ha":1016,"x_min":56,"x_max":960,"o":"m 408 972 l 608 972 l 960 0 l 776 0 l 715 170 l 301 170 l 240 0 l 56 0 l 408 972 m 365 344 l 651 344 l 508 737 l 365 344 m 509 -308 q 445 -282 471 -308 q 419 -219 419 -257 q 445 -156 419 -181 q 509 -130 471 -130 q 572 -156 546 -130 q 598 -219 598 -181 q 572 -282 598 -257 q 509 -308 547 -308 z "},"À":{"ha":1016,"x_min":56,"x_max":960,"o":"m 408 972 l 608 972 l 960 0 l 776 0 l 715 170 l 301 170 l 240 0 l 56 0 l 408 972 m 365 344 l 651 344 l 508 737 l 365 344 m 324 1249 l 497 1249 l 553 1049 l 438 1049 l 324 1249 z "},"Ā":{"ha":1016,"x_min":56,"x_max":960,"o":"m 408 972 l 608 972 l 960 0 l 776 0 l 715 170 l 301 170 l 240 0 l 56 0 l 408 972 m 365 344 l 651 344 l 508 737 l 365 344 m 273 1201 l 742 1201 l 742 1072 l 273 1072 l 273 1201 z "},"Ą":{"ha":1016,"x_min":56,"x_max":1058,"o":"m 408 972 l 608 972 l 960 0 l 776 0 l 715 170 l 301 170 l 240 0 l 56 0 l 408 972 m 365 344 l 651 344 l 508 737 l 365 344 m 876 -315 q 789 -291 826 -315 q 732 -229 752 -267 q 711 -149 711 -191 q 723 -88 711 -118 q 760 -33 735 -58 l 876 84 l 960 0 q 875 -86 910 -50 q 840 -156 840 -122 q 851 -186 840 -172 q 883 -199 863 -199 q 929 -181 909 -199 q 949 -133 949 -162 l 1058 -133 q 1034 -224 1058 -183 q 969 -290 1010 -265 q 876 -315 928 -315 z "},"Å":{"ha":1016,"x_min":56,"x_max":960,"o":"m 408 972 l 608 972 l 960 0 l 776 0 l 715 170 l 301 170 l 240 0 l 56 0 l 408 972 m 365 344 l 651 344 l 508 737 l 365 344 m 508 1019 q 416 1058 454 1019 q 378 1150 378 1097 q 416 1240 378 1202 q 508 1278 454 1278 q 599 1240 561 1278 q 638 1150 638 1202 q 599 1057 638 1095 q 508 1019 561 1019 m 508 1102 q 540 1116 526 1102 q 553 1149 553 1130 q 540 1181 553 1168 q 508 1194 526 1194 q 475 1181 489 1194 q 462 1149 462 1168 q 475 1116 462 1130 q 508 1102 489 1102 z "},"Ã":{"ha":1016,"x_min":56,"x_max":960,"o":"m 408 972 l 608 972 l 960 0 l 776 0 l 715 170 l 301 170 l 240 0 l 56 0 l 408 972 m 365 344 l 651 344 l 508 737 l 365 344 m 617 1044 q 555 1063 590 1044 q 485 1103 519 1081 q 424 1139 450 1125 q 389 1142 397 1152 q 379 1118 381 1133 q 383 1082 377 1104 l 283 1054 q 273 1154 264 1109 q 315 1226 282 1199 q 400 1253 348 1253 q 458 1238 425 1253 q 525 1203 492 1223 q 584 1169 558 1184 q 620 1154 610 1154 q 640 1174 641 1154 q 632 1213 639 1194 l 735 1247 q 743 1143 753 1189 q 699 1071 733 1097 q 617 1044 666 1044 z "},"Æ":{"ha":1167,"x_min":56,"x_max":1098,"o":"m 56 0 l 408 972 l 1098 972 l 1098 799 l 758 799 l 758 573 l 1031 573 l 1031 399 l 758 399 l 758 174 l 1098 174 l 1098 0 l 585 0 l 585 170 l 301 170 l 240 0 l 56 0 m 365 344 l 585 344 l 585 799 l 531 799 l 365 344 z "},"Ǣ":{"ha":1167,"x_min":56,"x_max":1098,"o":"m 56 0 l 408 972 l 1098 972 l 1098 799 l 758 799 l 758 573 l 1031 573 l 1031 399 l 758 399 l 758 174 l 1098 174 l 1098 0 l 585 0 l 585 170 l 301 170 l 240 0 l 56 0 m 365 344 l 585 344 l 585 799 l 531 799 l 365 344 m 519 1201 l 988 1201 l 988 1072 l 519 1072 l 519 1201 z "},"B":{"ha":817,"x_min":83,"x_max":762,"o":"m 83 0 l 83 972 l 472 972 q 588 941 535 972 q 670 858 640 910 q 701 743 701 806 q 667 622 701 676 q 578 540 633 568 q 710 440 658 511 q 762 278 762 368 q 724 138 762 201 q 624 38 687 75 q 484 0 561 0 l 83 0 m 256 597 l 428 597 q 508 630 475 597 q 541 710 541 663 q 508 793 541 759 q 428 826 475 826 l 256 826 l 256 597 m 256 146 l 456 146 q 563 190 518 146 q 608 297 608 234 q 563 407 608 363 q 456 451 519 451 l 256 451 l 256 146 z "},"Ḅ":{"ha":817,"x_min":83,"x_max":762,"o":"m 83 0 l 83 972 l 472 972 q 588 941 535 972 q 670 858 640 910 q 701 743 701 806 q 667 622 701 676 q 578 540 633 568 q 710 440 658 511 q 762 278 762 368 q 724 138 762 201 q 624 38 687 75 q 484 0 561 0 l 83 0 m 256 597 l 428 597 q 508 630 475 597 q 541 710 541 663 q 508 793 541 759 q 428 826 475 826 l 256 826 l 256 597 m 256 146 l 456 146 q 563 190 518 146 q 608 297 608 234 q 563 407 608 363 q 456 451 519 451 l 256 451 l 256 146 m 410 -308 q 345 -282 372 -308 q 319 -219 319 -257 q 345 -156 319 -181 q 410 -130 372 -130 q 473 -156 447 -130 q 499 -219 499 -181 q 473 -282 499 -257 q 410 -308 447 -308 z "},"C":{"ha":971,"x_min":42,"x_max":901,"o":"m 519 -18 q 334 21 421 -18 q 182 130 247 60 q 79 291 116 199 q 42 486 42 382 q 79 682 42 591 q 182 843 116 774 q 334 951 247 912 q 519 990 421 990 q 737 935 638 990 q 901 790 836 881 l 747 707 q 646 787 706 757 q 519 817 587 817 q 366 772 435 817 q 256 652 297 727 q 215 486 215 577 q 256 320 215 395 q 366 200 297 245 q 519 156 435 156 q 647 186 588 156 q 747 266 706 216 l 901 182 q 737 36 836 91 q 519 -18 638 -18 z "},"Ć":{"ha":971,"x_min":42,"x_max":901,"o":"m 519 -18 q 334 21 421 -18 q 182 130 247 60 q 79 291 116 199 q 42 486 42 382 q 79 682 42 591 q 182 843 116 774 q 334 951 247 912 q 519 990 421 990 q 737 935 638 990 q 901 790 836 881 l 747 707 q 646 787 706 757 q 519 817 587 817 q 366 772 435 817 q 256 652 297 727 q 215 486 215 577 q 256 320 215 395 q 366 200 297 245 q 519 156 435 156 q 647 186 588 156 q 747 266 706 216 l 901 182 q 737 36 836 91 q 519 -18 638 -18 m 474 1051 l 530 1251 l 703 1251 l 590 1051 l 474 1051 z "},"Č":{"ha":971,"x_min":42,"x_max":901,"o":"m 519 -18 q 334 21 421 -18 q 182 130 247 60 q 79 291 116 199 q 42 486 42 382 q 79 682 42 591 q 182 843 116 774 q 334 951 247 912 q 519 990 421 990 q 737 935 638 990 q 901 790 836 881 l 747 707 q 646 787 706 757 q 519 817 587 817 q 366 772 435 817 q 256 652 297 727 q 215 486 215 577 q 256 320 215 395 q 366 200 297 245 q 519 156 435 156 q 647 186 588 156 q 747 266 706 216 l 901 182 q 737 36 836 91 q 519 -18 638 -18 m 423 1049 l 288 1249 l 403 1249 l 520 1115 l 634 1249 l 750 1249 l 618 1049 l 423 1049 z "},"Ç":{"ha":971,"x_min":42,"x_max":901,"o":"m 519 -18 q 334 21 421 -18 q 182 130 247 60 q 79 291 116 199 q 42 486 42 382 q 79 682 42 591 q 182 843 116 774 q 334 951 247 912 q 519 990 421 990 q 737 935 638 990 q 901 790 836 881 l 747 707 q 646 787 706 757 q 519 817 587 817 q 366 772 435 817 q 256 652 297 727 q 215 486 215 577 q 256 320 215 395 q 366 200 297 245 q 519 156 435 156 q 647 186 588 156 q 747 266 706 216 l 901 182 q 737 36 836 91 q 519 -18 638 -18 m 525 -261 q 430 -249 475 -275 q 372 -174 385 -223 l 460 -150 q 475 -170 463 -163 q 501 -174 488 -177 q 522 -158 515 -170 q 525 -132 528 -146 q 510 -113 522 -119 q 484 -108 498 -107 l 394 -111 l 492 62 l 572 16 l 545 -29 q 613 -109 598 -51 q 601 -203 626 -158 q 525 -261 575 -249 z "},"Ĉ":{"ha":971,"x_min":42,"x_max":901,"o":"m 519 -18 q 334 21 421 -18 q 182 130 247 60 q 79 291 116 199 q 42 486 42 382 q 79 682 42 591 q 182 843 116 774 q 334 951 247 912 q 519 990 421 990 q 737 935 638 990 q 901 790 836 881 l 747 707 q 646 787 706 757 q 519 817 587 817 q 366 772 435 817 q 256 652 297 727 q 215 486 215 577 q 256 320 215 395 q 366 200 297 245 q 519 156 435 156 q 647 186 588 156 q 747 266 706 216 l 901 182 q 737 36 836 91 q 519 -18 638 -18 m 617 1249 l 751 1049 l 635 1049 l 519 1183 l 405 1049 l 289 1049 l 422 1249 l 617 1249 z "},"Ċ":{"ha":971,"x_min":42,"x_max":901,"o":"m 519 -18 q 334 21 421 -18 q 182 130 247 60 q 79 291 116 199 q 42 486 42 382 q 79 682 42 591 q 182 843 116 774 q 334 951 247 912 q 519 990 421 990 q 737 935 638 990 q 901 790 836 881 l 747 707 q 646 787 706 757 q 519 817 587 817 q 366 772 435 817 q 256 652 297 727 q 215 486 215 577 q 256 320 215 395 q 366 200 297 245 q 519 156 435 156 q 647 186 588 156 q 747 266 706 216 l 901 182 q 737 36 836 91 q 519 -18 638 -18 m 520 1060 q 456 1085 482 1060 q 430 1149 430 1110 q 456 1212 430 1186 q 520 1238 482 1238 q 583 1212 557 1238 q 609 1149 609 1186 q 583 1085 609 1110 q 520 1060 558 1060 z "},"D":{"ha":933,"x_min":83,"x_max":892,"o":"m 83 0 l 83 972 l 406 972 q 594 934 506 972 q 749 830 682 897 q 854 675 816 763 q 892 486 892 587 q 854 298 892 385 q 749 143 816 210 q 594 38 682 76 q 406 0 506 0 l 83 0 m 257 174 l 406 174 q 561 216 490 174 q 675 328 633 258 q 718 486 718 399 q 675 643 718 572 q 562 757 633 715 q 406 799 491 799 l 257 799 l 257 174 z "},"Ď":{"ha":933,"x_min":83,"x_max":892,"o":"m 83 0 l 83 972 l 406 972 q 594 934 506 972 q 749 830 682 897 q 854 675 816 763 q 892 486 892 587 q 854 298 892 385 q 749 143 816 210 q 594 38 682 76 q 406 0 506 0 l 83 0 m 257 174 l 406 174 q 561 216 490 174 q 675 328 633 258 q 718 486 718 399 q 675 643 718 572 q 562 757 633 715 q 406 799 491 799 l 257 799 l 257 174 m 356 1049 l 222 1249 l 337 1249 l 453 1115 l 567 1249 l 683 1249 l 551 1049 l 356 1049 z "},"Đ":{"ha":933,"x_min":7,"x_max":892,"o":"m 83 0 l 83 972 l 406 972 q 594 934 506 972 q 749 830 682 897 q 854 675 816 763 q 892 486 892 587 q 854 298 892 385 q 749 143 816 210 q 594 38 682 76 q 406 0 506 0 l 83 0 m 257 174 l 406 174 q 561 216 490 174 q 675 328 633 258 q 718 486 718 399 q 675 643 718 572 q 562 757 633 715 q 406 799 491 799 l 257 799 l 257 174 m 7 448 l 7 594 l 448 594 l 448 448 l 7 448 z "},"Ḍ":{"ha":933,"x_min":83,"x_max":892,"o":"m 83 0 l 83 972 l 406 972 q 594 934 506 972 q 749 830 682 897 q 854 675 816 763 q 892 486 892 587 q 854 298 892 385 q 749 143 816 210 q 594 38 682 76 q 406 0 506 0 l 83 0 m 257 174 l 406 174 q 561 216 490 174 q 675 328 633 258 q 718 486 718 399 q 675 643 718 572 q 562 757 633 715 q 406 799 491 799 l 257 799 l 257 174 m 457 -308 q 393 -282 419 -308 q 367 -219 367 -257 q 393 -156 367 -181 q 457 -130 419 -130 q 520 -156 494 -130 q 546 -219 546 -181 q 520 -282 546 -257 q 457 -308 494 -308 z "},"Ɖ":{"ha":933,"x_min":7,"x_max":892,"o":"m 83 0 l 83 972 l 406 972 q 594 934 506 972 q 749 830 682 897 q 854 675 816 763 q 892 486 892 587 q 854 298 892 385 q 749 143 816 210 q 594 38 682 76 q 406 0 506 0 l 83 0 m 257 174 l 406 174 q 561 216 490 174 q 675 328 633 258 q 718 486 718 399 q 675 643 718 572 q 562 757 633 715 q 406 799 491 799 l 257 799 l 257 174 m 7 448 l 7 594 l 448 594 l 448 448 l 7 448 z "},"Ð":{"ha":933,"x_min":7,"x_max":892,"o":"m 83 0 l 83 972 l 406 972 q 594 934 506 972 q 749 830 682 897 q 854 675 816 763 q 892 486 892 587 q 854 298 892 385 q 749 143 816 210 q 594 38 682 76 q 406 0 506 0 l 83 0 m 257 174 l 406 174 q 561 216 490 174 q 675 328 633 258 q 718 486 718 399 q 675 643 718 572 q 562 757 633 715 q 406 799 491 799 l 257 799 l 257 174 m 7 448 l 7 594 l 448 594 l 448 448 l 7 448 z "},"E":{"ha":763,"x_min":83,"x_max":694,"o":"m 83 0 l 83 972 l 694 972 l 694 799 l 257 799 l 257 608 l 603 608 l 603 434 l 257 434 l 257 174 l 694 174 l 694 0 l 83 0 z "},"É":{"ha":763,"x_min":83,"x_max":694,"o":"m 83 0 l 83 972 l 694 972 l 694 799 l 257 799 l 257 608 l 603 608 l 603 434 l 257 434 l 257 174 l 694 174 l 694 0 l 83 0 m 336 1051 l 392 1251 l 565 1251 l 452 1051 l 336 1051 z "},"Ě":{"ha":763,"x_min":83,"x_max":694,"o":"m 83 0 l 83 972 l 694 972 l 694 799 l 257 799 l 257 608 l 603 608 l 603 434 l 257 434 l 257 174 l 694 174 l 694 0 l 83 0 m 285 1049 l 151 1249 l 266 1249 l 383 1115 l 497 1249 l 613 1249 l 481 1049 l 285 1049 z "},"Ê":{"ha":763,"x_min":83,"x_max":694,"o":"m 83 0 l 83 972 l 694 972 l 694 799 l 257 799 l 257 608 l 603 608 l 603 434 l 257 434 l 257 174 l 694 174 l 694 0 l 83 0 m 479 1249 l 614 1049 l 498 1049 l 382 1183 l 267 1049 l 151 1049 l 284 1249 l 479 1249 z "},"Ệ":{"ha":763,"x_min":83,"x_max":694,"o":"m 83 0 l 83 972 l 694 972 l 694 799 l 257 799 l 257 608 l 603 608 l 603 434 l 257 434 l 257 174 l 694 174 l 694 0 l 83 0 m 383 -308 q 318 -282 344 -308 q 292 -219 292 -257 q 318 -156 292 -181 q 383 -130 344 -130 q 445 -156 419 -130 q 472 -219 472 -181 q 446 -282 472 -257 q 383 -308 420 -308 m 479 1249 l 614 1049 l 498 1049 l 382 1183 l 267 1049 l 151 1049 l 284 1249 l 479 1249 z "},"Ë":{"ha":763,"x_min":83,"x_max":694,"o":"m 83 0 l 83 972 l 694 972 l 694 799 l 257 799 l 257 608 l 603 608 l 603 434 l 257 434 l 257 174 l 694 174 l 694 0 l 83 0 m 243 1020 q 179 1045 205 1020 q 153 1109 153 1071 q 179 1172 153 1146 q 243 1198 205 1198 q 306 1172 281 1198 q 332 1109 332 1146 q 306 1045 332 1071 q 243 1020 281 1020 m 522 1020 q 457 1045 483 1020 q 431 1109 431 1071 q 457 1172 431 1146 q 522 1198 483 1198 q 584 1172 558 1198 q 610 1109 610 1146 q 584 1045 610 1071 q 522 1020 558 1020 z "},"Ė":{"ha":763,"x_min":83,"x_max":694,"o":"m 83 0 l 83 972 l 694 972 l 694 799 l 257 799 l 257 608 l 603 608 l 603 434 l 257 434 l 257 174 l 694 174 l 694 0 l 83 0 m 383 1060 q 318 1085 344 1060 q 292 1149 292 1110 q 318 1212 292 1186 q 383 1238 344 1238 q 445 1212 419 1238 q 472 1149 472 1186 q 446 1085 472 1110 q 383 1060 420 1060 z "},"Ẹ":{"ha":763,"x_min":83,"x_max":694,"o":"m 83 0 l 83 972 l 694 972 l 694 799 l 257 799 l 257 608 l 603 608 l 603 434 l 257 434 l 257 174 l 694 174 l 694 0 l 83 0 m 383 -308 q 318 -282 344 -308 q 292 -219 292 -257 q 318 -156 292 -181 q 383 -130 344 -130 q 445 -156 419 -130 q 472 -219 472 -181 q 446 -282 472 -257 q 383 -308 420 -308 z "},"È":{"ha":763,"x_min":83,"x_max":694,"o":"m 83 0 l 83 972 l 694 972 l 694 799 l 257 799 l 257 608 l 603 608 l 603 434 l 257 434 l 257 174 l 694 174 l 694 0 l 83 0 m 198 1249 l 371 1249 l 426 1049 l 311 1049 l 198 1249 z "},"Ē":{"ha":763,"x_min":83,"x_max":694,"o":"m 83 0 l 83 972 l 694 972 l 694 799 l 257 799 l 257 608 l 603 608 l 603 434 l 257 434 l 257 174 l 694 174 l 694 0 l 83 0 m 147 1201 l 617 1201 l 617 1072 l 147 1072 l 147 1201 z "},"Ę":{"ha":763,"x_min":83,"x_max":717,"o":"m 83 0 l 83 972 l 694 972 l 694 799 l 257 799 l 257 608 l 603 608 l 603 434 l 257 434 l 257 174 l 694 174 l 694 0 l 83 0 m 534 -315 q 447 -291 484 -315 q 390 -229 410 -267 q 369 -149 369 -191 q 381 -88 369 -118 q 418 -33 393 -58 l 535 84 l 619 0 q 533 -86 569 -50 q 498 -156 498 -122 q 509 -186 498 -172 q 541 -199 521 -199 q 587 -181 567 -199 q 607 -133 607 -162 l 717 -133 q 692 -224 717 -183 q 627 -290 668 -265 q 534 -315 586 -315 z "},"Ẽ":{"ha":763,"x_min":83,"x_max":694,"o":"m 83 0 l 83 972 l 694 972 l 694 799 l 257 799 l 257 608 l 603 608 l 603 434 l 257 434 l 257 174 l 694 174 l 694 0 l 83 0 m 490 1044 q 428 1063 464 1044 q 358 1103 393 1081 q 297 1139 324 1125 q 263 1142 271 1152 q 252 1118 254 1133 q 257 1082 251 1104 l 157 1054 q 147 1154 138 1109 q 189 1226 156 1199 q 274 1253 222 1253 q 332 1238 299 1253 q 398 1203 365 1223 q 457 1169 431 1184 q 494 1154 483 1154 q 514 1174 515 1154 q 506 1213 513 1194 l 608 1247 q 617 1143 627 1189 q 573 1071 606 1097 q 490 1044 540 1044 z "},"Ə":{"ha":1040,"x_min":40,"x_max":998,"o":"m 519 -18 q 331 23 419 -18 q 177 135 243 63 q 75 300 111 206 q 42 499 40 393 l 824 499 q 776 664 819 592 q 665 776 733 735 q 519 817 597 817 q 399 789 458 817 q 293 706 340 762 l 138 789 q 313 940 214 891 q 517 989 412 989 q 697 952 610 989 q 851 848 783 915 q 958 689 919 781 q 998 488 998 597 q 961 292 998 383 q 860 131 925 201 q 708 22 795 61 q 519 -18 622 -18 m 517 156 q 685 209 610 156 q 794 348 760 263 l 247 348 q 359 206 285 257 q 517 156 433 156 z "},"F":{"ha":672,"x_min":83,"x_max":658,"o":"m 83 0 l 83 972 l 658 972 l 658 799 l 257 799 l 257 608 l 592 608 l 592 434 l 257 434 l 257 0 l 83 0 z "},"G":{"ha":1040,"x_min":42,"x_max":1000,"o":"m 519 -18 q 331 22 418 -18 q 179 131 244 61 q 78 292 114 201 q 42 488 42 383 q 81 689 42 597 q 188 848 120 781 q 343 952 256 915 q 523 989 429 989 q 727 940 628 989 q 901 789 826 891 l 747 706 q 641 789 700 762 q 521 817 582 817 q 370 774 440 817 q 258 656 301 731 q 215 484 215 581 q 257 318 215 392 q 368 200 298 244 q 522 156 438 156 q 680 206 606 156 q 793 348 754 257 l 621 348 l 621 499 l 997 499 q 964 300 1000 393 q 863 135 928 206 q 709 23 797 63 q 519 -18 621 -18 z "},"Ğ":{"ha":1040,"x_min":42,"x_max":1000,"o":"m 519 -18 q 331 22 418 -18 q 179 131 244 61 q 78 292 114 201 q 42 488 42 383 q 81 689 42 597 q 188 848 120 781 q 343 952 256 915 q 523 989 429 989 q 727 940 628 989 q 901 789 826 891 l 747 706 q 641 789 700 762 q 521 817 582 817 q 370 774 440 817 q 258 656 301 731 q 215 484 215 581 q 257 318 215 392 q 368 200 298 244 q 522 156 438 156 q 680 206 606 156 q 793 348 754 257 l 621 348 l 621 499 l 997 499 q 964 300 1000 393 q 863 135 928 206 q 709 23 797 63 q 519 -18 621 -18 m 520 1033 q 405 1065 457 1033 q 321 1148 352 1096 q 290 1264 290 1201 l 397 1264 q 434 1177 397 1213 q 520 1141 470 1141 q 607 1177 571 1141 q 643 1264 643 1213 l 751 1264 q 719 1147 751 1199 q 636 1064 688 1094 q 520 1033 583 1033 z "},"Ǧ":{"ha":1040,"x_min":42,"x_max":1000,"o":"m 519 -18 q 331 22 418 -18 q 179 131 244 61 q 78 292 114 201 q 42 488 42 383 q 81 689 42 597 q 188 848 120 781 q 343 952 256 915 q 523 989 429 989 q 727 940 628 989 q 901 789 826 891 l 747 706 q 641 789 700 762 q 521 817 582 817 q 370 774 440 817 q 258 656 301 731 q 215 484 215 581 q 257 318 215 392 q 368 200 298 244 q 522 156 438 156 q 680 206 606 156 q 793 348 754 257 l 621 348 l 621 499 l 997 499 q 964 300 1000 393 q 863 135 928 206 q 709 23 797 63 q 519 -18 621 -18 m 424 1049 l 290 1249 l 405 1249 l 522 1115 l 635 1249 l 751 1249 l 619 1049 l 424 1049 z "},"Ĝ":{"ha":1040,"x_min":42,"x_max":1000,"o":"m 519 -18 q 331 22 418 -18 q 179 131 244 61 q 78 292 114 201 q 42 488 42 383 q 81 689 42 597 q 188 848 120 781 q 343 952 256 915 q 523 989 429 989 q 727 940 628 989 q 901 789 826 891 l 747 706 q 641 789 700 762 q 521 817 582 817 q 370 774 440 817 q 258 656 301 731 q 215 484 215 581 q 257 318 215 392 q 368 200 298 244 q 522 156 438 156 q 680 206 606 156 q 793 348 754 257 l 621 348 l 621 499 l 997 499 q 964 300 1000 393 q 863 135 928 206 q 709 23 797 63 q 519 -18 621 -18 m 617 1249 l 752 1049 l 636 1049 l 520 1183 l 406 1049 l 290 1049 l 422 1249 l 617 1249 z "},"Ģ":{"ha":1040,"x_min":42,"x_max":1000,"o":"m 519 -18 q 331 22 418 -18 q 179 131 244 61 q 78 292 114 201 q 42 488 42 383 q 81 689 42 597 q 188 848 120 781 q 343 952 256 915 q 523 989 429 989 q 727 940 628 989 q 901 789 826 891 l 747 706 q 641 789 700 762 q 521 817 582 817 q 370 774 440 817 q 258 656 301 731 q 215 484 215 581 q 257 318 215 392 q 368 200 298 244 q 522 156 438 156 q 680 206 606 156 q 793 348 754 257 l 621 348 l 621 499 l 997 499 q 964 300 1000 393 q 863 135 928 206 q 709 23 797 63 q 519 -18 621 -18 m 390 -306 l 433 -72 l 607 -72 l 506 -306 l 390 -306 z "},"Ġ":{"ha":1040,"x_min":42,"x_max":1000,"o":"m 519 -18 q 331 22 418 -18 q 179 131 244 61 q 78 292 114 201 q 42 488 42 383 q 81 689 42 597 q 188 848 120 781 q 343 952 256 915 q 523 989 429 989 q 727 940 628 989 q 901 789 826 891 l 747 706 q 641 789 700 762 q 521 817 582 817 q 370 774 440 817 q 258 656 301 731 q 215 484 215 581 q 257 318 215 392 q 368 200 298 244 q 522 156 438 156 q 680 206 606 156 q 793 348 754 257 l 621 348 l 621 499 l 997 499 q 964 300 1000 393 q 863 135 928 206 q 709 23 797 63 q 519 -18 621 -18 m 521 1060 q 457 1085 483 1060 q 431 1149 431 1110 q 457 1212 431 1186 q 521 1238 483 1238 q 584 1212 558 1238 q 610 1149 610 1186 q 584 1085 610 1110 q 521 1060 558 1060 z "},"Ḡ":{"ha":1040,"x_min":42,"x_max":1000,"o":"m 519 -18 q 331 22 418 -18 q 179 131 244 61 q 78 292 114 201 q 42 488 42 383 q 81 689 42 597 q 188 848 120 781 q 343 952 256 915 q 523 989 429 989 q 727 940 628 989 q 901 789 826 891 l 747 706 q 641 789 700 762 q 521 817 582 817 q 370 774 440 817 q 258 656 301 731 q 215 484 215 581 q 257 318 215 392 q 368 200 298 244 q 522 156 438 156 q 680 206 606 156 q 793 348 754 257 l 621 348 l 621 499 l 997 499 q 964 300 1000 393 q 863 135 928 206 q 709 23 797 63 q 519 -18 621 -18 m 285 1201 l 755 1201 l 755 1072 l 285 1072 l 285 1201 z "},"H":{"ha":910,"x_min":83,"x_max":826,"o":"m 653 972 l 826 972 l 826 0 l 653 0 l 653 434 l 257 434 l 257 0 l 83 0 l 83 972 l 257 972 l 257 608 l 653 608 l 653 972 z "},"Ħ":{"ha":910,"x_min":13,"x_max":895,"o":"m 653 972 l 826 972 l 826 0 l 653 0 l 653 434 l 257 434 l 257 0 l 83 0 l 83 972 l 257 972 l 257 608 l 653 608 l 653 972 m 13 738 l 13 884 l 895 884 l 895 738 l 13 738 z "},"Ĥ":{"ha":910,"x_min":83,"x_max":826,"o":"m 653 972 l 826 972 l 826 0 l 653 0 l 653 434 l 257 434 l 257 0 l 83 0 l 83 972 l 257 972 l 257 608 l 653 608 l 653 972 m 553 1249 l 688 1049 l 572 1049 l 456 1183 l 341 1049 l 225 1049 l 358 1249 l 553 1249 z "},"Ḥ":{"ha":910,"x_min":83,"x_max":826,"o":"m 653 972 l 826 972 l 826 0 l 653 0 l 653 434 l 257 434 l 257 0 l 83 0 l 83 972 l 257 972 l 257 608 l 653 608 l 653 972 m 456 -308 q 391 -282 417 -308 q 365 -219 365 -257 q 391 -156 365 -181 q 456 -130 417 -130 q 518 -156 492 -130 q 544 -219 544 -181 q 519 -282 544 -257 q 456 -308 493 -308 z "},"I":{"ha":382,"x_min":104,"x_max":278,"o":"m 104 0 l 104 972 l 278 972 l 278 0 l 104 0 z "},"Ĳ":{"ha":1001,"x_min":104,"x_max":919,"o":"m 104 0 l 104 972 l 278 972 l 278 0 l 104 0 m 608 -18 q 503 0 554 -18 q 410 54 451 19 l 521 188 q 557 165 535 175 q 608 156 579 156 q 705 197 665 156 q 745 295 745 239 l 745 972 l 919 972 l 919 295 q 877 139 919 210 q 764 25 835 67 q 608 -18 694 -18 z "},"Í":{"ha":382,"x_min":104,"x_max":374,"o":"m 104 0 l 104 972 l 278 972 l 278 0 l 104 0 m 145 1051 l 201 1251 l 374 1251 l 261 1051 l 145 1051 z "},"Ǐ":{"ha":382,"x_min":-40,"x_max":422,"o":"m 104 0 l 104 972 l 278 972 l 278 0 l 104 0 m 94 1049 l -40 1249 l 75 1249 l 192 1115 l 306 1249 l 422 1249 l 290 1049 l 94 1049 z "},"Î":{"ha":382,"x_min":-40,"x_max":423,"o":"m 104 0 l 104 972 l 278 972 l 278 0 l 104 0 m 288 1249 l 423 1049 l 307 1049 l 191 1183 l 76 1049 l -40 1049 l 93 1249 l 288 1249 z "},"Ï":{"ha":382,"x_min":-38,"x_max":419,"o":"m 104 0 l 104 972 l 278 972 l 278 0 l 104 0 m 52 1020 q -12 1045 14 1020 q -38 1109 -38 1071 q -12 1172 -38 1146 q 52 1198 14 1198 q 115 1172 90 1198 q 141 1109 141 1146 q 115 1045 141 1071 q 52 1020 90 1020 m 331 1020 q 266 1045 292 1020 q 240 1109 240 1071 q 266 1172 240 1146 q 331 1198 292 1198 q 393 1172 367 1198 q 419 1109 419 1146 q 393 1045 419 1071 q 331 1020 367 1020 z "},"Ḯ":{"ha":382,"x_min":-38,"x_max":419,"o":"m 104 0 l 104 972 l 278 972 l 278 0 l 104 0 m 52 1020 q -12 1045 14 1020 q -38 1109 -38 1071 q -12 1172 -38 1146 q 52 1198 14 1198 q 115 1172 90 1198 q 141 1109 141 1146 q 115 1045 141 1071 q 52 1020 90 1020 m 331 1020 q 266 1045 292 1020 q 240 1109 240 1071 q 266 1172 240 1146 q 331 1198 292 1198 q 393 1172 367 1198 q 419 1109 419 1146 q 393 1045 419 1071 q 331 1020 367 1020 m 145 1250 l 201 1450 l 374 1450 l 261 1250 l 145 1250 z "},"İ":{"ha":382,"x_min":101,"x_max":281,"o":"m 104 0 l 104 972 l 278 972 l 278 0 l 104 0 m 192 1060 q 127 1085 153 1060 q 101 1149 101 1110 q 127 1212 101 1186 q 192 1238 153 1238 q 255 1212 228 1238 q 281 1149 281 1186 q 255 1085 281 1110 q 192 1060 229 1060 z "},"Ị":{"ha":382,"x_min":101,"x_max":281,"o":"m 104 0 l 104 972 l 278 972 l 278 0 l 104 0 m 192 -308 q 127 -282 153 -308 q 101 -219 101 -257 q 127 -156 101 -181 q 192 -130 153 -130 q 255 -156 228 -130 q 281 -219 281 -181 q 255 -282 281 -257 q 192 -308 229 -308 z "},"Ì":{"ha":382,"x_min":7,"x_max":278,"o":"m 104 0 l 104 972 l 278 972 l 278 0 l 104 0 m 7 1249 l 180 1249 l 235 1049 l 120 1049 l 7 1249 z "},"Ī":{"ha":382,"x_min":-44,"x_max":426,"o":"m 104 0 l 104 972 l 278 972 l 278 0 l 104 0 m -44 1201 l 426 1201 l 426 1072 l -44 1072 l -44 1201 z "},"Į":{"ha":382,"x_min":28,"x_max":375,"o":"m 104 0 l 104 972 l 278 972 l 278 0 l 104 0 m 192 -315 q 106 -291 142 -315 q 48 -229 69 -267 q 28 -149 28 -191 q 40 -88 28 -118 q 76 -33 51 -58 l 193 84 l 277 0 q 192 -86 227 -50 q 156 -156 156 -122 q 168 -186 156 -172 q 199 -199 179 -199 q 245 -181 226 -199 q 265 -133 265 -162 l 375 -133 q 351 -224 375 -183 q 285 -290 326 -265 q 192 -315 244 -315 z "},"Ĩ":{"ha":382,"x_min":-53,"x_max":436,"o":"m 104 0 l 104 972 l 278 972 l 278 0 l 104 0 m 299 1044 q 238 1063 273 1044 q 167 1103 202 1081 q 106 1139 133 1125 q 72 1142 80 1152 q 61 1118 63 1133 q 66 1082 60 1104 l -34 1054 q -44 1154 -53 1109 q -2 1226 -35 1199 q 83 1253 31 1253 q 141 1238 108 1253 q 207 1203 174 1223 q 266 1169 240 1184 q 303 1154 292 1154 q 323 1174 324 1154 q 315 1213 322 1194 l 417 1247 q 426 1143 436 1189 q 382 1071 415 1097 q 299 1044 349 1044 z "},"J":{"ha":620,"x_min":28,"x_max":537,"o":"m 226 -18 q 121 0 172 -18 q 28 54 69 19 l 139 188 q 175 165 153 175 q 226 156 197 156 q 323 197 283 156 q 363 295 363 239 l 363 972 l 537 972 l 537 295 q 495 139 537 210 q 382 25 453 67 q 226 -18 312 -18 z "},"Ĵ":{"ha":620,"x_min":28,"x_max":682,"o":"m 226 -18 q 121 0 172 -18 q 28 54 69 19 l 139 188 q 175 165 153 175 q 226 156 197 156 q 323 197 283 156 q 363 295 363 239 l 363 972 l 537 972 l 537 295 q 495 139 537 210 q 382 25 453 67 q 226 -18 312 -18 m 547 1249 l 682 1049 l 566 1049 l 450 1183 l 335 1049 l 219 1049 l 352 1249 l 547 1249 z "},"K":{"ha":818,"x_min":83,"x_max":800,"o":"m 799 0 l 572 0 l 301 378 l 257 324 l 257 0 l 83 0 l 83 972 l 257 972 l 257 594 l 574 972 l 800 972 l 415 514 l 799 0 z "},"Ǩ":{"ha":818,"x_min":83,"x_max":800,"o":"m 799 0 l 572 0 l 301 378 l 257 324 l 257 0 l 83 0 l 83 972 l 257 972 l 257 594 l 574 972 l 800 972 l 415 514 l 799 0 m 313 1049 l 178 1249 l 294 1249 l 410 1115 l 524 1249 l 640 1249 l 508 1049 l 313 1049 z "},"Ķ":{"ha":818,"x_min":83,"x_max":800,"o":"m 799 0 l 572 0 l 301 378 l 257 324 l 257 0 l 83 0 l 83 972 l 257 972 l 257 594 l 574 972 l 800 972 l 415 514 l 799 0 m 279 -306 l 322 -72 l 496 -72 l 394 -306 l 279 -306 z "},"L":{"ha":728,"x_min":83,"x_max":659,"o":"m 83 0 l 83 972 l 257 972 l 257 174 l 659 174 l 659 0 l 83 0 z "},"Ĺ":{"ha":728,"x_min":83,"x_max":659,"o":"m 83 0 l 83 972 l 257 972 l 257 174 l 659 174 l 659 0 l 83 0 m 124 1051 l 180 1251 l 353 1251 l 240 1051 l 124 1051 z "},"Ľ":{"ha":728,"x_min":83,"x_max":659,"o":"m 83 0 l 83 972 l 257 972 l 257 174 l 659 174 l 659 0 l 83 0 m 405 843 l 460 1043 l 634 1043 l 521 843 l 405 843 z "},"Ļ":{"ha":728,"x_min":83,"x_max":659,"o":"m 83 0 l 83 972 l 257 972 l 257 174 l 659 174 l 659 0 l 83 0 m 242 -306 l 285 -72 l 458 -72 l 357 -306 l 242 -306 z "},"Ḷ":{"ha":728,"x_min":83,"x_max":659,"o":"m 83 0 l 83 972 l 257 972 l 257 174 l 659 174 l 659 0 l 83 0 m 372 -308 q 308 -282 334 -308 q 282 -219 282 -257 q 308 -156 282 -181 q 372 -130 334 -130 q 435 -156 409 -130 q 461 -219 461 -181 q 435 -282 461 -257 q 372 -308 410 -308 z "},"Ł":{"ha":830,"x_min":28,"x_max":760,"o":"m 358 972 l 358 653 l 571 776 l 658 626 l 358 453 l 358 174 l 760 174 l 760 0 l 185 0 l 185 353 l 115 313 l 28 463 l 185 553 l 185 972 l 358 972 z "},"M":{"ha":1302,"x_min":83,"x_max":1219,"o":"m 83 0 l 272 972 l 416 972 l 651 354 l 886 972 l 1030 972 l 1219 0 l 1042 0 l 927 594 l 710 20 l 592 20 l 375 594 l 260 0 l 83 0 z "},"Ḿ":{"ha":1302,"x_min":83,"x_max":1219,"o":"m 83 0 l 272 972 l 416 972 l 651 354 l 886 972 l 1030 972 l 1219 0 l 1042 0 l 927 594 l 710 20 l 592 20 l 375 594 l 260 0 l 83 0 m 606 1051 l 661 1251 l 835 1251 l 722 1051 l 606 1051 z "},"Ṁ":{"ha":1302,"x_min":83,"x_max":1219,"o":"m 83 0 l 272 972 l 416 972 l 651 354 l 886 972 l 1030 972 l 1219 0 l 1042 0 l 927 594 l 710 20 l 592 20 l 375 594 l 260 0 l 83 0 m 652 1060 q 588 1085 614 1060 q 562 1149 562 1110 q 588 1212 562 1186 q 652 1238 614 1238 q 715 1212 689 1238 q 741 1149 741 1186 q 715 1085 741 1110 q 652 1060 690 1060 z "},"Ṃ":{"ha":1302,"x_min":83,"x_max":1219,"o":"m 83 0 l 272 972 l 416 972 l 651 354 l 886 972 l 1030 972 l 1219 0 l 1042 0 l 927 594 l 710 20 l 592 20 l 375 594 l 260 0 l 83 0 m 652 -308 q 588 -282 614 -308 q 562 -219 562 -257 q 588 -156 562 -181 q 652 -130 614 -130 q 715 -156 689 -130 q 741 -219 741 -181 q 715 -282 741 -257 q 652 -308 690 -308 z "},"N":{"ha":933,"x_min":83,"x_max":849,"o":"m 83 0 l 83 972 l 271 972 l 676 313 l 676 972 l 849 972 l 849 0 l 662 0 l 257 659 l 257 0 l 83 0 z "},"Ń":{"ha":933,"x_min":83,"x_max":849,"o":"m 83 0 l 83 972 l 271 972 l 676 313 l 676 972 l 849 972 l 849 0 l 662 0 l 257 659 l 257 0 l 83 0 m 421 1051 l 476 1251 l 650 1251 l 537 1051 l 421 1051 z "},"Ň":{"ha":933,"x_min":83,"x_max":849,"o":"m 83 0 l 83 972 l 271 972 l 676 313 l 676 972 l 849 972 l 849 0 l 662 0 l 257 659 l 257 0 l 83 0 m 370 1049 l 235 1249 l 351 1249 l 467 1115 l 581 1249 l 697 1249 l 565 1049 l 370 1049 z "},"Ņ":{"ha":933,"x_min":83,"x_max":849,"o":"m 83 0 l 83 972 l 271 972 l 676 313 l 676 972 l 849 972 l 849 0 l 662 0 l 257 659 l 257 0 l 83 0 m 337 -306 l 380 -72 l 553 -72 l 452 -306 l 337 -306 z "},"Ṅ":{"ha":933,"x_min":83,"x_max":849,"o":"m 83 0 l 83 972 l 271 972 l 676 313 l 676 972 l 849 972 l 849 0 l 662 0 l 257 659 l 257 0 l 83 0 m 467 1060 q 403 1085 429 1060 q 377 1149 377 1110 q 403 1212 377 1186 q 467 1238 429 1238 q 530 1212 504 1238 q 556 1149 556 1186 q 531 1085 556 1110 q 467 1060 505 1060 z "},"Ṇ":{"ha":933,"x_min":83,"x_max":849,"o":"m 83 0 l 83 972 l 271 972 l 676 313 l 676 972 l 849 972 l 849 0 l 662 0 l 257 659 l 257 0 l 83 0 m 467 -308 q 403 -282 429 -308 q 377 -219 377 -257 q 403 -156 377 -181 q 467 -130 429 -130 q 530 -156 504 -130 q 556 -219 556 -181 q 531 -282 556 -257 q 467 -308 505 -308 z "},"Ñ":{"ha":933,"x_min":83,"x_max":849,"o":"m 83 0 l 83 972 l 271 972 l 676 313 l 676 972 l 849 972 l 849 0 l 662 0 l 257 659 l 257 0 l 83 0 m 575 1044 q 513 1063 549 1044 q 443 1103 478 1081 q 382 1139 408 1125 q 347 1142 356 1152 q 337 1118 339 1133 q 342 1082 335 1104 l 242 1054 q 231 1154 222 1109 q 273 1226 240 1199 q 358 1253 306 1253 q 417 1238 383 1253 q 483 1203 450 1223 q 542 1169 516 1184 q 578 1154 568 1154 q 598 1174 599 1154 q 590 1213 597 1194 l 693 1247 q 701 1143 712 1189 q 658 1071 691 1097 q 575 1044 624 1044 z "},"Ŋ":{"ha":933,"x_min":83,"x_max":849,"o":"m 83 0 l 83 972 l 271 972 l 676 313 l 676 972 l 849 972 l 849 0 l 662 0 l 257 659 l 257 0 l 83 0 m 513 -187 q 619 -144 576 -187 q 663 -40 663 -101 l 663 15 l 849 15 l 849 -40 q 804 -208 849 -132 q 683 -328 759 -283 q 513 -374 607 -374 l 513 -187 z "},"O":{"ha":1042,"x_min":42,"x_max":1000,"o":"m 521 -18 q 335 21 422 -18 q 183 130 249 60 q 79 291 117 199 q 42 486 42 382 q 79 682 42 590 q 183 842 117 773 q 335 951 249 912 q 521 990 422 990 q 707 951 620 990 q 860 842 794 912 q 963 682 926 773 q 1000 486 1000 590 q 963 291 1000 382 q 860 130 926 199 q 707 21 794 60 q 521 -18 620 -18 m 521 156 q 675 200 606 156 q 785 320 744 245 q 826 486 826 396 q 785 652 826 577 q 674 772 744 727 q 521 817 605 817 q 367 772 436 817 q 257 652 298 727 q 215 486 215 576 q 257 320 215 395 q 367 200 298 245 q 521 156 437 156 z "},"Ó":{"ha":1042,"x_min":42,"x_max":1000,"o":"m 521 -18 q 335 21 422 -18 q 183 130 249 60 q 79 291 117 199 q 42 486 42 382 q 79 682 42 590 q 183 842 117 773 q 335 951 249 912 q 521 990 422 990 q 707 951 620 990 q 860 842 794 912 q 963 682 926 773 q 1000 486 1000 590 q 963 291 1000 382 q 860 130 926 199 q 707 21 794 60 q 521 -18 620 -18 m 521 156 q 675 200 606 156 q 785 320 744 245 q 826 486 826 396 q 785 652 826 577 q 674 772 744 727 q 521 817 605 817 q 367 772 436 817 q 257 652 298 727 q 215 486 215 576 q 257 320 215 395 q 367 200 298 245 q 521 156 437 156 m 476 1051 l 531 1251 l 705 1251 l 592 1051 l 476 1051 z "},"Ǒ":{"ha":1042,"x_min":42,"x_max":1000,"o":"m 521 -18 q 335 21 422 -18 q 183 130 249 60 q 79 291 117 199 q 42 486 42 382 q 79 682 42 590 q 183 842 117 773 q 335 951 249 912 q 521 990 422 990 q 707 951 620 990 q 860 842 794 912 q 963 682 926 773 q 1000 486 1000 590 q 963 291 1000 382 q 860 130 926 199 q 707 21 794 60 q 521 -18 620 -18 m 521 156 q 675 200 606 156 q 785 320 744 245 q 826 486 826 396 q 785 652 826 577 q 674 772 744 727 q 521 817 605 817 q 367 772 436 817 q 257 652 298 727 q 215 486 215 576 q 257 320 215 395 q 367 200 298 245 q 521 156 437 156 m 424 1049 l 290 1249 l 405 1249 l 522 1115 l 635 1249 l 751 1249 l 619 1049 l 424 1049 z "},"Ô":{"ha":1042,"x_min":42,"x_max":1000,"o":"m 521 -18 q 335 21 422 -18 q 183 130 249 60 q 79 291 117 199 q 42 486 42 382 q 79 682 42 590 q 183 842 117 773 q 335 951 249 912 q 521 990 422 990 q 707 951 620 990 q 860 842 794 912 q 963 682 926 773 q 1000 486 1000 590 q 963 291 1000 382 q 860 130 926 199 q 707 21 794 60 q 521 -18 620 -18 m 521 156 q 675 200 606 156 q 785 320 744 245 q 826 486 826 396 q 785 652 826 577 q 674 772 744 727 q 521 817 605 817 q 367 772 436 817 q 257 652 298 727 q 215 486 215 576 q 257 320 215 395 q 367 200 298 245 q 521 156 437 156 m 618 1249 l 753 1049 l 637 1049 l 521 1183 l 406 1049 l 290 1049 l 423 1249 l 618 1249 z "},"Ộ":{"ha":1042,"x_min":42,"x_max":1000,"o":"m 521 -18 q 335 21 422 -18 q 183 130 249 60 q 79 291 117 199 q 42 486 42 382 q 79 682 42 590 q 183 842 117 773 q 335 951 249 912 q 521 990 422 990 q 707 951 620 990 q 860 842 794 912 q 963 682 926 773 q 1000 486 1000 590 q 963 291 1000 382 q 860 130 926 199 q 707 21 794 60 q 521 -18 620 -18 m 521 156 q 675 200 606 156 q 785 320 744 245 q 826 486 826 396 q 785 652 826 577 q 674 772 744 727 q 521 817 605 817 q 367 772 436 817 q 257 652 298 727 q 215 486 215 576 q 257 320 215 395 q 367 200 298 245 q 521 156 437 156 m 522 -308 q 457 -282 483 -308 q 431 -219 431 -257 q 457 -156 431 -181 q 522 -130 483 -130 q 584 -156 558 -130 q 610 -219 610 -181 q 585 -282 610 -257 q 522 -308 559 -308 m 618 1249 l 753 1049 l 637 1049 l 521 1183 l 406 1049 l 290 1049 l 423 1249 l 618 1249 z "},"Ö":{"ha":1042,"x_min":42,"x_max":1000,"o":"m 521 -18 q 335 21 422 -18 q 183 130 249 60 q 79 291 117 199 q 42 486 42 382 q 79 682 42 590 q 183 842 117 773 q 335 951 249 912 q 521 990 422 990 q 707 951 620 990 q 860 842 794 912 q 963 682 926 773 q 1000 486 1000 590 q 963 291 1000 382 q 860 130 926 199 q 707 21 794 60 q 521 -18 620 -18 m 521 156 q 675 200 606 156 q 785 320 744 245 q 826 486 826 396 q 785 652 826 577 q 674 772 744 727 q 521 817 605 817 q 367 772 436 817 q 257 652 298 727 q 215 486 215 576 q 257 320 215 395 q 367 200 298 245 q 521 156 437 156 m 383 1020 q 318 1045 344 1020 q 292 1109 292 1071 q 318 1172 292 1146 q 383 1198 344 1198 q 446 1172 420 1198 q 472 1109 472 1146 q 446 1045 472 1071 q 383 1020 420 1020 m 661 1020 q 597 1045 623 1020 q 570 1109 570 1071 q 597 1172 570 1146 q 661 1198 623 1198 q 724 1172 698 1198 q 750 1109 750 1146 q 724 1045 750 1071 q 661 1020 698 1020 z "},"Ȫ":{"ha":1042,"x_min":42,"x_max":1000,"o":"m 521 -18 q 335 21 422 -18 q 183 130 249 60 q 79 291 117 199 q 42 486 42 382 q 79 682 42 590 q 183 842 117 773 q 335 951 249 912 q 521 990 422 990 q 707 951 620 990 q 860 842 794 912 q 963 682 926 773 q 1000 486 1000 590 q 963 291 1000 382 q 860 130 926 199 q 707 21 794 60 q 521 -18 620 -18 m 521 156 q 675 200 606 156 q 785 320 744 245 q 826 486 826 396 q 785 652 826 577 q 674 772 744 727 q 521 817 605 817 q 367 772 436 817 q 257 652 298 727 q 215 486 215 576 q 257 320 215 395 q 367 200 298 245 q 521 156 437 156 m 383 1020 q 318 1045 344 1020 q 292 1109 292 1071 q 318 1172 292 1146 q 383 1198 344 1198 q 446 1172 420 1198 q 472 1109 472 1146 q 446 1045 472 1071 q 383 1020 420 1020 m 661 1020 q 597 1045 623 1020 q 570 1109 570 1071 q 597 1172 570 1146 q 661 1198 623 1198 q 724 1172 698 1198 q 750 1109 750 1146 q 724 1045 750 1071 q 661 1020 698 1020 m 286 1399 l 756 1399 l 756 1270 l 286 1270 l 286 1399 z "},"Ọ":{"ha":1042,"x_min":42,"x_max":1000,"o":"m 521 -18 q 335 21 422 -18 q 183 130 249 60 q 79 291 117 199 q 42 486 42 382 q 79 682 42 590 q 183 842 117 773 q 335 951 249 912 q 521 990 422 990 q 707 951 620 990 q 860 842 794 912 q 963 682 926 773 q 1000 486 1000 590 q 963 291 1000 382 q 860 130 926 199 q 707 21 794 60 q 521 -18 620 -18 m 521 156 q 675 200 606 156 q 785 320 744 245 q 826 486 826 396 q 785 652 826 577 q 674 772 744 727 q 521 817 605 817 q 367 772 436 817 q 257 652 298 727 q 215 486 215 576 q 257 320 215 395 q 367 200 298 245 q 521 156 437 156 m 522 -308 q 457 -282 483 -308 q 431 -219 431 -257 q 457 -156 431 -181 q 522 -130 483 -130 q 584 -156 558 -130 q 610 -219 610 -181 q 585 -282 610 -257 q 522 -308 559 -308 z "},"Ò":{"ha":1042,"x_min":42,"x_max":1000,"o":"m 521 -18 q 335 21 422 -18 q 183 130 249 60 q 79 291 117 199 q 42 486 42 382 q 79 682 42 590 q 183 842 117 773 q 335 951 249 912 q 521 990 422 990 q 707 951 620 990 q 860 842 794 912 q 963 682 926 773 q 1000 486 1000 590 q 963 291 1000 382 q 860 130 926 199 q 707 21 794 60 q 521 -18 620 -18 m 521 156 q 675 200 606 156 q 785 320 744 245 q 826 486 826 396 q 785 652 826 577 q 674 772 744 727 q 521 817 605 817 q 367 772 436 817 q 257 652 298 727 q 215 486 215 576 q 257 320 215 395 q 367 200 298 245 q 521 156 437 156 m 337 1249 l 510 1249 l 565 1049 l 450 1049 l 337 1249 z "},"Ő":{"ha":1042,"x_min":42,"x_max":1000,"o":"m 521 -18 q 335 21 422 -18 q 183 130 249 60 q 79 291 117 199 q 42 486 42 382 q 79 682 42 590 q 183 842 117 773 q 335 951 249 912 q 521 990 422 990 q 707 951 620 990 q 860 842 794 912 q 963 682 926 773 q 1000 486 1000 590 q 963 291 1000 382 q 860 130 926 199 q 707 21 794 60 q 521 -18 620 -18 m 521 156 q 675 200 606 156 q 785 320 744 245 q 826 486 826 396 q 785 652 826 577 q 674 772 744 727 q 521 817 605 817 q 367 772 436 817 q 257 652 298 727 q 215 486 215 576 q 257 320 215 395 q 367 200 298 245 q 521 156 437 156 m 600 1050 l 656 1250 l 829 1250 l 716 1050 l 600 1050 m 365 1050 l 421 1250 l 594 1250 l 481 1050 l 365 1050 z "},"Ō":{"ha":1042,"x_min":42,"x_max":1000,"o":"m 521 -18 q 335 21 422 -18 q 183 130 249 60 q 79 291 117 199 q 42 486 42 382 q 79 682 42 590 q 183 842 117 773 q 335 951 249 912 q 521 990 422 990 q 707 951 620 990 q 860 842 794 912 q 963 682 926 773 q 1000 486 1000 590 q 963 291 1000 382 q 860 130 926 199 q 707 21 794 60 q 521 -18 620 -18 m 521 156 q 675 200 606 156 q 785 320 744 245 q 826 486 826 396 q 785 652 826 577 q 674 772 744 727 q 521 817 605 817 q 367 772 436 817 q 257 652 298 727 q 215 486 215 576 q 257 320 215 395 q 367 200 298 245 q 521 156 437 156 m 286 1201 l 756 1201 l 756 1072 l 286 1072 l 286 1201 z "},"Ṓ":{"ha":1042,"x_min":42,"x_max":1000,"o":"m 521 -18 q 335 21 422 -18 q 183 130 249 60 q 79 291 117 199 q 42 486 42 382 q 79 682 42 590 q 183 842 117 773 q 335 951 249 912 q 521 990 422 990 q 707 951 620 990 q 860 842 794 912 q 963 682 926 773 q 1000 486 1000 590 q 963 291 1000 382 q 860 130 926 199 q 707 21 794 60 q 521 -18 620 -18 m 521 156 q 675 200 606 156 q 785 320 744 245 q 826 486 826 396 q 785 652 826 577 q 674 772 744 727 q 521 817 605 817 q 367 772 436 817 q 257 652 298 727 q 215 486 215 576 q 257 320 215 395 q 367 200 298 245 q 521 156 437 156 m 286 1201 l 756 1201 l 756 1072 l 286 1072 l 286 1201 m 476 1279 l 531 1479 l 705 1479 l 592 1279 l 476 1279 z "},"Ṑ":{"ha":1042,"x_min":42,"x_max":1000,"o":"m 521 -18 q 335 21 422 -18 q 183 130 249 60 q 79 291 117 199 q 42 486 42 382 q 79 682 42 590 q 183 842 117 773 q 335 951 249 912 q 521 990 422 990 q 707 951 620 990 q 860 842 794 912 q 963 682 926 773 q 1000 486 1000 590 q 963 291 1000 382 q 860 130 926 199 q 707 21 794 60 q 521 -18 620 -18 m 521 156 q 675 200 606 156 q 785 320 744 245 q 826 486 826 396 q 785 652 826 577 q 674 772 744 727 q 521 817 605 817 q 367 772 436 817 q 257 652 298 727 q 215 486 215 576 q 257 320 215 395 q 367 200 298 245 q 521 156 437 156 m 286 1201 l 756 1201 l 756 1072 l 286 1072 l 286 1201 m 337 1477 l 510 1477 l 565 1277 l 450 1277 l 337 1477 z "},"Ø":{"ha":1042,"x_min":42,"x_max":1000,"o":"m 297 -76 l 147 10 l 204 110 q 86 277 131 179 q 42 486 42 374 q 79 682 42 590 q 183 842 117 773 q 335 951 249 912 q 521 990 422 990 q 610 981 567 990 q 692 956 653 972 l 746 1048 l 896 962 l 838 863 q 956 696 913 793 q 1000 486 1000 599 q 963 291 1000 382 q 860 130 926 199 q 707 21 794 60 q 521 -18 620 -18 q 433 -9 476 -18 q 351 17 390 0 l 297 -76 m 296 270 l 603 801 q 521 817 565 817 q 367 772 436 817 q 257 652 298 727 q 215 486 215 576 q 237 367 215 423 q 296 270 259 312 m 521 156 q 675 200 606 156 q 785 320 744 245 q 826 486 826 396 q 805 605 826 549 q 747 703 784 660 l 440 172 q 521 156 478 156 z "},"Ǿ":{"ha":1042,"x_min":42,"x_max":1000,"o":"m 297 -76 l 147 10 l 204 110 q 86 277 131 179 q 42 486 42 374 q 79 682 42 590 q 183 842 117 773 q 335 951 249 912 q 521 990 422 990 q 610 981 567 990 q 692 956 653 972 l 746 1048 l 896 962 l 838 863 q 956 696 913 793 q 1000 486 1000 599 q 963 291 1000 382 q 860 130 926 199 q 707 21 794 60 q 521 -18 620 -18 q 433 -9 476 -18 q 351 17 390 0 l 297 -76 m 296 270 l 603 801 q 521 817 565 817 q 367 772 436 817 q 257 652 298 727 q 215 486 215 576 q 237 367 215 423 q 296 270 259 312 m 521 156 q 675 200 606 156 q 785 320 744 245 q 826 486 826 396 q 805 605 826 549 q 747 703 784 660 l 440 172 q 521 156 478 156 m 476 1051 l 531 1251 l 705 1251 l 592 1051 l 476 1051 z "},"Õ":{"ha":1042,"x_min":42,"x_max":1000,"o":"m 521 -18 q 335 21 422 -18 q 183 130 249 60 q 79 291 117 199 q 42 486 42 382 q 79 682 42 590 q 183 842 117 773 q 335 951 249 912 q 521 990 422 990 q 707 951 620 990 q 860 842 794 912 q 963 682 926 773 q 1000 486 1000 590 q 963 291 1000 382 q 860 130 926 199 q 707 21 794 60 q 521 -18 620 -18 m 521 156 q 675 200 606 156 q 785 320 744 245 q 826 486 826 396 q 785 652 826 577 q 674 772 744 727 q 521 817 605 817 q 367 772 436 817 q 257 652 298 727 q 215 486 215 576 q 257 320 215 395 q 367 200 298 245 q 521 156 437 156 m 629 1044 q 567 1063 603 1044 q 497 1103 532 1081 q 436 1139 463 1125 q 401 1142 410 1152 q 391 1118 393 1133 q 396 1082 390 1104 l 296 1054 q 285 1154 276 1109 q 327 1226 294 1199 q 413 1253 360 1253 q 471 1238 438 1253 q 537 1203 504 1223 q 596 1169 570 1184 q 633 1154 622 1154 q 652 1174 653 1154 q 644 1213 651 1194 l 747 1247 q 756 1143 766 1189 q 712 1071 745 1097 q 629 1044 678 1044 z "},"Œ":{"ha":1458,"x_min":42,"x_max":1388,"o":"m 521 -18 q 335 21 422 -18 q 183 130 249 60 q 79 291 117 199 q 42 486 42 382 q 79 682 42 590 q 183 842 117 773 q 335 951 249 912 q 521 990 422 990 q 691 954 612 990 q 829 856 771 917 l 829 972 l 1388 972 l 1388 799 l 1002 799 l 1002 573 l 1322 573 l 1322 399 l 1002 399 l 1002 174 l 1388 174 l 1388 0 l 829 0 l 829 116 q 691 18 771 55 q 521 -18 612 -18 m 521 156 q 675 200 606 156 q 785 320 744 245 q 826 486 826 396 q 785 652 826 577 q 674 772 744 727 q 521 817 605 817 q 367 772 436 817 q 257 652 298 727 q 215 486 215 576 q 257 320 215 395 q 367 200 298 245 q 521 156 437 156 z "},"P":{"ha":772,"x_min":83,"x_max":716,"o":"m 83 0 l 83 972 l 433 972 q 576 932 512 972 q 678 826 640 892 q 716 679 716 759 q 677 531 716 597 q 573 425 638 465 q 433 386 509 386 l 257 386 l 257 0 l 83 0 m 257 560 l 414 560 q 505 598 467 560 q 542 691 542 636 q 505 785 542 747 q 414 823 467 823 l 257 823 l 257 560 z "},"Þ":{"ha":758,"x_min":83,"x_max":716,"o":"m 83 0 l 83 972 l 257 972 l 257 779 l 433 779 q 576 739 512 779 q 678 633 640 699 q 716 486 716 567 q 677 338 716 405 q 573 232 638 272 q 433 193 509 193 l 257 193 l 257 0 l 83 0 m 257 367 l 414 367 q 505 405 467 367 q 542 498 542 443 q 505 592 542 553 q 414 630 467 630 l 257 630 l 257 367 z "},"Q":{"ha":1093,"x_min":56,"x_max":1038,"o":"m 915 -30 l 807 77 q 680 10 749 34 q 535 -14 611 -14 q 349 25 435 -14 q 196 134 262 65 q 93 294 130 203 q 56 490 56 386 q 93 686 56 594 q 196 847 130 777 q 349 955 262 916 q 535 994 435 994 q 720 955 634 994 q 873 847 807 916 q 976 686 939 777 q 1014 490 1014 594 q 991 337 1014 410 q 927 203 967 264 l 1038 92 l 915 -30 m 535 160 q 681 203 615 160 l 596 289 l 718 412 l 798 332 q 840 490 840 404 q 799 656 840 581 q 688 776 758 731 q 535 822 619 822 q 381 776 450 822 q 270 656 312 731 q 229 490 229 581 q 270 324 229 399 q 381 204 312 249 q 535 160 451 160 z "},"R":{"ha":847,"x_min":83,"x_max":786,"o":"m 83 0 l 83 972 l 458 972 q 601 933 538 972 q 703 826 665 893 q 740 679 740 760 q 689 507 740 581 q 553 401 637 433 l 786 0 l 586 0 l 363 386 l 257 386 l 257 0 l 83 0 m 257 560 l 439 560 q 530 598 492 560 q 567 691 567 636 q 530 785 567 747 q 439 823 492 823 l 257 823 l 257 560 z "},"Ŕ":{"ha":847,"x_min":83,"x_max":786,"o":"m 83 0 l 83 972 l 458 972 q 601 933 538 972 q 703 826 665 893 q 740 679 740 760 q 689 507 740 581 q 553 401 637 433 l 786 0 l 586 0 l 363 386 l 257 386 l 257 0 l 83 0 m 257 560 l 439 560 q 530 598 492 560 q 567 691 567 636 q 530 785 567 747 q 439 823 492 823 l 257 823 l 257 560 m 299 1051 l 355 1251 l 528 1251 l 415 1051 l 299 1051 z "},"Ř":{"ha":847,"x_min":83,"x_max":786,"o":"m 83 0 l 83 972 l 458 972 q 601 933 538 972 q 703 826 665 893 q 740 679 740 760 q 689 507 740 581 q 553 401 637 433 l 786 0 l 586 0 l 363 386 l 257 386 l 257 0 l 83 0 m 257 560 l 439 560 q 530 598 492 560 q 567 691 567 636 q 530 785 567 747 q 439 823 492 823 l 257 823 l 257 560 m 249 1049 l 114 1249 l 229 1249 l 346 1115 l 460 1249 l 576 1249 l 444 1049 l 249 1049 z "},"Ŗ":{"ha":847,"x_min":83,"x_max":786,"o":"m 83 0 l 83 972 l 458 972 q 601 933 538 972 q 703 826 665 893 q 740 679 740 760 q 689 507 740 581 q 553 401 637 433 l 786 0 l 586 0 l 363 386 l 257 386 l 257 0 l 83 0 m 257 560 l 439 560 q 530 598 492 560 q 567 691 567 636 q 530 785 567 747 q 439 823 492 823 l 257 823 l 257 560 m 291 -306 l 334 -72 l 508 -72 l 406 -306 l 291 -306 z "},"S":{"ha":779,"x_min":42,"x_max":738,"o":"m 410 -18 q 270 9 342 -18 q 138 80 199 35 q 42 176 77 124 l 185 274 q 236 224 201 251 q 318 176 272 197 q 409 156 364 156 q 482 171 447 156 q 541 212 518 185 q 565 276 565 238 q 517 368 565 329 q 399 421 469 408 q 162 529 245 449 q 78 714 78 609 q 120 853 78 792 q 228 947 161 913 q 374 981 296 981 q 503 957 443 981 q 607 891 563 932 q 675 799 652 849 l 517 725 q 455 787 498 767 q 374 807 413 807 q 290 782 329 807 q 251 714 251 756 q 288 642 251 673 q 369 601 324 612 q 558 535 474 576 q 689 432 641 495 q 738 277 738 369 q 692 124 738 190 q 572 19 647 57 q 410 -18 498 -18 z "},"Ś":{"ha":779,"x_min":42,"x_max":738,"o":"m 410 -18 q 270 9 342 -18 q 138 80 199 35 q 42 176 77 124 l 185 274 q 236 224 201 251 q 318 176 272 197 q 409 156 364 156 q 482 171 447 156 q 541 212 518 185 q 565 276 565 238 q 517 368 565 329 q 399 421 469 408 q 162 529 245 449 q 78 714 78 609 q 120 853 78 792 q 228 947 161 913 q 374 981 296 981 q 503 957 443 981 q 607 891 563 932 q 675 799 652 849 l 517 725 q 455 787 498 767 q 374 807 413 807 q 290 782 329 807 q 251 714 251 756 q 288 642 251 673 q 369 601 324 612 q 558 535 474 576 q 689 432 641 495 q 738 277 738 369 q 692 124 738 190 q 572 19 647 57 q 410 -18 498 -18 m 329 1051 l 385 1251 l 558 1251 l 445 1051 l 329 1051 z "},"Š":{"ha":779,"x_min":42,"x_max":738,"o":"m 410 -18 q 270 9 342 -18 q 138 80 199 35 q 42 176 77 124 l 185 274 q 236 224 201 251 q 318 176 272 197 q 409 156 364 156 q 482 171 447 156 q 541 212 518 185 q 565 276 565 238 q 517 368 565 329 q 399 421 469 408 q 162 529 245 449 q 78 714 78 609 q 120 853 78 792 q 228 947 161 913 q 374 981 296 981 q 503 957 443 981 q 607 891 563 932 q 675 799 652 849 l 517 725 q 455 787 498 767 q 374 807 413 807 q 290 782 329 807 q 251 714 251 756 q 288 642 251 673 q 369 601 324 612 q 558 535 474 576 q 689 432 641 495 q 738 277 738 369 q 692 124 738 190 q 572 19 647 57 q 410 -18 498 -18 m 278 1049 l 144 1249 l 259 1249 l 376 1115 l 490 1249 l 606 1249 l 474 1049 l 278 1049 z "},"Ş":{"ha":779,"x_min":42,"x_max":738,"o":"m 410 -18 q 270 9 342 -18 q 138 80 199 35 q 42 176 77 124 l 185 274 q 236 224 201 251 q 318 176 272 197 q 409 156 364 156 q 482 171 447 156 q 541 212 518 185 q 565 276 565 238 q 517 368 565 329 q 399 421 469 408 q 162 529 245 449 q 78 714 78 609 q 120 853 78 792 q 228 947 161 913 q 374 981 296 981 q 503 957 443 981 q 607 891 563 932 q 675 799 652 849 l 517 725 q 455 787 498 767 q 374 807 413 807 q 290 782 329 807 q 251 714 251 756 q 288 642 251 673 q 369 601 324 612 q 558 535 474 576 q 689 432 641 495 q 738 277 738 369 q 692 124 738 190 q 572 19 647 57 q 410 -18 498 -18 m 478 -261 q 384 -249 428 -275 q 326 -174 339 -223 l 413 -150 q 429 -170 417 -163 q 455 -174 441 -177 q 475 -158 468 -170 q 478 -132 482 -146 q 463 -113 475 -119 q 438 -108 451 -107 l 347 -111 l 445 62 l 525 16 l 499 -29 q 567 -109 551 -51 q 554 -203 580 -158 q 478 -261 528 -249 z "},"Ŝ":{"ha":779,"x_min":42,"x_max":738,"o":"m 410 -18 q 270 9 342 -18 q 138 80 199 35 q 42 176 77 124 l 185 274 q 236 224 201 251 q 318 176 272 197 q 409 156 364 156 q 482 171 447 156 q 541 212 518 185 q 565 276 565 238 q 517 368 565 329 q 399 421 469 408 q 162 529 245 449 q 78 714 78 609 q 120 853 78 792 q 228 947 161 913 q 374 981 296 981 q 503 957 443 981 q 607 891 563 932 q 675 799 652 849 l 517 725 q 455 787 498 767 q 374 807 413 807 q 290 782 329 807 q 251 714 251 756 q 288 642 251 673 q 369 601 324 612 q 558 535 474 576 q 689 432 641 495 q 738 277 738 369 q 692 124 738 190 q 572 19 647 57 q 410 -18 498 -18 m 472 1249 l 606 1049 l 490 1049 l 374 1183 l 260 1049 l 144 1049 l 276 1249 l 472 1249 z "},"Ș":{"ha":779,"x_min":42,"x_max":738,"o":"m 410 -18 q 270 9 342 -18 q 138 80 199 35 q 42 176 77 124 l 185 274 q 236 224 201 251 q 318 176 272 197 q 409 156 364 156 q 482 171 447 156 q 541 212 518 185 q 565 276 565 238 q 517 368 565 329 q 399 421 469 408 q 162 529 245 449 q 78 714 78 609 q 120 853 78 792 q 228 947 161 913 q 374 981 296 981 q 503 957 443 981 q 607 891 563 932 q 675 799 652 849 l 517 725 q 455 787 498 767 q 374 807 413 807 q 290 782 329 807 q 251 714 251 756 q 288 642 251 673 q 369 601 324 612 q 558 535 474 576 q 689 432 641 495 q 738 277 738 369 q 692 124 738 190 q 572 19 647 57 q 410 -18 498 -18 m 343 -306 l 386 -72 l 560 -72 l 458 -306 l 343 -306 z "},"Ṣ":{"ha":779,"x_min":42,"x_max":738,"o":"m 410 -18 q 270 9 342 -18 q 138 80 199 35 q 42 176 77 124 l 185 274 q 236 224 201 251 q 318 176 272 197 q 409 156 364 156 q 482 171 447 156 q 541 212 518 185 q 565 276 565 238 q 517 368 565 329 q 399 421 469 408 q 162 529 245 449 q 78 714 78 609 q 120 853 78 792 q 228 947 161 913 q 374 981 296 981 q 503 957 443 981 q 607 891 563 932 q 675 799 652 849 l 517 725 q 455 787 498 767 q 374 807 413 807 q 290 782 329 807 q 251 714 251 756 q 288 642 251 673 q 369 601 324 612 q 558 535 474 576 q 689 432 641 495 q 738 277 738 369 q 692 124 738 190 q 572 19 647 57 q 410 -18 498 -18 m 474 -308 q 409 -282 435 -308 q 383 -219 383 -257 q 409 -156 383 -181 q 474 -130 435 -130 q 536 -156 510 -130 q 563 -219 563 -181 q 537 -282 563 -257 q 474 -308 511 -308 z "},"ẞ":{"ha":840,"x_min":83,"x_max":798,"o":"m 83 0 l 83 622 q 131 798 83 718 q 257 925 178 877 q 433 972 337 972 q 567 943 504 972 q 669 865 630 915 q 708 754 708 815 q 690 691 708 722 q 634 617 671 660 q 544 508 598 575 q 637 500 592 516 q 718 451 682 484 q 776 374 755 417 q 798 284 798 331 q 769 162 798 215 q 694 73 741 109 q 589 18 647 37 q 472 0 531 0 l 432 0 l 396 148 l 455 148 q 539 161 495 148 q 613 204 583 174 q 643 285 643 234 q 613 367 643 337 q 539 409 583 397 q 455 422 495 422 l 400 422 l 399 488 q 419 564 399 522 q 466 644 440 605 q 513 713 492 683 q 533 757 533 744 q 493 813 533 802 q 402 823 453 823 q 331 802 365 823 q 277 745 298 781 q 257 666 257 710 l 257 0 l 83 0 z "},"T":{"ha":875,"x_min":56,"x_max":819,"o":"m 819 972 l 819 799 l 524 799 l 524 0 l 351 0 l 351 799 l 56 799 l 56 972 l 819 972 z "},"Ť":{"ha":875,"x_min":56,"x_max":819,"o":"m 819 972 l 819 799 l 524 799 l 524 0 l 351 0 l 351 799 l 56 799 l 56 972 l 819 972 m 341 1049 l 206 1249 l 322 1249 l 438 1115 l 552 1249 l 668 1249 l 536 1049 l 341 1049 z "},"Ţ":{"ha":875,"x_min":56,"x_max":819,"o":"m 819 972 l 819 799 l 524 799 l 524 0 l 351 0 l 351 799 l 56 799 l 56 972 l 819 972 m 443 -261 q 348 -249 393 -275 q 290 -174 303 -223 l 378 -150 q 393 -170 381 -163 q 419 -174 406 -177 q 440 -158 433 -170 q 443 -132 447 -146 q 428 -113 440 -119 q 402 -108 416 -107 l 312 -111 l 410 62 l 490 16 l 463 -29 q 531 -109 516 -51 q 519 -203 544 -158 q 443 -261 493 -249 z "},"Ț":{"ha":875,"x_min":56,"x_max":819,"o":"m 819 972 l 819 799 l 524 799 l 524 0 l 351 0 l 351 799 l 56 799 l 56 972 l 819 972 m 308 -306 l 351 -72 l 524 -72 l 423 -306 l 308 -306 z "},"Ṭ":{"ha":875,"x_min":56,"x_max":819,"o":"m 819 972 l 819 799 l 524 799 l 524 0 l 351 0 l 351 799 l 56 799 l 56 972 l 819 972 m 438 -308 q 374 -282 400 -308 q 348 -219 348 -257 q 374 -156 348 -181 q 438 -130 400 -130 q 501 -156 475 -130 q 527 -219 527 -181 q 501 -282 527 -257 q 438 -308 476 -308 z "},"U":{"ha":946,"x_min":83,"x_max":863,"o":"m 474 -18 q 269 39 357 -18 q 132 192 181 96 q 83 406 83 288 l 83 972 l 257 972 l 257 406 q 282 280 257 337 q 356 190 308 224 q 474 156 405 156 q 591 189 543 156 q 664 280 639 223 q 689 406 689 337 l 689 972 l 863 972 l 863 406 q 814 192 863 288 q 678 39 765 96 q 474 -18 590 -18 z "},"Ú":{"ha":946,"x_min":83,"x_max":863,"o":"m 474 -18 q 269 39 357 -18 q 132 192 181 96 q 83 406 83 288 l 83 972 l 257 972 l 257 406 q 282 280 257 337 q 356 190 308 224 q 474 156 405 156 q 591 189 543 156 q 664 280 639 223 q 689 406 689 337 l 689 972 l 863 972 l 863 406 q 814 192 863 288 q 678 39 765 96 q 474 -18 590 -18 m 427 1051 l 483 1251 l 656 1251 l 543 1051 l 427 1051 z "},"Ŭ":{"ha":946,"x_min":83,"x_max":863,"o":"m 474 -18 q 269 39 357 -18 q 132 192 181 96 q 83 406 83 288 l 83 972 l 257 972 l 257 406 q 282 280 257 337 q 356 190 308 224 q 474 156 405 156 q 591 189 543 156 q 664 280 639 223 q 689 406 689 337 l 689 972 l 863 972 l 863 406 q 814 192 863 288 q 678 39 765 96 q 474 -18 590 -18 m 473 1033 q 357 1065 410 1033 q 274 1148 305 1096 q 242 1264 242 1201 l 350 1264 q 386 1177 350 1213 q 473 1141 423 1141 q 560 1177 524 1141 q 596 1264 596 1213 l 703 1264 q 672 1147 703 1199 q 589 1064 641 1094 q 473 1033 536 1033 z "},"Ǔ":{"ha":946,"x_min":83,"x_max":863,"o":"m 474 -18 q 269 39 357 -18 q 132 192 181 96 q 83 406 83 288 l 83 972 l 257 972 l 257 406 q 282 280 257 337 q 356 190 308 224 q 474 156 405 156 q 591 189 543 156 q 664 280 639 223 q 689 406 689 337 l 689 972 l 863 972 l 863 406 q 814 192 863 288 q 678 39 765 96 q 474 -18 590 -18 m 376 1049 l 242 1249 l 357 1249 l 474 1115 l 588 1249 l 703 1249 l 572 1049 l 376 1049 z "},"Û":{"ha":946,"x_min":83,"x_max":863,"o":"m 474 -18 q 269 39 357 -18 q 132 192 181 96 q 83 406 83 288 l 83 972 l 257 972 l 257 406 q 282 280 257 337 q 356 190 308 224 q 474 156 405 156 q 591 189 543 156 q 664 280 639 223 q 689 406 689 337 l 689 972 l 863 972 l 863 406 q 814 192 863 288 q 678 39 765 96 q 474 -18 590 -18 m 570 1249 l 705 1049 l 589 1049 l 473 1183 l 358 1049 l 242 1049 l 375 1249 l 570 1249 z "},"Ü":{"ha":946,"x_min":83,"x_max":863,"o":"m 474 -18 q 269 39 357 -18 q 132 192 181 96 q 83 406 83 288 l 83 972 l 257 972 l 257 406 q 282 280 257 337 q 356 190 308 224 q 474 156 405 156 q 591 189 543 156 q 664 280 639 223 q 689 406 689 337 l 689 972 l 863 972 l 863 406 q 814 192 863 288 q 678 39 765 96 q 474 -18 590 -18 m 335 1020 q 270 1045 297 1020 q 244 1109 244 1071 q 270 1172 244 1146 q 335 1198 297 1198 q 398 1172 372 1198 q 424 1109 424 1146 q 398 1045 424 1071 q 335 1020 372 1020 m 613 1020 q 549 1045 575 1020 q 522 1109 522 1071 q 549 1172 522 1146 q 613 1198 575 1198 q 676 1172 650 1198 q 702 1109 702 1146 q 676 1045 702 1071 q 613 1020 650 1020 z "},"Ǘ":{"ha":946,"x_min":83,"x_max":863,"o":"m 474 -18 q 269 39 357 -18 q 132 192 181 96 q 83 406 83 288 l 83 972 l 257 972 l 257 406 q 282 280 257 337 q 356 190 308 224 q 474 156 405 156 q 591 189 543 156 q 664 280 639 223 q 689 406 689 337 l 689 972 l 863 972 l 863 406 q 814 192 863 288 q 678 39 765 96 q 474 -18 590 -18 m 334 1020 q 270 1045 296 1020 q 244 1109 244 1071 q 270 1172 244 1146 q 334 1198 296 1198 q 397 1172 372 1198 q 423 1109 423 1146 q 397 1045 423 1071 q 334 1020 372 1020 m 613 1020 q 548 1045 574 1020 q 522 1109 522 1071 q 548 1172 522 1146 q 613 1198 574 1198 q 675 1172 649 1198 q 701 1109 701 1146 q 675 1045 701 1071 q 613 1020 649 1020 m 427 1250 l 483 1450 l 656 1450 l 543 1250 l 427 1250 z "},"Ǚ":{"ha":946,"x_min":83,"x_max":863,"o":"m 474 -18 q 269 39 357 -18 q 132 192 181 96 q 83 406 83 288 l 83 972 l 257 972 l 257 406 q 282 280 257 337 q 356 190 308 224 q 474 156 405 156 q 591 189 543 156 q 664 280 639 223 q 689 406 689 337 l 689 972 l 863 972 l 863 406 q 814 192 863 288 q 678 39 765 96 q 474 -18 590 -18 m 334 1020 q 270 1045 296 1020 q 244 1109 244 1071 q 270 1172 244 1146 q 334 1198 296 1198 q 397 1172 372 1198 q 423 1109 423 1146 q 397 1045 423 1071 q 334 1020 372 1020 m 613 1020 q 548 1045 574 1020 q 522 1109 522 1071 q 548 1172 522 1146 q 613 1198 574 1198 q 675 1172 649 1198 q 701 1109 701 1146 q 675 1045 701 1071 q 613 1020 649 1020 m 376 1247 l 242 1447 l 357 1447 l 474 1313 l 588 1447 l 703 1447 l 572 1247 l 376 1247 z "},"Ǜ":{"ha":946,"x_min":83,"x_max":863,"o":"m 474 -18 q 269 39 357 -18 q 132 192 181 96 q 83 406 83 288 l 83 972 l 257 972 l 257 406 q 282 280 257 337 q 356 190 308 224 q 474 156 405 156 q 591 189 543 156 q 664 280 639 223 q 689 406 689 337 l 689 972 l 863 972 l 863 406 q 814 192 863 288 q 678 39 765 96 q 474 -18 590 -18 m 334 1020 q 270 1045 296 1020 q 244 1109 244 1071 q 270 1172 244 1146 q 334 1198 296 1198 q 397 1172 372 1198 q 423 1109 423 1146 q 397 1045 423 1071 q 334 1020 372 1020 m 613 1020 q 548 1045 574 1020 q 522 1109 522 1071 q 548 1172 522 1146 q 613 1198 574 1198 q 675 1172 649 1198 q 701 1109 701 1146 q 675 1045 701 1071 q 613 1020 649 1020 m 289 1447 l 462 1447 l 517 1247 l 402 1247 l 289 1447 z "},"Ǖ":{"ha":946,"x_min":83,"x_max":863,"o":"m 474 -18 q 269 39 357 -18 q 132 192 181 96 q 83 406 83 288 l 83 972 l 257 972 l 257 406 q 282 280 257 337 q 356 190 308 224 q 474 156 405 156 q 591 189 543 156 q 664 280 639 223 q 689 406 689 337 l 689 972 l 863 972 l 863 406 q 814 192 863 288 q 678 39 765 96 q 474 -18 590 -18 m 334 1020 q 270 1045 296 1020 q 244 1109 244 1071 q 270 1172 244 1146 q 334 1198 296 1198 q 397 1172 372 1198 q 423 1109 423 1146 q 397 1045 423 1071 q 334 1020 372 1020 m 613 1020 q 548 1045 574 1020 q 522 1109 522 1071 q 548 1172 522 1146 q 613 1198 574 1198 q 675 1172 649 1198 q 701 1109 701 1146 q 675 1045 701 1071 q 613 1020 649 1020 m 238 1399 l 708 1399 l 708 1270 l 238 1270 l 238 1399 z "},"Ụ":{"ha":946,"x_min":83,"x_max":863,"o":"m 474 -18 q 269 39 357 -18 q 132 192 181 96 q 83 406 83 288 l 83 972 l 257 972 l 257 406 q 282 280 257 337 q 356 190 308 224 q 474 156 405 156 q 591 189 543 156 q 664 280 639 223 q 689 406 689 337 l 689 972 l 863 972 l 863 406 q 814 192 863 288 q 678 39 765 96 q 474 -18 590 -18 m 474 -308 q 409 -282 435 -308 q 383 -219 383 -257 q 409 -156 383 -181 q 474 -130 435 -130 q 536 -156 510 -130 q 563 -219 563 -181 q 537 -282 563 -257 q 474 -308 511 -308 z "},"Ù":{"ha":946,"x_min":83,"x_max":863,"o":"m 474 -18 q 269 39 357 -18 q 132 192 181 96 q 83 406 83 288 l 83 972 l 257 972 l 257 406 q 282 280 257 337 q 356 190 308 224 q 474 156 405 156 q 591 189 543 156 q 664 280 639 223 q 689 406 689 337 l 689 972 l 863 972 l 863 406 q 814 192 863 288 q 678 39 765 96 q 474 -18 590 -18 m 289 1249 l 462 1249 l 517 1049 l 402 1049 l 289 1249 z "},"Ű":{"ha":946,"x_min":83,"x_max":863,"o":"m 474 -18 q 269 39 357 -18 q 132 192 181 96 q 83 406 83 288 l 83 972 l 257 972 l 257 406 q 282 280 257 337 q 356 190 308 224 q 474 156 405 156 q 591 189 543 156 q 664 280 639 223 q 689 406 689 337 l 689 972 l 863 972 l 863 406 q 814 192 863 288 q 678 39 765 96 q 474 -18 590 -18 m 552 1050 l 608 1250 l 781 1250 l 668 1050 l 552 1050 m 317 1050 l 372 1250 l 546 1250 l 433 1050 l 317 1050 z "},"Ū":{"ha":946,"x_min":83,"x_max":863,"o":"m 474 -18 q 269 39 357 -18 q 132 192 181 96 q 83 406 83 288 l 83 972 l 257 972 l 257 406 q 282 280 257 337 q 356 190 308 224 q 474 156 405 156 q 591 189 543 156 q 664 280 639 223 q 689 406 689 337 l 689 972 l 863 972 l 863 406 q 814 192 863 288 q 678 39 765 96 q 474 -18 590 -18 m 238 1201 l 708 1201 l 708 1072 l 238 1072 l 238 1201 z "},"Ų":{"ha":946,"x_min":83,"x_max":863,"o":"m 474 -18 q 269 39 357 -18 q 132 192 181 96 q 83 406 83 288 l 83 972 l 257 972 l 257 406 q 282 280 257 337 q 356 190 308 224 q 474 156 405 156 q 591 189 543 156 q 664 280 639 223 q 689 406 689 337 l 689 972 l 863 972 l 863 406 q 814 192 863 288 q 678 39 765 96 q 474 -18 590 -18 m 496 -317 q 409 -293 446 -317 q 352 -231 372 -269 q 331 -151 331 -193 q 343 -90 331 -120 q 380 -35 355 -60 l 497 82 l 581 -2 q 495 -88 531 -52 q 460 -158 460 -124 q 471 -188 460 -174 q 503 -201 483 -201 q 549 -183 529 -201 q 569 -135 569 -164 l 678 -135 q 654 -226 678 -185 q 589 -292 630 -267 q 496 -317 548 -317 z "},"Ů":{"ha":946,"x_min":83,"x_max":863,"o":"m 474 -18 q 269 39 357 -18 q 132 192 181 96 q 83 406 83 288 l 83 972 l 257 972 l 257 406 q 282 280 257 337 q 356 190 308 224 q 474 156 405 156 q 591 189 543 156 q 664 280 639 223 q 689 406 689 337 l 689 972 l 863 972 l 863 406 q 814 192 863 288 q 678 39 765 96 q 474 -18 590 -18 m 473 1019 q 381 1058 419 1019 q 343 1150 343 1097 q 381 1240 343 1202 q 473 1278 419 1278 q 565 1240 526 1278 q 603 1150 603 1202 q 565 1057 603 1095 q 473 1019 526 1019 m 473 1102 q 505 1116 492 1102 q 519 1149 519 1130 q 505 1181 519 1168 q 473 1194 492 1194 q 441 1181 454 1194 q 427 1149 427 1168 q 441 1116 427 1130 q 473 1102 454 1102 z "},"Ũ":{"ha":946,"x_min":83,"x_max":863,"o":"m 474 -18 q 269 39 357 -18 q 132 192 181 96 q 83 406 83 288 l 83 972 l 257 972 l 257 406 q 282 280 257 337 q 356 190 308 224 q 474 156 405 156 q 591 189 543 156 q 664 280 639 223 q 689 406 689 337 l 689 972 l 863 972 l 863 406 q 814 192 863 288 q 678 39 765 96 q 474 -18 590 -18 m 581 1044 q 519 1063 555 1044 q 449 1103 484 1081 q 388 1139 415 1125 q 353 1142 362 1152 q 343 1118 345 1133 q 348 1082 342 1104 l 248 1054 q 238 1154 228 1109 q 280 1226 247 1199 q 365 1253 313 1253 q 423 1238 390 1253 q 489 1203 456 1223 q 548 1169 522 1184 q 585 1154 574 1154 q 605 1174 606 1154 q 597 1213 603 1194 l 699 1247 q 708 1143 718 1189 q 664 1071 697 1097 q 581 1044 631 1044 z "},"V":{"ha":1043,"x_min":58,"x_max":985,"o":"m 410 0 l 58 972 l 242 972 l 522 202 l 801 972 l 985 972 l 632 0 l 410 0 z "},"W":{"ha":1301,"x_min":58,"x_max":1244,"o":"m 306 0 l 58 972 l 237 972 l 404 315 l 572 972 l 730 972 l 897 315 l 1065 972 l 1244 972 l 997 0 l 799 0 l 651 581 l 503 0 l 306 0 z "},"Ẃ":{"ha":1301,"x_min":58,"x_max":1244,"o":"m 306 0 l 58 972 l 237 972 l 404 315 l 572 972 l 730 972 l 897 315 l 1065 972 l 1244 972 l 997 0 l 799 0 l 651 581 l 503 0 l 306 0 m 606 1051 l 661 1251 l 835 1251 l 722 1051 l 606 1051 z "},"Ŵ":{"ha":1301,"x_min":58,"x_max":1244,"o":"m 306 0 l 58 972 l 237 972 l 404 315 l 572 972 l 730 972 l 897 315 l 1065 972 l 1244 972 l 997 0 l 799 0 l 651 581 l 503 0 l 306 0 m 748 1249 l 883 1049 l 767 1049 l 651 1183 l 536 1049 l 420 1049 l 553 1249 l 748 1249 z "},"Ẅ":{"ha":1301,"x_min":58,"x_max":1244,"o":"m 306 0 l 58 972 l 237 972 l 404 315 l 572 972 l 730 972 l 897 315 l 1065 972 l 1244 972 l 997 0 l 799 0 l 651 581 l 503 0 l 306 0 m 513 1020 q 448 1045 474 1020 q 422 1109 422 1071 q 448 1172 422 1146 q 513 1198 474 1198 q 576 1172 550 1198 q 601 1109 601 1146 q 576 1045 601 1071 q 513 1020 550 1020 m 791 1020 q 726 1045 753 1020 q 700 1109 700 1071 q 726 1172 700 1146 q 791 1198 753 1198 q 854 1172 828 1198 q 880 1109 880 1146 q 854 1045 880 1071 q 791 1020 828 1020 z "},"Ẁ":{"ha":1301,"x_min":58,"x_max":1244,"o":"m 306 0 l 58 972 l 237 972 l 404 315 l 572 972 l 730 972 l 897 315 l 1065 972 l 1244 972 l 997 0 l 799 0 l 651 581 l 503 0 l 306 0 m 467 1249 l 640 1249 l 696 1049 l 581 1049 l 467 1249 z "},"X":{"ha":1010,"x_min":42,"x_max":968,"o":"m 42 0 l 397 489 l 46 972 l 260 972 l 505 635 l 750 972 l 964 972 l 613 489 l 968 0 l 753 0 l 505 341 l 257 0 l 42 0 z "},"Y":{"ha":925,"x_min":42,"x_max":884,"o":"m 679 972 l 884 972 l 549 438 l 549 0 l 376 0 l 376 438 l 42 972 l 247 972 l 463 627 l 679 972 z "},"Ý":{"ha":926,"x_min":42,"x_max":884,"o":"m 679 972 l 884 972 l 549 438 l 549 0 l 376 0 l 376 438 l 42 972 l 247 972 l 463 627 l 679 972 m 417 1051 l 473 1251 l 647 1251 l 533 1051 l 417 1051 z "},"Ŷ":{"ha":926,"x_min":42,"x_max":884,"o":"m 679 972 l 884 972 l 549 438 l 549 0 l 376 0 l 376 438 l 42 972 l 247 972 l 463 627 l 679 972 m 560 1249 l 694 1049 l 578 1049 l 463 1183 l 348 1049 l 232 1049 l 365 1249 l 560 1249 z "},"Ÿ":{"ha":926,"x_min":42,"x_max":884,"o":"m 679 972 l 884 972 l 549 438 l 549 0 l 376 0 l 376 438 l 42 972 l 247 972 l 463 627 l 679 972 m 324 1020 q 260 1045 286 1020 q 234 1109 234 1071 q 260 1172 234 1146 q 324 1198 286 1198 q 388 1172 362 1198 q 413 1109 413 1146 q 388 1045 413 1071 q 324 1020 362 1020 m 603 1020 q 538 1045 565 1020 q 512 1109 512 1071 q 538 1172 512 1146 q 603 1198 565 1198 q 666 1172 640 1198 q 692 1109 692 1146 q 666 1045 692 1071 q 603 1020 640 1020 z "},"Ỵ":{"ha":925,"x_min":42,"x_max":884,"o":"m 679 972 l 884 972 l 549 438 l 549 0 l 376 0 l 376 438 l 42 972 l 247 972 l 463 627 l 679 972 m 463 -308 q 399 -282 425 -308 q 373 -219 373 -257 q 399 -156 373 -181 q 463 -130 425 -130 q 526 -156 500 -130 q 552 -219 552 -181 q 526 -282 552 -257 q 463 -308 501 -308 z "},"Ỳ":{"ha":926,"x_min":42,"x_max":884,"o":"m 679 972 l 884 972 l 549 438 l 549 0 l 376 0 l 376 438 l 42 972 l 247 972 l 463 627 l 679 972 m 279 1249 l 452 1249 l 508 1049 l 392 1049 l 279 1249 z "},"Ȳ":{"ha":925,"x_min":42,"x_max":884,"o":"m 679 972 l 884 972 l 549 438 l 549 0 l 376 0 l 376 438 l 42 972 l 247 972 l 463 627 l 679 972 m 228 1201 l 697 1201 l 697 1072 l 228 1072 l 228 1201 z "},"Ỹ":{"ha":925,"x_min":42,"x_max":884,"o":"m 679 972 l 884 972 l 549 438 l 549 0 l 376 0 l 376 438 l 42 972 l 247 972 l 463 627 l 679 972 m 571 1044 q 509 1063 544 1044 q 439 1103 474 1081 q 378 1139 404 1125 q 343 1142 351 1152 q 333 1118 335 1133 q 338 1082 331 1104 l 238 1054 q 227 1154 218 1109 q 269 1226 236 1199 q 354 1253 302 1253 q 413 1238 379 1253 q 479 1203 446 1223 q 538 1169 512 1184 q 574 1154 564 1154 q 594 1174 595 1154 q 586 1213 593 1194 l 689 1247 q 697 1143 708 1189 q 653 1071 687 1097 q 571 1044 620 1044 z "},"Z":{"ha":897,"x_min":56,"x_max":842,"o":"m 56 0 l 56 174 l 608 799 l 56 799 l 56 972 l 842 972 l 842 799 l 290 174 l 842 174 l 842 0 l 56 0 z "},"Ź":{"ha":897,"x_min":56,"x_max":842,"o":"m 56 0 l 56 174 l 608 799 l 56 799 l 56 972 l 842 972 l 842 799 l 290 174 l 842 174 l 842 0 l 56 0 m 403 1051 l 459 1251 l 633 1251 l 519 1051 l 403 1051 z "},"Ž":{"ha":897,"x_min":56,"x_max":842,"o":"m 56 0 l 56 174 l 608 799 l 56 799 l 56 972 l 842 972 l 842 799 l 290 174 l 842 174 l 842 0 l 56 0 m 352 1049 l 217 1249 l 333 1249 l 449 1115 l 563 1249 l 679 1249 l 547 1049 l 352 1049 z "},"Ż":{"ha":897,"x_min":56,"x_max":842,"o":"m 56 0 l 56 174 l 608 799 l 56 799 l 56 972 l 842 972 l 842 799 l 290 174 l 842 174 l 842 0 l 56 0 m 449 1060 q 385 1085 411 1060 q 359 1149 359 1110 q 385 1212 359 1186 q 449 1238 411 1238 q 512 1212 486 1238 q 538 1149 538 1186 q 513 1085 538 1110 q 449 1060 487 1060 z "},"Ẓ":{"ha":897,"x_min":56,"x_max":842,"o":"m 56 0 l 56 174 l 608 799 l 56 799 l 56 972 l 842 972 l 842 799 l 290 174 l 842 174 l 842 0 l 56 0 m 449 -308 q 385 -282 411 -308 q 359 -219 359 -257 q 385 -156 359 -181 q 449 -130 411 -130 q 512 -156 486 -130 q 538 -219 538 -181 q 513 -282 538 -257 q 449 -308 487 -308 z "},"Ꞌ":{"ha":257,"x_min":42,"x_max":215,"o":"m 215 1042 l 186 419 l 71 419 l 42 1042 l 215 1042 z "},"a":{"ha":861,"x_min":42,"x_max":778,"o":"m 605 694 l 778 694 l 778 0 l 604 0 l 597 83 q 522 10 568 38 q 414 -18 476 -18 q 269 11 336 -18 q 150 91 201 40 q 70 210 99 142 q 42 355 42 278 q 90 536 42 454 q 218 666 138 617 q 399 714 299 714 q 520 684 467 714 q 613 608 574 653 l 605 694 m 409 149 q 503 175 462 149 q 568 247 544 202 q 591 347 591 292 q 567 448 591 403 q 503 519 544 493 q 409 546 462 546 q 313 519 356 546 q 245 447 270 492 q 219 347 219 402 q 245 247 219 292 q 315 175 272 202 q 409 149 358 149 z "},"á":{"ha":856,"x_min":42,"x_max":778,"o":"m 605 694 l 778 694 l 778 0 l 604 0 l 597 83 q 522 10 568 38 q 414 -18 476 -18 q 269 11 336 -18 q 150 91 201 40 q 70 210 99 142 q 42 355 42 278 q 90 536 42 454 q 218 666 138 617 q 399 714 299 714 q 520 684 467 714 q 613 608 574 653 l 605 694 m 409 149 q 503 175 462 149 q 568 247 544 202 q 591 347 591 292 q 567 448 591 403 q 503 519 544 493 q 409 546 462 546 q 313 519 356 546 q 245 447 270 492 q 219 347 219 402 q 245 247 219 292 q 315 175 272 202 q 409 149 358 149 m 381 773 l 437 973 l 610 973 l 497 773 l 381 773 z "},"ă":{"ha":861,"x_min":42,"x_max":778,"o":"m 605 694 l 778 694 l 778 0 l 604 0 l 597 83 q 522 10 568 38 q 414 -18 476 -18 q 269 11 336 -18 q 150 91 201 40 q 70 210 99 142 q 42 355 42 278 q 90 536 42 454 q 218 666 138 617 q 399 714 299 714 q 520 684 467 714 q 613 608 574 653 l 605 694 m 409 149 q 503 175 462 149 q 568 247 544 202 q 591 347 591 292 q 567 448 591 403 q 503 519 544 493 q 409 546 462 546 q 313 519 356 546 q 245 447 270 492 q 219 347 219 402 q 245 247 219 292 q 315 175 272 202 q 409 149 358 149 m 426 756 q 311 787 363 756 q 227 870 258 818 q 196 986 196 923 l 303 986 q 340 899 303 935 q 426 863 376 863 q 513 899 477 863 q 549 986 549 935 l 657 986 q 626 869 657 922 q 542 786 594 817 q 426 756 490 756 z "},"ặ":{"ha":861,"x_min":42,"x_max":778,"o":"m 605 694 l 778 694 l 778 0 l 604 0 l 597 83 q 522 10 568 38 q 414 -18 476 -18 q 269 11 336 -18 q 150 91 201 40 q 70 210 99 142 q 42 355 42 278 q 90 536 42 454 q 218 666 138 617 q 399 714 299 714 q 520 684 467 714 q 613 608 574 653 l 605 694 m 409 149 q 503 175 462 149 q 568 247 544 202 q 591 347 591 292 q 567 448 591 403 q 503 519 544 493 q 409 546 462 546 q 313 519 356 546 q 245 447 270 492 q 219 347 219 402 q 245 247 219 292 q 315 175 272 202 q 409 149 358 149 m 428 -308 q 364 -282 390 -308 q 338 -219 338 -257 q 364 -156 338 -181 q 428 -130 390 -130 q 491 -156 465 -130 q 517 -219 517 -181 q 491 -282 517 -257 q 428 -308 465 -308 m 426 756 q 311 787 363 756 q 227 870 258 818 q 196 986 196 923 l 303 986 q 340 899 303 935 q 426 863 376 863 q 513 899 477 863 q 549 986 549 935 l 657 986 q 626 869 657 922 q 542 786 594 817 q 426 756 490 756 z "},"ằ":{"ha":861,"x_min":42,"x_max":778,"o":"m 605 694 l 778 694 l 778 0 l 604 0 l 597 83 q 522 10 568 38 q 414 -18 476 -18 q 269 11 336 -18 q 150 91 201 40 q 70 210 99 142 q 42 355 42 278 q 90 536 42 454 q 218 666 138 617 q 399 714 299 714 q 520 684 467 714 q 613 608 574 653 l 605 694 m 409 149 q 503 175 462 149 q 568 247 544 202 q 591 347 591 292 q 567 448 591 403 q 503 519 544 493 q 409 546 462 546 q 313 519 356 546 q 245 447 270 492 q 219 347 219 402 q 245 247 219 292 q 315 175 272 202 q 409 149 358 149 m 426 756 q 311 787 363 756 q 227 870 258 818 q 196 986 196 923 l 303 986 q 340 899 303 935 q 426 863 376 863 q 513 899 477 863 q 549 986 549 935 l 657 986 q 626 869 657 922 q 542 786 594 817 q 426 756 490 756 m 243 1263 l 416 1263 l 472 1063 l 356 1063 l 243 1263 z "},"ǎ":{"ha":861,"x_min":42,"x_max":778,"o":"m 605 694 l 778 694 l 778 0 l 604 0 l 597 83 q 522 10 568 38 q 414 -18 476 -18 q 269 11 336 -18 q 150 91 201 40 q 70 210 99 142 q 42 355 42 278 q 90 536 42 454 q 218 666 138 617 q 399 714 299 714 q 520 684 467 714 q 613 608 574 653 l 605 694 m 409 149 q 503 175 462 149 q 568 247 544 202 q 591 347 591 292 q 567 448 591 403 q 503 519 544 493 q 409 546 462 546 q 313 519 356 546 q 245 447 270 492 q 219 347 219 402 q 245 247 219 292 q 315 175 272 202 q 409 149 358 149 m 331 771 l 196 971 l 311 971 l 428 837 l 542 971 l 658 971 l 526 771 l 331 771 z "},"â":{"ha":862,"x_min":42,"x_max":778,"o":"m 605 694 l 778 694 l 778 0 l 604 0 l 597 83 q 522 10 568 38 q 414 -18 476 -18 q 269 11 336 -18 q 150 91 201 40 q 70 210 99 142 q 42 355 42 278 q 90 536 42 454 q 218 666 138 617 q 399 714 299 714 q 520 684 467 714 q 613 608 574 653 l 605 694 m 409 149 q 503 175 462 149 q 568 247 544 202 q 591 347 591 292 q 567 448 591 403 q 503 519 544 493 q 409 546 462 546 q 313 519 356 546 q 245 447 270 492 q 219 347 219 402 q 245 247 219 292 q 315 175 272 202 q 409 149 358 149 m 524 971 l 658 771 l 542 771 l 426 905 l 312 771 l 196 771 l 328 971 l 524 971 z "},"ấ":{"ha":861,"x_min":42,"x_max":778,"o":"m 605 694 l 778 694 l 778 0 l 604 0 l 597 83 q 522 10 568 38 q 414 -18 476 -18 q 269 11 336 -18 q 150 91 201 40 q 70 210 99 142 q 42 355 42 278 q 90 536 42 454 q 218 666 138 617 q 399 714 299 714 q 520 684 467 714 q 613 608 574 653 l 605 694 m 409 149 q 503 175 462 149 q 568 247 544 202 q 591 347 591 292 q 567 448 591 403 q 503 519 544 493 q 409 546 462 546 q 313 519 356 546 q 245 447 270 492 q 219 347 219 402 q 245 247 219 292 q 315 175 272 202 q 409 149 358 149 m 524 971 l 659 771 l 543 771 l 427 905 l 313 771 l 197 771 l 329 971 l 524 971 m 381 1040 l 437 1240 l 610 1240 l 497 1040 l 381 1040 z "},"ậ":{"ha":861,"x_min":42,"x_max":778,"o":"m 605 694 l 778 694 l 778 0 l 604 0 l 597 83 q 522 10 568 38 q 414 -18 476 -18 q 269 11 336 -18 q 150 91 201 40 q 70 210 99 142 q 42 355 42 278 q 90 536 42 454 q 218 666 138 617 q 399 714 299 714 q 520 684 467 714 q 613 608 574 653 l 605 694 m 409 149 q 503 175 462 149 q 568 247 544 202 q 591 347 591 292 q 567 448 591 403 q 503 519 544 493 q 409 546 462 546 q 313 519 356 546 q 245 447 270 492 q 219 347 219 402 q 245 247 219 292 q 315 175 272 202 q 409 149 358 149 m 428 -308 q 364 -282 390 -308 q 338 -219 338 -257 q 364 -156 338 -181 q 428 -130 390 -130 q 491 -156 465 -130 q 517 -219 517 -181 q 491 -282 517 -257 q 428 -308 465 -308 m 524 971 l 659 771 l 543 771 l 427 905 l 313 771 l 197 771 l 329 971 l 524 971 z "},"ầ":{"ha":861,"x_min":42,"x_max":778,"o":"m 605 694 l 778 694 l 778 0 l 604 0 l 597 83 q 522 10 568 38 q 414 -18 476 -18 q 269 11 336 -18 q 150 91 201 40 q 70 210 99 142 q 42 355 42 278 q 90 536 42 454 q 218 666 138 617 q 399 714 299 714 q 520 684 467 714 q 613 608 574 653 l 605 694 m 409 149 q 503 175 462 149 q 568 247 544 202 q 591 347 591 292 q 567 448 591 403 q 503 519 544 493 q 409 546 462 546 q 313 519 356 546 q 245 447 270 492 q 219 347 219 402 q 245 247 219 292 q 315 175 272 202 q 409 149 358 149 m 524 971 l 659 771 l 543 771 l 427 905 l 313 771 l 197 771 l 329 971 l 524 971 m 243 1237 l 416 1237 l 472 1037 l 356 1037 l 243 1237 z "},"ẫ":{"ha":861,"x_min":42,"x_max":778,"o":"m 605 694 l 778 694 l 778 0 l 604 0 l 597 83 q 522 10 568 38 q 414 -18 476 -18 q 269 11 336 -18 q 150 91 201 40 q 70 210 99 142 q 42 355 42 278 q 90 536 42 454 q 218 666 138 617 q 399 714 299 714 q 520 684 467 714 q 613 608 574 653 l 605 694 m 409 149 q 503 175 462 149 q 568 247 544 202 q 591 347 591 292 q 567 448 591 403 q 503 519 544 493 q 409 546 462 546 q 313 519 356 546 q 245 447 270 492 q 219 347 219 402 q 245 247 219 292 q 315 175 272 202 q 409 149 358 149 m 524 971 l 659 771 l 543 771 l 427 905 l 313 771 l 197 771 l 329 971 l 524 971 m 535 1033 q 473 1051 508 1033 q 403 1091 438 1069 q 342 1127 368 1113 q 307 1131 315 1140 q 297 1107 299 1121 q 301 1070 295 1092 l 201 1042 q 191 1142 182 1097 q 233 1214 200 1188 q 318 1241 266 1241 q 376 1226 343 1241 q 443 1192 410 1211 q 502 1157 476 1172 q 538 1142 528 1142 q 558 1163 559 1142 q 550 1201 557 1183 l 653 1235 q 661 1131 672 1177 q 617 1059 651 1085 q 535 1033 584 1033 z "},"ä":{"ha":862,"x_min":42,"x_max":778,"o":"m 605 694 l 778 694 l 778 0 l 604 0 l 597 83 q 522 10 568 38 q 414 -18 476 -18 q 269 11 336 -18 q 150 91 201 40 q 70 210 99 142 q 42 355 42 278 q 90 536 42 454 q 218 666 138 617 q 399 714 299 714 q 520 684 467 714 q 613 608 574 653 l 605 694 m 409 149 q 503 175 462 149 q 568 247 544 202 q 591 347 591 292 q 567 448 591 403 q 503 519 544 493 q 409 546 462 546 q 313 519 356 546 q 245 447 270 492 q 219 347 219 402 q 245 247 219 292 q 315 175 272 202 q 409 149 358 149 m 288 742 q 224 768 250 742 q 198 831 198 793 q 224 894 198 868 q 288 920 250 920 q 351 894 326 920 q 377 831 377 868 q 351 768 377 793 q 288 742 326 742 m 567 742 q 502 768 528 742 q 476 831 476 793 q 502 894 476 868 q 567 920 528 920 q 630 894 603 920 q 656 831 656 868 q 630 768 656 793 q 567 742 603 742 z "},"ǟ":{"ha":861,"x_min":42,"x_max":778,"o":"m 605 694 l 778 694 l 778 0 l 604 0 l 597 83 q 522 10 568 38 q 414 -18 476 -18 q 269 11 336 -18 q 150 91 201 40 q 70 210 99 142 q 42 355 42 278 q 90 536 42 454 q 218 666 138 617 q 399 714 299 714 q 520 684 467 714 q 613 608 574 653 l 605 694 m 409 149 q 503 175 462 149 q 568 247 544 202 q 591 347 591 292 q 567 448 591 403 q 503 519 544 493 q 409 546 462 546 q 313 519 356 546 q 245 447 270 492 q 219 347 219 402 q 245 247 219 292 q 315 175 272 202 q 409 149 358 149 m 288 742 q 224 768 250 742 q 198 831 198 793 q 224 894 198 868 q 288 920 250 920 q 351 894 326 920 q 377 831 377 868 q 351 768 377 793 q 288 742 326 742 m 567 742 q 502 768 528 742 q 476 831 476 793 q 502 894 476 868 q 567 920 528 920 q 630 894 603 920 q 656 831 656 868 q 630 768 656 793 q 567 742 603 742 m 192 1122 l 661 1122 l 661 992 l 192 992 l 192 1122 z "},"ạ":{"ha":861,"x_min":42,"x_max":778,"o":"m 605 694 l 778 694 l 778 0 l 604 0 l 597 83 q 522 10 568 38 q 414 -18 476 -18 q 269 11 336 -18 q 150 91 201 40 q 70 210 99 142 q 42 355 42 278 q 90 536 42 454 q 218 666 138 617 q 399 714 299 714 q 520 684 467 714 q 613 608 574 653 l 605 694 m 409 149 q 503 175 462 149 q 568 247 544 202 q 591 347 591 292 q 567 448 591 403 q 503 519 544 493 q 409 546 462 546 q 313 519 356 546 q 245 447 270 492 q 219 347 219 402 q 245 247 219 292 q 315 175 272 202 q 409 149 358 149 m 428 -308 q 364 -282 390 -308 q 338 -219 338 -257 q 364 -156 338 -181 q 428 -130 390 -130 q 491 -156 465 -130 q 517 -219 517 -181 q 491 -282 517 -257 q 428 -308 465 -308 z "},"à":{"ha":862,"x_min":42,"x_max":778,"o":"m 605 694 l 778 694 l 778 0 l 604 0 l 597 83 q 522 10 568 38 q 414 -18 476 -18 q 269 11 336 -18 q 150 91 201 40 q 70 210 99 142 q 42 355 42 278 q 90 536 42 454 q 218 666 138 617 q 399 714 299 714 q 520 684 467 714 q 613 608 574 653 l 605 694 m 409 149 q 503 175 462 149 q 568 247 544 202 q 591 347 591 292 q 567 448 591 403 q 503 519 544 493 q 409 546 462 546 q 313 519 356 546 q 245 447 270 492 q 219 347 219 402 q 245 247 219 292 q 315 175 272 202 q 409 149 358 149 m 243 971 l 416 971 l 472 771 l 356 771 l 243 971 z "},"ā":{"ha":861,"x_min":42,"x_max":778,"o":"m 605 694 l 778 694 l 778 0 l 604 0 l 597 83 q 522 10 568 38 q 414 -18 476 -18 q 269 11 336 -18 q 150 91 201 40 q 70 210 99 142 q 42 355 42 278 q 90 536 42 454 q 218 666 138 617 q 399 714 299 714 q 520 684 467 714 q 613 608 574 653 l 605 694 m 409 149 q 503 175 462 149 q 568 247 544 202 q 591 347 591 292 q 567 448 591 403 q 503 519 544 493 q 409 546 462 546 q 313 519 356 546 q 245 447 270 492 q 219 347 219 402 q 245 247 219 292 q 315 175 272 202 q 409 149 358 149 m 192 923 l 661 923 l 661 794 l 192 794 l 192 923 z "},"ą":{"ha":861,"x_min":42,"x_max":876,"o":"m 605 694 l 778 694 l 778 0 l 604 0 l 597 83 q 522 10 568 38 q 414 -18 476 -18 q 269 11 336 -18 q 150 91 201 40 q 70 210 99 142 q 42 355 42 278 q 90 536 42 454 q 218 666 138 617 q 399 714 299 714 q 520 684 467 714 q 613 608 574 653 l 605 694 m 409 149 q 503 175 462 149 q 568 247 544 202 q 591 347 591 292 q 567 448 591 403 q 503 519 544 493 q 409 546 462 546 q 313 519 356 546 q 245 447 270 492 q 219 347 219 402 q 245 247 219 292 q 315 175 272 202 q 409 149 358 149 m 693 -315 q 606 -291 643 -315 q 549 -229 569 -267 q 528 -149 528 -191 q 540 -88 528 -118 q 577 -33 552 -58 l 694 84 l 778 0 q 692 -86 728 -50 q 657 -156 657 -122 q 668 -186 657 -172 q 700 -199 680 -199 q 746 -181 726 -199 q 766 -133 766 -162 l 876 -133 q 851 -224 876 -183 q 786 -290 827 -265 q 693 -315 745 -315 z "},"å":{"ha":862,"x_min":42,"x_max":778,"o":"m 605 694 l 778 694 l 778 0 l 604 0 l 597 83 q 522 10 568 38 q 414 -18 476 -18 q 269 11 336 -18 q 150 91 201 40 q 70 210 99 142 q 42 355 42 278 q 90 536 42 454 q 218 666 138 617 q 399 714 299 714 q 520 684 467 714 q 613 608 574 653 l 605 694 m 409 149 q 503 175 462 149 q 568 247 544 202 q 591 347 591 292 q 567 448 591 403 q 503 519 544 493 q 409 546 462 546 q 313 519 356 546 q 245 447 270 492 q 219 347 219 402 q 245 247 219 292 q 315 175 272 202 q 409 149 358 149 m 426 741 q 335 780 373 741 q 297 872 297 819 q 335 963 297 924 q 426 1001 373 1001 q 518 963 480 1001 q 556 872 556 924 q 518 779 556 817 q 426 741 480 741 m 426 824 q 459 838 445 824 q 472 872 472 852 q 459 903 472 890 q 426 917 445 917 q 394 903 408 917 q 381 872 381 890 q 394 838 381 852 q 426 824 408 824 z "},"ã":{"ha":862,"x_min":42,"x_max":778,"o":"m 605 694 l 778 694 l 778 0 l 604 0 l 597 83 q 522 10 568 38 q 414 -18 476 -18 q 269 11 336 -18 q 150 91 201 40 q 70 210 99 142 q 42 355 42 278 q 90 536 42 454 q 218 666 138 617 q 399 714 299 714 q 520 684 467 714 q 613 608 574 653 l 605 694 m 409 149 q 503 175 462 149 q 568 247 544 202 q 591 347 591 292 q 567 448 591 403 q 503 519 544 493 q 409 546 462 546 q 313 519 356 546 q 245 447 270 492 q 219 347 219 402 q 245 247 219 292 q 315 175 272 202 q 409 149 358 149 m 535 767 q 473 785 508 767 q 403 825 438 803 q 342 861 368 847 q 307 865 315 874 q 297 841 299 855 q 301 804 295 826 l 201 776 q 191 876 182 831 q 233 948 200 922 q 318 975 266 975 q 376 960 343 975 q 443 926 410 945 q 502 891 476 906 q 538 876 528 876 q 558 897 559 876 q 550 935 557 917 l 653 969 q 661 865 672 911 q 617 793 651 819 q 535 767 584 767 z "},"æ":{"ha":1199,"x_min":21,"x_max":1164,"o":"m 249 -18 q 132 12 183 -18 q 50 91 80 42 q 21 200 21 140 q 50 308 21 258 q 131 388 79 358 q 248 418 182 418 l 457 418 q 411 505 449 469 q 315 540 374 540 q 215 514 260 540 l 119 658 q 213 700 163 686 q 313 714 262 714 q 451 682 386 714 q 560 594 516 650 q 670 681 605 649 q 810 714 735 714 q 960 679 892 714 q 1075 585 1028 644 q 1143 449 1122 525 q 1153 288 1164 372 l 650 288 q 706 194 664 232 q 812 156 748 156 q 890 176 854 156 q 949 233 925 197 l 1125 192 q 999 41 1083 99 q 810 -18 915 -18 q 656 22 727 -18 q 540 126 585 61 q 469 55 514 88 q 368 2 425 22 q 249 -18 312 -18 m 644 418 l 978 418 q 918 521 965 479 q 810 563 872 563 q 703 521 749 563 q 644 418 658 480 m 249 133 q 342 155 300 133 q 411 213 383 177 q 456 289 440 245 l 248 289 q 194 267 215 289 q 172 213 172 244 q 193 158 172 182 q 249 133 215 133 z "},"ǣ":{"ha":1199,"x_min":21,"x_max":1164,"o":"m 249 -18 q 132 12 183 -18 q 50 91 80 42 q 21 200 21 140 q 50 308 21 258 q 131 388 79 358 q 248 418 182 418 l 457 418 q 411 505 449 469 q 315 540 374 540 q 215 514 260 540 l 119 658 q 213 700 163 686 q 313 714 262 714 q 451 682 386 714 q 560 594 516 650 q 670 681 605 649 q 810 714 735 714 q 960 679 892 714 q 1075 585 1028 644 q 1143 449 1122 525 q 1153 288 1164 372 l 650 288 q 706 194 664 232 q 812 156 748 156 q 890 176 854 156 q 949 233 925 197 l 1125 192 q 999 41 1083 99 q 810 -18 915 -18 q 656 22 727 -18 q 540 126 585 61 q 469 55 514 88 q 368 2 425 22 q 249 -18 312 -18 m 644 418 l 978 418 q 918 521 965 479 q 810 563 872 563 q 703 521 749 563 q 644 418 658 480 m 249 133 q 342 155 300 133 q 411 213 383 177 q 456 289 440 245 l 248 289 q 194 267 215 289 q 172 213 172 244 q 193 158 172 182 q 249 133 215 133 m 325 924 l 794 924 l 794 795 l 325 795 l 325 924 z "},"b":{"ha":863,"x_min":83,"x_max":821,"o":"m 455 714 q 597 685 531 714 q 714 607 663 657 q 792 490 764 556 q 821 349 821 424 q 772 164 821 247 q 639 31 722 81 q 455 -18 556 -18 q 340 11 390 -18 q 257 85 290 40 l 257 0 l 83 0 l 83 1042 l 257 1042 l 257 610 q 340 685 290 656 q 455 714 390 714 m 452 150 q 548 177 505 150 q 617 249 592 203 q 643 349 643 294 q 617 449 643 403 q 548 520 591 494 q 452 547 505 547 q 359 520 400 547 q 295 448 318 493 q 272 349 272 403 q 295 248 272 293 q 359 176 319 203 q 452 150 400 150 z "},"ḅ":{"ha":863,"x_min":83,"x_max":821,"o":"m 455 714 q 597 685 531 714 q 714 607 663 657 q 792 490 764 556 q 821 349 821 424 q 772 164 821 247 q 639 31 722 81 q 455 -18 556 -18 q 340 11 390 -18 q 257 85 290 40 l 257 0 l 83 0 l 83 1042 l 257 1042 l 257 610 q 340 685 290 656 q 455 714 390 714 m 452 150 q 548 177 505 150 q 617 249 592 203 q 643 349 643 294 q 617 449 643 403 q 548 520 591 494 q 452 547 505 547 q 359 520 400 547 q 295 448 318 493 q 272 349 272 403 q 295 248 272 293 q 359 176 319 203 q 452 150 400 150 m 432 -308 q 368 -282 394 -308 q 342 -219 342 -257 q 368 -156 342 -181 q 432 -130 394 -130 q 495 -156 469 -130 q 521 -219 521 -181 q 495 -282 521 -257 q 432 -308 469 -308 z "},"c":{"ha":708,"x_min":42,"x_max":667,"o":"m 511 211 l 667 126 q 547 22 619 61 q 389 -18 474 -18 q 214 31 293 -18 q 89 164 135 81 q 42 347 42 247 q 89 532 42 449 q 214 665 135 615 q 389 714 293 714 q 547 674 474 714 q 667 568 619 635 l 511 484 q 389 540 460 540 q 300 514 340 540 q 238 443 261 487 q 215 347 215 399 q 238 252 215 296 q 301 182 261 208 q 389 156 340 156 q 456 170 424 156 q 511 211 488 185 z "},"ć":{"ha":708,"x_min":42,"x_max":667,"o":"m 511 211 l 667 126 q 547 22 619 61 q 389 -18 474 -18 q 214 31 293 -18 q 89 164 135 81 q 42 347 42 247 q 89 532 42 449 q 214 665 135 615 q 389 714 293 714 q 547 674 474 714 q 667 568 619 635 l 511 484 q 389 540 460 540 q 300 514 340 540 q 238 443 261 487 q 215 347 215 399 q 238 252 215 296 q 301 182 261 208 q 389 156 340 156 q 456 170 424 156 q 511 211 488 185 m 344 773 l 399 973 l 573 973 l 460 773 l 344 773 z "},"č":{"ha":708,"x_min":42,"x_max":667,"o":"m 511 211 l 667 126 q 547 22 619 61 q 389 -18 474 -18 q 214 31 293 -18 q 89 164 135 81 q 42 347 42 247 q 89 532 42 449 q 214 665 135 615 q 389 714 293 714 q 547 674 474 714 q 667 568 619 635 l 511 484 q 389 540 460 540 q 300 514 340 540 q 238 443 261 487 q 215 347 215 399 q 238 252 215 296 q 301 182 261 208 q 389 156 340 156 q 456 170 424 156 q 511 211 488 185 m 292 771 l 158 971 l 273 971 l 390 837 l 503 971 l 619 971 l 488 771 l 292 771 z "},"ç":{"ha":708,"x_min":42,"x_max":667,"o":"m 511 211 l 667 126 q 547 22 619 61 q 389 -18 474 -18 q 214 31 293 -18 q 89 164 135 81 q 42 347 42 247 q 89 532 42 449 q 214 665 135 615 q 389 714 293 714 q 547 674 474 714 q 667 568 619 635 l 511 484 q 389 540 460 540 q 300 514 340 540 q 238 443 261 487 q 215 347 215 399 q 238 252 215 296 q 301 182 261 208 q 389 156 340 156 q 456 170 424 156 q 511 211 488 185 m 394 -261 q 300 -249 344 -275 q 242 -174 255 -223 l 329 -150 q 345 -170 333 -163 q 371 -174 357 -177 q 391 -158 384 -170 q 394 -132 398 -146 q 379 -113 391 -119 q 353 -108 367 -107 l 263 -111 l 361 62 l 441 16 l 415 -29 q 483 -109 467 -51 q 470 -203 496 -158 q 394 -261 444 -249 z "},"ĉ":{"ha":708,"x_min":42,"x_max":667,"o":"m 511 211 l 667 126 q 547 22 619 61 q 389 -18 474 -18 q 214 31 293 -18 q 89 164 135 81 q 42 347 42 247 q 89 532 42 449 q 214 665 135 615 q 389 714 293 714 q 547 674 474 714 q 667 568 619 635 l 511 484 q 389 540 460 540 q 300 514 340 540 q 238 443 261 487 q 215 347 215 399 q 238 252 215 296 q 301 182 261 208 q 389 156 340 156 q 456 170 424 156 q 511 211 488 185 m 486 971 l 621 771 l 505 771 l 389 905 l 274 771 l 158 771 l 291 971 l 486 971 z "},"ċ":{"ha":708,"x_min":42,"x_max":667,"o":"m 511 211 l 667 126 q 547 22 619 61 q 389 -18 474 -18 q 214 31 293 -18 q 89 164 135 81 q 42 347 42 247 q 89 532 42 449 q 214 665 135 615 q 389 714 293 714 q 547 674 474 714 q 667 568 619 635 l 511 484 q 389 540 460 540 q 300 514 340 540 q 238 443 261 487 q 215 347 215 399 q 238 252 215 296 q 301 182 261 208 q 389 156 340 156 q 456 170 424 156 q 511 211 488 185 m 390 782 q 325 807 351 782 q 299 871 299 833 q 325 934 299 908 q 390 960 351 960 q 452 934 426 960 q 478 871 478 908 q 453 807 478 833 q 390 782 427 782 z "},"d":{"ha":863,"x_min":42,"x_max":779,"o":"m 606 1042 l 779 1042 l 779 0 l 606 0 l 606 85 q 523 10 572 39 q 407 -18 473 -18 q 265 10 331 -18 q 149 89 199 39 q 70 206 99 140 q 42 347 42 272 q 70 489 42 423 q 149 606 99 556 q 265 684 199 656 q 407 713 331 713 q 523 684 473 713 q 606 610 572 656 l 606 1042 m 409 149 q 503 175 462 149 q 568 247 544 202 q 591 347 591 292 q 567 448 591 403 q 503 519 544 493 q 409 546 462 546 q 313 519 356 546 q 245 447 270 492 q 219 347 219 402 q 245 247 219 292 q 315 175 272 202 q 409 149 358 149 z "},"ď":{"ha":863,"x_min":42,"x_max":1046,"o":"m 606 1042 l 779 1042 l 779 0 l 606 0 l 606 85 q 523 10 572 39 q 407 -18 473 -18 q 265 10 331 -18 q 149 89 199 39 q 70 206 99 140 q 42 347 42 272 q 70 489 42 423 q 149 606 99 556 q 265 684 199 656 q 407 713 331 713 q 523 684 473 713 q 606 610 572 656 l 606 1042 m 409 149 q 503 175 462 149 q 568 247 544 202 q 591 347 591 292 q 567 448 591 403 q 503 519 544 493 q 409 546 462 546 q 313 519 356 546 q 245 447 270 492 q 219 347 219 402 q 245 247 219 292 q 315 175 272 202 q 409 149 358 149 m 817 843 l 872 1043 l 1046 1043 l 933 843 l 817 843 z "},"đ":{"ha":863,"x_min":42,"x_max":858,"o":"m 606 1042 l 779 1042 l 779 0 l 606 0 l 606 85 q 523 10 572 39 q 407 -18 473 -18 q 265 10 331 -18 q 149 89 199 39 q 70 206 99 140 q 42 347 42 272 q 70 489 42 423 q 149 606 99 556 q 265 684 199 656 q 407 713 331 713 q 523 684 473 713 q 606 610 572 656 l 606 1042 m 409 149 q 503 175 462 149 q 568 247 544 202 q 591 347 591 292 q 567 448 591 403 q 503 519 544 493 q 409 546 462 546 q 313 519 356 546 q 245 447 270 492 q 219 347 219 402 q 245 247 219 292 q 315 175 272 202 q 409 149 358 149 m 417 738 l 417 884 l 858 884 l 858 738 l 417 738 z "},"ḍ":{"ha":863,"x_min":42,"x_max":779,"o":"m 606 1042 l 779 1042 l 779 0 l 606 0 l 606 85 q 523 10 572 39 q 407 -18 473 -18 q 265 10 331 -18 q 149 89 199 39 q 70 206 99 140 q 42 347 42 272 q 70 489 42 423 q 149 606 99 556 q 265 684 199 656 q 407 713 331 713 q 523 684 473 713 q 606 610 572 656 l 606 1042 m 409 149 q 503 175 462 149 q 568 247 544 202 q 591 347 591 292 q 567 448 591 403 q 503 519 544 493 q 409 546 462 546 q 313 519 356 546 q 245 447 270 492 q 219 347 219 402 q 245 247 219 292 q 315 175 272 202 q 409 149 358 149 m 429 -308 q 365 -282 391 -308 q 339 -219 339 -257 q 365 -156 339 -181 q 429 -130 391 -130 q 492 -156 466 -130 q 518 -219 518 -181 q 492 -282 518 -257 q 429 -308 467 -308 z "},"ð":{"ha":782,"x_min":56,"x_max":754,"o":"m 406 -18 q 230 29 309 -18 q 103 156 150 76 q 56 331 56 235 q 103 507 56 427 q 230 633 150 586 q 406 681 309 681 q 510 642 467 681 q 471 735 494 688 q 410 819 448 783 l 304 715 l 219 799 l 302 880 q 239 887 272 887 l 238 1060 q 341 1048 292 1060 q 435 1011 391 1035 l 524 1099 l 607 1015 l 533 941 q 651 784 602 876 q 727 583 701 692 q 754 357 753 474 q 709 163 754 247 q 585 30 664 78 q 406 -18 507 -18 m 406 156 q 494 180 454 156 q 557 243 533 203 q 581 331 581 283 q 557 419 581 379 q 493 483 533 459 q 406 507 453 507 q 316 483 356 507 q 253 419 276 459 q 229 331 229 378 q 253 243 229 283 q 316 180 276 203 q 406 156 356 156 z "},"e":{"ha":777,"x_min":42,"x_max":743,"o":"m 389 -18 q 214 31 293 -18 q 89 164 135 81 q 42 348 42 247 q 89 532 42 449 q 214 665 135 615 q 389 714 293 714 q 538 679 470 714 q 653 585 606 644 q 722 449 701 525 q 731 288 743 372 l 228 288 q 284 194 242 232 q 389 156 326 156 q 467 176 431 155 q 526 233 503 197 l 703 192 q 577 41 661 99 q 389 -18 493 -18 m 222 418 l 556 418 q 497 521 543 479 q 389 563 450 563 q 282 521 328 563 q 222 418 235 480 z "},"é":{"ha":777,"x_min":42,"x_max":743,"o":"m 389 -18 q 214 31 293 -18 q 89 164 135 81 q 42 348 42 247 q 89 532 42 449 q 214 665 135 615 q 389 714 293 714 q 538 679 470 714 q 653 585 606 644 q 722 449 701 525 q 731 288 743 372 l 228 288 q 284 194 242 232 q 389 156 326 156 q 467 176 431 155 q 526 233 503 197 l 703 192 q 577 41 661 99 q 389 -18 493 -18 m 222 418 l 556 418 q 497 521 543 479 q 389 563 450 563 q 282 521 328 563 q 222 418 235 480 m 343 773 l 399 973 l 572 973 l 459 773 l 343 773 z "},"ě":{"ha":777,"x_min":42,"x_max":743,"o":"m 389 -18 q 214 31 293 -18 q 89 164 135 81 q 42 348 42 247 q 89 532 42 449 q 214 665 135 615 q 389 714 293 714 q 538 679 470 714 q 653 585 606 644 q 722 449 701 525 q 731 288 743 372 l 228 288 q 284 194 242 232 q 389 156 326 156 q 467 176 431 155 q 526 233 503 197 l 703 192 q 577 41 661 99 q 389 -18 493 -18 m 222 418 l 556 418 q 497 521 543 479 q 389 563 450 563 q 282 521 328 563 q 222 418 235 480 m 292 771 l 158 971 l 273 971 l 390 837 l 503 971 l 619 971 l 488 771 l 292 771 z "},"ê":{"ha":777,"x_min":42,"x_max":743,"o":"m 389 -18 q 214 31 293 -18 q 89 164 135 81 q 42 348 42 247 q 89 532 42 449 q 214 665 135 615 q 389 714 293 714 q 538 679 470 714 q 653 585 606 644 q 722 449 701 525 q 731 288 743 372 l 228 288 q 284 194 242 232 q 389 156 326 156 q 467 176 431 155 q 526 233 503 197 l 703 192 q 577 41 661 99 q 389 -18 493 -18 m 222 418 l 556 418 q 497 521 543 479 q 389 563 450 563 q 282 521 328 563 q 222 418 235 480 m 486 971 l 621 771 l 505 771 l 389 905 l 274 771 l 158 771 l 291 971 l 486 971 z "},"ệ":{"ha":777,"x_min":42,"x_max":743,"o":"m 389 -18 q 214 31 293 -18 q 89 164 135 81 q 42 348 42 247 q 89 532 42 449 q 214 665 135 615 q 389 714 293 714 q 538 679 470 714 q 653 585 606 644 q 722 449 701 525 q 731 288 743 372 l 228 288 q 284 194 242 232 q 389 156 326 156 q 467 176 431 155 q 526 233 503 197 l 703 192 q 577 41 661 99 q 389 -18 493 -18 m 222 418 l 556 418 q 497 521 543 479 q 389 563 450 563 q 282 521 328 563 q 222 418 235 480 m 390 -308 q 325 -282 351 -308 q 299 -219 299 -257 q 325 -156 299 -181 q 390 -130 351 -130 q 452 -156 426 -130 q 478 -219 478 -181 q 453 -282 478 -257 q 390 -308 427 -308 m 486 971 l 621 771 l 505 771 l 389 905 l 274 771 l 158 771 l 291 971 l 486 971 z "},"ë":{"ha":777,"x_min":42,"x_max":743,"o":"m 389 -18 q 214 31 293 -18 q 89 164 135 81 q 42 348 42 247 q 89 532 42 449 q 214 665 135 615 q 389 714 293 714 q 538 679 470 714 q 653 585 606 644 q 722 449 701 525 q 731 288 743 372 l 228 288 q 284 194 242 232 q 389 156 326 156 q 467 176 431 155 q 526 233 503 197 l 703 192 q 577 41 661 99 q 389 -18 493 -18 m 222 418 l 556 418 q 497 521 543 479 q 389 563 450 563 q 282 521 328 563 q 222 418 235 480 m 250 742 q 186 768 212 742 q 160 831 160 793 q 186 894 160 868 q 250 920 212 920 q 313 894 288 920 q 339 831 339 868 q 313 768 339 793 q 250 742 288 742 m 528 742 q 464 768 490 742 q 438 831 438 793 q 464 894 438 868 q 528 920 490 920 q 591 894 565 920 q 617 831 617 868 q 591 768 617 793 q 528 742 565 742 z "},"ė":{"ha":777,"x_min":42,"x_max":743,"o":"m 389 -18 q 214 31 293 -18 q 89 164 135 81 q 42 348 42 247 q 89 532 42 449 q 214 665 135 615 q 389 714 293 714 q 538 679 470 714 q 653 585 606 644 q 722 449 701 525 q 731 288 743 372 l 228 288 q 284 194 242 232 q 389 156 326 156 q 467 176 431 155 q 526 233 503 197 l 703 192 q 577 41 661 99 q 389 -18 493 -18 m 222 418 l 556 418 q 497 521 543 479 q 389 563 450 563 q 282 521 328 563 q 222 418 235 480 m 390 782 q 325 807 351 782 q 299 871 299 833 q 325 934 299 908 q 390 960 351 960 q 452 934 426 960 q 478 871 478 908 q 453 807 478 833 q 390 782 427 782 z "},"ẹ":{"ha":777,"x_min":42,"x_max":743,"o":"m 389 -18 q 214 31 293 -18 q 89 164 135 81 q 42 348 42 247 q 89 532 42 449 q 214 665 135 615 q 389 714 293 714 q 538 679 470 714 q 653 585 606 644 q 722 449 701 525 q 731 288 743 372 l 228 288 q 284 194 242 232 q 389 156 326 156 q 467 176 431 155 q 526 233 503 197 l 703 192 q 577 41 661 99 q 389 -18 493 -18 m 222 418 l 556 418 q 497 521 543 479 q 389 563 450 563 q 282 521 328 563 q 222 418 235 480 m 390 -308 q 325 -282 351 -308 q 299 -219 299 -257 q 325 -156 299 -181 q 390 -130 351 -130 q 452 -156 426 -130 q 478 -219 478 -181 q 453 -282 478 -257 q 390 -308 427 -308 z "},"è":{"ha":777,"x_min":42,"x_max":743,"o":"m 389 -18 q 214 31 293 -18 q 89 164 135 81 q 42 348 42 247 q 89 532 42 449 q 214 665 135 615 q 389 714 293 714 q 538 679 470 714 q 653 585 606 644 q 722 449 701 525 q 731 288 743 372 l 228 288 q 284 194 242 232 q 389 156 326 156 q 467 176 431 155 q 526 233 503 197 l 703 192 q 577 41 661 99 q 389 -18 493 -18 m 222 418 l 556 418 q 497 521 543 479 q 389 563 450 563 q 282 521 328 563 q 222 418 235 480 m 205 971 l 378 971 l 433 771 l 318 771 l 205 971 z "},"ē":{"ha":777,"x_min":42,"x_max":743,"o":"m 389 -18 q 214 31 293 -18 q 89 164 135 81 q 42 348 42 247 q 89 532 42 449 q 214 665 135 615 q 389 714 293 714 q 538 679 470 714 q 653 585 606 644 q 722 449 701 525 q 731 288 743 372 l 228 288 q 284 194 242 232 q 389 156 326 156 q 467 176 431 155 q 526 233 503 197 l 703 192 q 577 41 661 99 q 389 -18 493 -18 m 222 418 l 556 418 q 497 521 543 479 q 389 563 450 563 q 282 521 328 563 q 222 418 235 480 m 154 923 l 624 923 l 624 794 l 154 794 l 154 923 z "},"ę":{"ha":777,"x_min":42,"x_max":743,"o":"m 389 -18 q 214 31 293 -18 q 89 164 135 81 q 42 348 42 247 q 89 532 42 449 q 214 665 135 615 q 389 714 293 714 q 538 679 470 714 q 653 585 606 644 q 722 449 701 525 q 731 288 743 372 l 228 288 q 284 194 242 232 q 389 156 326 156 q 467 176 431 155 q 526 233 503 197 l 703 192 q 577 41 661 99 q 389 -18 493 -18 m 222 418 l 556 418 q 497 521 543 479 q 389 563 450 563 q 282 521 328 563 q 222 418 235 480 m 412 -315 q 325 -291 362 -315 q 268 -229 288 -267 q 247 -149 247 -191 q 259 -88 247 -118 q 296 -33 271 -58 l 413 84 l 497 0 q 411 -86 447 -50 q 376 -156 376 -122 q 387 -186 376 -172 q 419 -199 399 -199 q 465 -181 445 -199 q 485 -133 485 -162 l 594 -133 q 570 -224 594 -183 q 505 -290 546 -265 q 412 -315 464 -315 z "},"ẽ":{"ha":777,"x_min":42,"x_max":743,"o":"m 389 -18 q 214 31 293 -18 q 89 164 135 81 q 42 348 42 247 q 89 532 42 449 q 214 665 135 615 q 389 714 293 714 q 538 679 470 714 q 653 585 606 644 q 722 449 701 525 q 731 288 743 372 l 228 288 q 284 194 242 232 q 389 156 326 156 q 467 176 431 155 q 526 233 503 197 l 703 192 q 577 41 661 99 q 389 -18 493 -18 m 222 418 l 556 418 q 497 521 543 479 q 389 563 450 563 q 282 521 328 563 q 222 418 235 480 m 497 767 q 435 785 471 767 q 365 825 400 803 q 304 861 331 847 q 269 865 278 874 q 259 841 261 855 q 264 804 258 826 l 164 776 q 153 876 144 831 q 195 948 163 922 q 281 975 228 975 q 339 960 306 975 q 405 926 372 945 q 464 891 438 906 q 501 876 490 876 q 520 897 522 876 q 513 935 519 917 l 615 969 q 624 865 634 911 q 580 793 613 819 q 497 767 547 767 z "},"ə":{"ha":777,"x_min":34,"x_max":735,"o":"m 388 714 q 563 665 484 714 q 689 532 642 615 q 735 348 735 449 q 689 164 735 247 q 563 31 642 81 q 388 -18 484 -18 q 239 17 307 -18 q 124 111 171 51 q 55 247 76 171 q 46 408 34 324 l 549 408 q 493 502 535 464 q 388 540 451 540 q 310 520 346 541 q 250 463 274 499 l 74 504 q 200 656 115 597 q 388 714 284 714 m 555 278 l 221 278 q 280 175 233 217 q 388 133 326 133 q 495 175 449 133 q 555 278 541 216 z "},"f":{"ha":508,"x_min":35,"x_max":495,"o":"m 283 838 l 283 694 l 472 694 l 472 521 l 283 521 l 283 0 l 109 0 l 109 521 l 35 521 l 35 694 l 109 694 l 109 838 q 139 949 109 899 q 219 1028 169 999 q 331 1058 269 1058 q 418 1040 375 1058 q 495 984 462 1022 l 371 862 q 331 885 358 885 q 297 871 311 885 q 283 838 283 858 z "},"g":{"ha":853,"x_min":42,"x_max":770,"o":"m 597 694 l 770 694 l 770 -12 q 717 -189 770 -113 q 577 -306 664 -264 q 390 -347 491 -347 q 250 -318 317 -347 q 131 -236 183 -288 q 51 -119 79 -185 l 210 -47 q 282 -138 231 -103 q 390 -173 333 -173 q 490 -154 443 -173 q 567 -99 538 -135 q 597 -12 597 -63 l 597 82 q 515 10 564 38 q 403 -18 467 -18 q 263 10 328 -18 q 148 89 197 39 q 70 206 98 140 q 42 347 42 272 q 91 531 42 448 q 222 663 140 614 q 403 713 303 713 q 515 685 467 713 q 597 613 564 658 l 597 694 m 406 149 q 498 176 458 149 q 562 248 539 203 q 585 347 585 293 q 562 447 585 402 q 498 519 539 492 q 406 546 457 546 q 312 519 354 546 q 244 447 269 492 q 219 347 219 402 q 245 247 219 292 q 312 175 270 202 q 406 149 354 149 z "},"ğ":{"ha":853,"x_min":42,"x_max":770,"o":"m 597 694 l 770 694 l 770 -12 q 717 -189 770 -113 q 577 -306 664 -264 q 390 -347 491 -347 q 250 -318 317 -347 q 131 -236 183 -288 q 51 -119 79 -185 l 210 -47 q 282 -138 231 -103 q 390 -173 333 -173 q 490 -154 443 -173 q 567 -99 538 -135 q 597 -12 597 -63 l 597 82 q 515 10 564 38 q 403 -18 467 -18 q 263 10 328 -18 q 148 89 197 39 q 70 206 98 140 q 42 347 42 272 q 91 531 42 448 q 222 663 140 614 q 403 713 303 713 q 515 685 467 713 q 597 613 564 658 l 597 694 m 406 149 q 498 176 458 149 q 562 248 539 203 q 585 347 585 293 q 562 447 585 402 q 498 519 539 492 q 406 546 457 546 q 312 519 354 546 q 244 447 269 492 q 219 347 219 402 q 245 247 219 292 q 312 175 270 202 q 406 149 354 149 m 427 756 q 311 787 364 756 q 228 870 259 818 q 197 986 197 923 l 304 986 q 341 899 304 935 q 427 863 377 863 q 514 899 478 863 q 550 986 550 935 l 658 986 q 626 869 658 922 q 543 786 595 817 q 427 756 490 756 z "},"ǧ":{"ha":853,"x_min":42,"x_max":770,"o":"m 597 694 l 770 694 l 770 -12 q 717 -189 770 -113 q 577 -306 664 -264 q 390 -347 491 -347 q 250 -318 317 -347 q 131 -236 183 -288 q 51 -119 79 -185 l 210 -47 q 282 -138 231 -103 q 390 -173 333 -173 q 490 -154 443 -173 q 567 -99 538 -135 q 597 -12 597 -63 l 597 82 q 515 10 564 38 q 403 -18 467 -18 q 263 10 328 -18 q 148 89 197 39 q 70 206 98 140 q 42 347 42 272 q 91 531 42 448 q 222 663 140 614 q 403 713 303 713 q 515 685 467 713 q 597 613 564 658 l 597 694 m 406 149 q 498 176 458 149 q 562 248 539 203 q 585 347 585 293 q 562 447 585 402 q 498 519 539 492 q 406 546 457 546 q 312 519 354 546 q 244 447 269 492 q 219 347 219 402 q 245 247 219 292 q 312 175 270 202 q 406 149 354 149 m 331 771 l 196 971 l 311 971 l 428 837 l 542 971 l 658 971 l 526 771 l 331 771 z "},"ĝ":{"ha":853,"x_min":42,"x_max":770,"o":"m 597 694 l 770 694 l 770 -12 q 717 -189 770 -113 q 577 -306 664 -264 q 390 -347 491 -347 q 250 -318 317 -347 q 131 -236 183 -288 q 51 -119 79 -185 l 210 -47 q 282 -138 231 -103 q 390 -173 333 -173 q 490 -154 443 -173 q 567 -99 538 -135 q 597 -12 597 -63 l 597 82 q 515 10 564 38 q 403 -18 467 -18 q 263 10 328 -18 q 148 89 197 39 q 70 206 98 140 q 42 347 42 272 q 91 531 42 448 q 222 663 140 614 q 403 713 303 713 q 515 685 467 713 q 597 613 564 658 l 597 694 m 406 149 q 498 176 458 149 q 562 248 539 203 q 585 347 585 293 q 562 447 585 402 q 498 519 539 492 q 406 546 457 546 q 312 519 354 546 q 244 447 269 492 q 219 347 219 402 q 245 247 219 292 q 312 175 270 202 q 406 149 354 149 m 524 971 l 659 771 l 543 771 l 427 905 l 313 771 l 197 771 l 329 971 l 524 971 z "},"ģ":{"ha":853,"x_min":42,"x_max":770,"o":"m 597 694 l 770 694 l 770 -12 q 717 -189 770 -113 q 577 -306 664 -264 q 390 -347 491 -347 q 250 -318 317 -347 q 131 -236 183 -288 q 51 -119 79 -185 l 210 -47 q 282 -138 231 -103 q 390 -173 333 -173 q 490 -154 443 -173 q 567 -99 538 -135 q 597 -12 597 -63 l 597 82 q 515 10 564 38 q 403 -18 467 -18 q 263 10 328 -18 q 148 89 197 39 q 70 206 98 140 q 42 347 42 272 q 91 531 42 448 q 222 663 140 614 q 403 713 303 713 q 515 685 467 713 q 597 613 564 658 l 597 694 m 406 149 q 498 176 458 149 q 562 248 539 203 q 585 347 585 293 q 562 447 585 402 q 498 519 539 492 q 406 546 457 546 q 312 519 354 546 q 244 447 269 492 q 219 347 219 402 q 245 247 219 292 q 312 175 270 202 q 406 149 354 149 m 381 773 l 437 973 l 610 973 l 497 773 l 381 773 z "},"ġ":{"ha":853,"x_min":42,"x_max":770,"o":"m 597 694 l 770 694 l 770 -12 q 717 -189 770 -113 q 577 -306 664 -264 q 390 -347 491 -347 q 250 -318 317 -347 q 131 -236 183 -288 q 51 -119 79 -185 l 210 -47 q 282 -138 231 -103 q 390 -173 333 -173 q 490 -154 443 -173 q 567 -99 538 -135 q 597 -12 597 -63 l 597 82 q 515 10 564 38 q 403 -18 467 -18 q 263 10 328 -18 q 148 89 197 39 q 70 206 98 140 q 42 347 42 272 q 91 531 42 448 q 222 663 140 614 q 403 713 303 713 q 515 685 467 713 q 597 613 564 658 l 597 694 m 406 149 q 498 176 458 149 q 562 248 539 203 q 585 347 585 293 q 562 447 585 402 q 498 519 539 492 q 406 546 457 546 q 312 519 354 546 q 244 447 269 492 q 219 347 219 402 q 245 247 219 292 q 312 175 270 202 q 406 149 354 149 m 428 782 q 364 807 390 782 q 338 871 338 833 q 364 934 338 908 q 428 960 390 960 q 491 934 465 960 q 517 871 517 908 q 491 807 517 833 q 428 782 465 782 z "},"ḡ":{"ha":853,"x_min":42,"x_max":770,"o":"m 597 694 l 770 694 l 770 -12 q 717 -189 770 -113 q 577 -306 664 -264 q 390 -347 491 -347 q 250 -318 317 -347 q 131 -236 183 -288 q 51 -119 79 -185 l 210 -47 q 282 -138 231 -103 q 390 -173 333 -173 q 490 -154 443 -173 q 567 -99 538 -135 q 597 -12 597 -63 l 597 82 q 515 10 564 38 q 403 -18 467 -18 q 263 10 328 -18 q 148 89 197 39 q 70 206 98 140 q 42 347 42 272 q 91 531 42 448 q 222 663 140 614 q 403 713 303 713 q 515 685 467 713 q 597 613 564 658 l 597 694 m 406 149 q 498 176 458 149 q 562 248 539 203 q 585 347 585 293 q 562 447 585 402 q 498 519 539 492 q 406 546 457 546 q 312 519 354 546 q 244 447 269 492 q 219 347 219 402 q 245 247 219 292 q 312 175 270 202 q 406 149 354 149 m 192 923 l 662 923 l 662 794 l 192 794 l 192 923 z "},"h":{"ha":776,"x_min":83,"x_max":721,"o":"m 721 440 l 721 0 l 547 0 l 547 393 q 505 496 547 453 q 402 538 462 538 q 299 496 342 538 q 257 393 257 453 l 257 0 l 84 0 l 83 1042 l 257 1042 l 257 635 q 342 693 293 672 q 446 714 390 714 q 584 677 522 714 q 684 577 647 640 q 721 440 721 515 z "},"ħ":{"ha":776,"x_min":4,"x_max":721,"o":"m 721 440 l 721 0 l 547 0 l 547 393 q 505 496 547 453 q 402 538 462 538 q 299 496 342 538 q 257 393 257 453 l 257 0 l 84 0 l 83 1042 l 257 1042 l 257 635 q 342 693 293 672 q 446 714 390 714 q 584 677 522 714 q 684 577 647 640 q 721 440 721 515 m 4 738 l 4 884 l 445 884 l 445 738 l 4 738 z "},"ĥ":{"ha":776,"x_min":83,"x_max":721,"o":"m 721 440 l 721 0 l 547 0 l 547 393 q 505 496 547 453 q 402 538 462 538 q 299 496 342 538 q 257 393 257 453 l 257 0 l 84 0 l 83 1042 l 257 1042 l 257 635 q 342 693 293 672 q 446 714 390 714 q 584 677 522 714 q 684 577 647 640 q 721 440 721 515 m 522 1266 l 656 1066 l 540 1066 l 424 1200 l 310 1066 l 194 1066 l 326 1266 l 522 1266 z "},"ḥ":{"ha":776,"x_min":83,"x_max":721,"o":"m 721 440 l 721 0 l 547 0 l 547 393 q 505 496 547 453 q 402 538 462 538 q 299 496 342 538 q 257 393 257 453 l 257 0 l 84 0 l 83 1042 l 257 1042 l 257 635 q 342 693 293 672 q 446 714 390 714 q 584 677 522 714 q 684 577 647 640 q 721 440 721 515 m 425 -308 q 361 -282 387 -308 q 335 -219 335 -257 q 361 -156 335 -181 q 425 -130 387 -130 q 488 -156 462 -130 q 514 -219 514 -181 q 488 -282 514 -257 q 425 -308 463 -308 z "},"i":{"ha":340,"x_min":81,"x_max":260,"o":"m 83 694 l 257 694 l 257 0 l 83 0 l 83 694 m 171 782 q 107 807 133 782 q 81 871 81 833 q 107 934 81 908 q 171 960 133 960 q 234 934 208 960 q 260 871 260 908 q 234 807 260 833 q 171 782 208 782 z "},"ı":{"ha":340,"x_min":83,"x_max":257,"o":"m 83 694 l 257 694 l 257 0 l 83 0 l 83 694 z "},"í":{"ha":340,"x_min":83,"x_max":353,"o":"m 83 694 l 257 694 l 257 0 l 83 0 l 83 694 m 124 773 l 180 973 l 353 973 l 240 773 l 124 773 z "},"ǐ":{"ha":340,"x_min":-61,"x_max":401,"o":"m 83 694 l 257 694 l 257 0 l 83 0 l 83 694 m 74 771 l -61 971 l 54 971 l 171 837 l 285 971 l 401 971 l 269 771 l 74 771 z "},"î":{"ha":340,"x_min":-60,"x_max":402,"o":"m 83 694 l 257 694 l 257 0 l 83 0 l 83 694 m 267 971 l 402 771 l 286 771 l 170 905 l 56 771 l -60 771 l 72 971 l 267 971 z "},"ï":{"ha":340,"x_min":-59,"x_max":399,"o":"m 83 694 l 257 694 l 257 0 l 83 0 l 83 694 m 31 742 q -33 768 -7 742 q -59 831 -59 793 q -33 894 -59 868 q 31 920 -7 920 q 94 894 69 920 q 120 831 120 868 q 94 768 120 793 q 31 742 69 742 m 310 742 q 245 768 272 742 q 219 831 219 793 q 245 894 219 868 q 310 920 272 920 q 373 894 347 920 q 399 831 399 868 q 373 768 399 793 q 310 742 347 742 z "},"ḯ":{"ha":340,"x_min":-59,"x_max":399,"o":"m 83 694 l 257 694 l 257 0 l 83 0 l 83 694 m 31 742 q -33 768 -7 742 q -59 831 -59 793 q -33 894 -59 868 q 31 920 -7 920 q 94 894 69 920 q 120 831 120 868 q 94 768 120 793 q 31 742 69 742 m 310 742 q 245 768 272 742 q 219 831 219 793 q 245 894 219 868 q 310 920 272 920 q 373 894 347 920 q 399 831 399 868 q 373 768 399 793 q 310 742 347 742 m 124 972 l 180 1172 l 353 1172 l 240 972 l 124 972 z "},"ị":{"ha":340,"x_min":81,"x_max":260,"o":"m 83 694 l 257 694 l 257 0 l 83 0 l 83 694 m 171 782 q 107 807 133 782 q 81 871 81 833 q 107 934 81 908 q 171 960 133 960 q 234 934 208 960 q 260 871 260 908 q 234 807 260 833 q 171 782 208 782 m 172 -308 q 107 -282 133 -308 q 81 -219 81 -257 q 107 -156 81 -181 q 172 -130 133 -130 q 234 -156 208 -130 q 260 -219 260 -181 q 235 -282 260 -257 q 172 -308 209 -308 z "},"ì":{"ha":340,"x_min":-14,"x_max":257,"o":"m 83 694 l 257 694 l 257 0 l 83 0 l 83 694 m -14 971 l 159 971 l 215 771 l 99 771 l -14 971 z "},"ī":{"ha":340,"x_min":-1,"x_max":340,"o":"m 83 694 l 257 694 l 257 0 l 83 0 l 83 694 m -1 923 l 340 923 l 340 794 l -1 794 l -1 923 z "},"į":{"ha":340,"x_min":7,"x_max":354,"o":"m 83 694 l 257 694 l 257 0 l 83 0 l 83 694 m 171 782 q 107 807 133 782 q 81 871 81 833 q 107 934 81 908 q 171 960 133 960 q 234 934 208 960 q 260 871 260 908 q 234 807 260 833 q 171 782 208 782 m 172 -315 q 85 -291 122 -315 q 27 -229 48 -267 q 7 -149 7 -191 q 19 -88 7 -118 q 56 -33 31 -58 l 172 84 l 256 0 q 171 -86 206 -50 q 135 -156 135 -122 q 147 -186 135 -172 q 178 -199 158 -199 q 225 -181 205 -199 q 244 -133 244 -162 l 354 -133 q 330 -224 354 -183 q 265 -290 306 -265 q 172 -315 224 -315 z "},"ĩ":{"ha":340,"x_min":-21,"x_max":360,"o":"m 83 694 l 257 694 l 257 0 l 83 0 l 83 694 m 253 752 q 206 767 233 752 q 151 799 178 781 q 103 827 124 817 q 76 831 83 838 q 69 811 70 823 q 72 782 67 800 l -6 760 q -14 840 -21 804 q 19 898 -7 876 q 85 919 44 919 q 131 907 105 919 q 182 880 156 895 q 228 852 208 864 q 256 840 248 840 q 272 856 273 840 q 266 888 272 872 l 346 914 q 352 831 360 867 q 318 773 344 794 q 253 752 292 752 z "},"ĳ":{"ha":679,"x_min":81,"x_max":599,"o":"m 83 694 l 257 694 l 257 0 l 83 0 l 83 694 m 171 782 q 107 807 133 782 q 81 871 81 833 q 107 934 81 908 q 171 960 133 960 q 234 934 208 960 q 260 871 260 908 q 234 807 260 833 q 171 782 208 782 m 284 -347 l 284 -174 q 382 -134 342 -174 q 423 -37 423 -94 l 423 694 l 597 694 l 597 -37 q 555 -193 597 -123 q 442 -305 513 -263 q 284 -347 372 -347 m 510 782 q 446 807 472 782 q 420 871 420 833 q 446 934 420 908 q 510 960 472 960 q 573 934 547 960 q 599 871 599 908 q 574 807 599 833 q 510 782 548 782 z "},"j":{"ha":340,"x_min":-56,"x_max":260,"o":"m -56 -347 l -56 -174 q 43 -134 2 -174 q 83 -37 83 -94 l 83 694 l 257 694 l 257 -37 q 215 -193 257 -123 q 103 -305 174 -263 q -56 -347 32 -347 m 171 782 q 107 807 133 782 q 81 871 81 833 q 107 934 81 908 q 171 960 133 960 q 234 934 208 960 q 260 871 260 908 q 234 807 260 833 q 171 782 208 782 z "},"ȷ":{"ha":340,"x_min":-56,"x_max":257,"o":"m -56 -347 l -56 -174 q 43 -134 2 -174 q 83 -37 83 -94 l 83 694 l 257 694 l 257 -37 q 215 -193 257 -123 q 103 -305 174 -263 q -56 -347 32 -347 z "},"ĵ":{"ha":340,"x_min":-60,"x_max":402,"o":"m -56 -347 l -56 -174 q 43 -134 2 -174 q 83 -37 83 -94 l 83 694 l 257 694 l 257 -37 q 215 -193 257 -123 q 103 -305 174 -263 q -56 -347 32 -347 m 267 971 l 402 771 l 286 771 l 170 905 l 56 771 l -60 771 l 72 971 l 267 971 z "},"k":{"ha":747,"x_min":83,"x_max":708,"o":"m 708 0 l 508 0 l 352 269 l 257 156 l 257 0 l 83 0 l 83 1042 l 257 1042 l 257 426 l 482 694 l 708 694 l 471 410 l 708 0 z "},"ǩ":{"ha":747,"x_min":83,"x_max":708,"o":"m 708 0 l 508 0 l 352 269 l 257 156 l 257 0 l 83 0 l 83 1042 l 257 1042 l 257 426 l 482 694 l 708 694 l 471 410 l 708 0 m 351 1049 l 216 1249 l 331 1249 l 448 1115 l 562 1249 l 678 1249 l 546 1049 l 351 1049 z "},"ķ":{"ha":747,"x_min":83,"x_max":708,"o":"m 708 0 l 508 0 l 352 269 l 257 156 l 257 0 l 83 0 l 83 1042 l 257 1042 l 257 426 l 482 694 l 708 694 l 471 410 l 708 0 m 242 -306 l 285 -72 l 458 -72 l 357 -306 l 242 -306 z "},"l":{"ha":354,"x_min":90,"x_max":264,"o":"m 90 0 l 90 1042 l 264 1042 l 264 0 l 90 0 z "},"ĺ":{"ha":354,"x_min":90,"x_max":360,"o":"m 90 0 l 90 1042 l 264 1042 l 264 0 l 90 0 m 131 1120 l 187 1320 l 360 1320 l 247 1120 l 131 1120 z "},"ľ":{"ha":354,"x_min":90,"x_max":529,"o":"m 90 0 l 90 1042 l 264 1042 l 264 0 l 90 0 m 300 843 l 356 1043 l 529 1043 l 416 843 l 300 843 z "},"ļ":{"ha":354,"x_min":47,"x_max":264,"o":"m 90 0 l 90 1042 l 264 1042 l 264 0 l 90 0 m 47 -306 l 90 -72 l 264 -72 l 163 -306 l 47 -306 z "},"ḷ":{"ha":354,"x_min":88,"x_max":267,"o":"m 90 0 l 90 1042 l 264 1042 l 264 0 l 90 0 m 178 -308 q 114 -282 140 -308 q 88 -219 88 -257 q 114 -156 88 -181 q 178 -130 140 -130 q 241 -156 215 -130 q 267 -219 267 -181 q 241 -282 267 -257 q 178 -308 215 -308 z "},"ł":{"ha":521,"x_min":14,"x_max":507,"o":"m 347 1042 l 347 718 l 421 761 l 507 610 l 347 518 l 347 0 l 174 0 l 174 418 l 101 376 l 14 526 l 174 619 l 174 1042 l 347 1042 z "},"m":{"ha":1234,"x_min":83,"x_max":1178,"o":"m 83 0 l 83 694 l 257 694 l 257 635 q 341 693 292 672 q 446 714 390 714 q 578 680 518 714 q 675 590 638 646 q 772 680 712 646 q 904 714 832 714 q 1042 677 980 714 q 1141 577 1104 640 q 1178 440 1178 515 l 1178 0 l 1005 0 l 1005 393 q 963 495 1005 452 q 862 538 921 538 q 760 496 802 538 q 717 393 717 454 l 717 0 l 544 0 l 544 393 q 502 496 544 454 q 400 538 460 538 q 299 495 341 538 q 257 393 257 452 l 257 0 l 83 0 z "},"ḿ":{"ha":1234,"x_min":83,"x_max":1178,"o":"m 83 0 l 83 694 l 257 694 l 257 635 q 341 693 292 672 q 446 714 390 714 q 578 680 518 714 q 675 590 638 646 q 772 680 712 646 q 904 714 832 714 q 1042 677 980 714 q 1141 577 1104 640 q 1178 440 1178 515 l 1178 0 l 1005 0 l 1005 393 q 963 495 1005 452 q 862 538 921 538 q 760 496 802 538 q 717 393 717 454 l 717 0 l 544 0 l 544 393 q 502 496 544 454 q 400 538 460 538 q 299 495 341 538 q 257 393 257 452 l 257 0 l 83 0 m 630 773 l 685 973 l 859 973 l 746 773 l 630 773 z "},"ṁ":{"ha":1234,"x_min":83,"x_max":1178,"o":"m 83 0 l 83 694 l 257 694 l 257 635 q 341 693 292 672 q 446 714 390 714 q 578 680 518 714 q 675 590 638 646 q 772 680 712 646 q 904 714 832 714 q 1042 677 980 714 q 1141 577 1104 640 q 1178 440 1178 515 l 1178 0 l 1005 0 l 1005 393 q 963 495 1005 452 q 862 538 921 538 q 760 496 802 538 q 717 393 717 454 l 717 0 l 544 0 l 544 393 q 502 496 544 454 q 400 538 460 538 q 299 495 341 538 q 257 393 257 452 l 257 0 l 83 0 m 676 782 q 612 807 638 782 q 586 871 586 833 q 612 934 586 908 q 676 960 638 960 q 739 934 713 960 q 765 871 765 908 q 740 807 765 833 q 676 782 714 782 z "},"ṃ":{"ha":1234,"x_min":83,"x_max":1178,"o":"m 83 0 l 83 694 l 257 694 l 257 635 q 341 693 292 672 q 446 714 390 714 q 578 680 518 714 q 675 590 638 646 q 772 680 712 646 q 904 714 832 714 q 1042 677 980 714 q 1141 577 1104 640 q 1178 440 1178 515 l 1178 0 l 1005 0 l 1005 393 q 963 495 1005 452 q 862 538 921 538 q 760 496 802 538 q 717 393 717 454 l 717 0 l 544 0 l 544 393 q 502 496 544 454 q 400 538 460 538 q 299 495 341 538 q 257 393 257 452 l 257 0 l 83 0 m 632 -308 q 568 -282 594 -308 q 542 -219 542 -257 q 568 -156 542 -181 q 632 -130 594 -130 q 695 -156 669 -130 q 721 -219 721 -181 q 695 -282 721 -257 q 632 -308 669 -308 z "},"n":{"ha":776,"x_min":83,"x_max":721,"o":"m 721 440 l 721 0 l 547 0 l 547 393 q 505 496 547 453 q 402 538 462 538 q 299 496 342 538 q 257 393 257 453 l 257 0 l 84 0 l 83 694 l 257 694 l 257 635 q 342 693 293 672 q 446 714 390 714 q 584 677 522 714 q 684 577 647 640 q 721 440 721 515 z "},"ń":{"ha":776,"x_min":83,"x_max":721,"o":"m 721 440 l 721 0 l 547 0 l 547 393 q 505 496 547 453 q 402 538 462 538 q 299 496 342 538 q 257 393 257 453 l 257 0 l 84 0 l 83 694 l 257 694 l 257 635 q 342 693 293 672 q 446 714 390 714 q 584 677 522 714 q 684 577 647 640 q 721 440 721 515 m 367 773 l 423 973 l 597 973 l 483 773 l 367 773 z "},"ň":{"ha":776,"x_min":83,"x_max":721,"o":"m 721 440 l 721 0 l 547 0 l 547 393 q 505 496 547 453 q 402 538 462 538 q 299 496 342 538 q 257 393 257 453 l 257 0 l 84 0 l 83 694 l 257 694 l 257 635 q 342 693 293 672 q 446 714 390 714 q 584 677 522 714 q 684 577 647 640 q 721 440 721 515 m 317 771 l 182 971 l 297 971 l 414 837 l 528 971 l 644 971 l 512 771 l 317 771 z "},"ņ":{"ha":776,"x_min":83,"x_max":721,"o":"m 721 440 l 721 0 l 547 0 l 547 393 q 505 496 547 453 q 402 538 462 538 q 299 496 342 538 q 257 393 257 453 l 257 0 l 84 0 l 83 694 l 257 694 l 257 635 q 342 693 293 672 q 446 714 390 714 q 584 677 522 714 q 684 577 647 640 q 721 440 721 515 m 272 -306 l 315 -72 l 489 -72 l 388 -306 l 272 -306 z "},"ṅ":{"ha":776,"x_min":83,"x_max":721,"o":"m 721 440 l 721 0 l 547 0 l 547 393 q 505 496 547 453 q 402 538 462 538 q 299 496 342 538 q 257 393 257 453 l 257 0 l 84 0 l 83 694 l 257 694 l 257 635 q 342 693 293 672 q 446 714 390 714 q 584 677 522 714 q 684 577 647 640 q 721 440 721 515 m 414 782 q 350 807 376 782 q 324 871 324 833 q 350 934 324 908 q 414 960 376 960 q 477 934 451 960 q 503 871 503 908 q 477 807 503 833 q 414 782 451 782 z "},"ṇ":{"ha":776,"x_min":83,"x_max":721,"o":"m 721 440 l 721 0 l 547 0 l 547 393 q 505 496 547 453 q 402 538 462 538 q 299 496 342 538 q 257 393 257 453 l 257 0 l 84 0 l 83 694 l 257 694 l 257 635 q 342 693 293 672 q 446 714 390 714 q 584 677 522 714 q 684 577 647 640 q 721 440 721 515 m 403 -308 q 339 -282 365 -308 q 313 -219 313 -257 q 339 -156 313 -181 q 403 -130 365 -130 q 466 -156 440 -130 q 492 -219 492 -181 q 467 -282 492 -257 q 403 -308 441 -308 z "},"ñ":{"ha":776,"x_min":83,"x_max":721,"o":"m 721 440 l 721 0 l 547 0 l 547 393 q 505 496 547 453 q 402 538 462 538 q 299 496 342 538 q 257 393 257 453 l 257 0 l 84 0 l 83 694 l 257 694 l 257 635 q 342 693 293 672 q 446 714 390 714 q 584 677 522 714 q 684 577 647 640 q 721 440 721 515 m 522 767 q 460 785 495 767 q 390 825 424 803 q 328 861 355 847 q 294 865 302 874 q 284 841 285 855 q 288 804 282 826 l 188 776 q 178 876 169 831 q 220 948 187 922 q 305 975 253 975 q 363 960 330 975 q 430 926 397 945 q 489 891 463 906 q 525 876 515 876 q 545 897 546 876 q 537 935 544 917 l 640 969 q 648 865 658 911 q 604 793 638 819 q 522 767 571 767 z "},"ŋ":{"ha":776,"x_min":83,"x_max":721,"o":"m 721 440 l 721 0 l 547 0 l 547 393 q 505 496 547 453 q 402 538 462 538 q 299 496 342 538 q 257 393 257 453 l 257 0 l 84 0 l 83 694 l 257 694 l 257 635 q 342 693 293 672 q 446 714 390 714 q 584 677 522 714 q 684 577 647 640 q 721 440 721 515 m 408 -174 q 507 -134 466 -174 q 547 -37 547 -94 l 547 14 l 721 14 l 721 -37 q 679 -193 721 -122 q 567 -305 638 -263 q 408 -347 496 -347 l 408 -174 z "},"o":{"ha":778,"x_min":42,"x_max":736,"o":"m 389 -18 q 214 31 293 -18 q 89 164 135 81 q 42 347 42 247 q 89 532 42 449 q 214 665 135 615 q 389 714 293 714 q 564 665 485 714 q 689 532 642 615 q 736 347 736 449 q 689 164 736 247 q 564 31 642 81 q 389 -18 485 -18 m 389 156 q 477 182 438 156 q 540 252 517 208 q 563 347 563 296 q 539 444 563 400 q 476 514 515 488 q 389 540 437 540 q 300 514 340 540 q 238 443 261 487 q 215 347 215 399 q 239 250 215 293 q 302 181 263 206 q 389 156 342 156 z "},"ó":{"ha":778,"x_min":42,"x_max":736,"o":"m 389 -18 q 214 31 293 -18 q 89 164 135 81 q 42 347 42 247 q 89 532 42 449 q 214 665 135 615 q 389 714 293 714 q 564 665 485 714 q 689 532 642 615 q 736 347 736 449 q 689 164 736 247 q 564 31 642 81 q 389 -18 485 -18 m 389 156 q 477 182 438 156 q 540 252 517 208 q 563 347 563 296 q 539 444 563 400 q 476 514 515 488 q 389 540 437 540 q 300 514 340 540 q 238 443 261 487 q 215 347 215 399 q 239 250 215 293 q 302 181 263 206 q 389 156 342 156 m 344 773 l 399 973 l 573 973 l 460 773 l 344 773 z "},"ǒ":{"ha":778,"x_min":42,"x_max":736,"o":"m 389 -18 q 214 31 293 -18 q 89 164 135 81 q 42 347 42 247 q 89 532 42 449 q 214 665 135 615 q 389 714 293 714 q 564 665 485 714 q 689 532 642 615 q 736 347 736 449 q 689 164 736 247 q 564 31 642 81 q 389 -18 485 -18 m 389 156 q 477 182 438 156 q 540 252 517 208 q 563 347 563 296 q 539 444 563 400 q 476 514 515 488 q 389 540 437 540 q 300 514 340 540 q 238 443 261 487 q 215 347 215 399 q 239 250 215 293 q 302 181 263 206 q 389 156 342 156 m 292 771 l 158 971 l 273 971 l 390 837 l 503 971 l 619 971 l 488 771 l 292 771 z "},"ô":{"ha":778,"x_min":42,"x_max":736,"o":"m 389 -18 q 214 31 293 -18 q 89 164 135 81 q 42 347 42 247 q 89 532 42 449 q 214 665 135 615 q 389 714 293 714 q 564 665 485 714 q 689 532 642 615 q 736 347 736 449 q 689 164 736 247 q 564 31 642 81 q 389 -18 485 -18 m 389 156 q 477 182 438 156 q 540 252 517 208 q 563 347 563 296 q 539 444 563 400 q 476 514 515 488 q 389 540 437 540 q 300 514 340 540 q 238 443 261 487 q 215 347 215 399 q 239 250 215 293 q 302 181 263 206 q 389 156 342 156 m 486 971 l 621 771 l 505 771 l 389 905 l 274 771 l 158 771 l 291 971 l 486 971 z "},"ộ":{"ha":778,"x_min":42,"x_max":736,"o":"m 389 -18 q 214 31 293 -18 q 89 164 135 81 q 42 347 42 247 q 89 532 42 449 q 214 665 135 615 q 389 714 293 714 q 564 665 485 714 q 689 532 642 615 q 736 347 736 449 q 689 164 736 247 q 564 31 642 81 q 389 -18 485 -18 m 389 156 q 477 182 438 156 q 540 252 517 208 q 563 347 563 296 q 539 444 563 400 q 476 514 515 488 q 389 540 437 540 q 300 514 340 540 q 238 443 261 487 q 215 347 215 399 q 239 250 215 293 q 302 181 263 206 q 389 156 342 156 m 390 -308 q 325 -282 351 -308 q 299 -219 299 -257 q 325 -156 299 -181 q 390 -130 351 -130 q 452 -156 426 -130 q 478 -219 478 -181 q 453 -282 478 -257 q 390 -308 427 -308 m 486 971 l 621 771 l 505 771 l 389 905 l 274 771 l 158 771 l 291 971 l 486 971 z "},"ö":{"ha":778,"x_min":42,"x_max":736,"o":"m 389 -18 q 214 31 293 -18 q 89 164 135 81 q 42 347 42 247 q 89 532 42 449 q 214 665 135 615 q 389 714 293 714 q 564 665 485 714 q 689 532 642 615 q 736 347 736 449 q 689 164 736 247 q 564 31 642 81 q 389 -18 485 -18 m 389 156 q 477 182 438 156 q 540 252 517 208 q 563 347 563 296 q 539 444 563 400 q 476 514 515 488 q 389 540 437 540 q 300 514 340 540 q 238 443 261 487 q 215 347 215 399 q 239 250 215 293 q 302 181 263 206 q 389 156 342 156 m 251 742 q 186 768 213 742 q 160 831 160 793 q 186 894 160 868 q 251 920 213 920 q 314 894 288 920 q 340 831 340 868 q 314 768 340 793 q 251 742 288 742 m 529 742 q 465 768 491 742 q 438 831 438 793 q 465 894 438 868 q 529 920 491 920 q 592 894 566 920 q 618 831 618 868 q 592 768 618 793 q 529 742 566 742 z "},"ȫ":{"ha":778,"x_min":42,"x_max":736,"o":"m 389 -18 q 214 31 293 -18 q 89 164 135 81 q 42 347 42 247 q 89 532 42 449 q 214 665 135 615 q 389 714 293 714 q 564 665 485 714 q 689 532 642 615 q 736 347 736 449 q 689 164 736 247 q 564 31 642 81 q 389 -18 485 -18 m 389 156 q 477 182 438 156 q 540 252 517 208 q 563 347 563 296 q 539 444 563 400 q 476 514 515 488 q 389 540 437 540 q 300 514 340 540 q 238 443 261 487 q 215 347 215 399 q 239 250 215 293 q 302 181 263 206 q 389 156 342 156 m 251 742 q 186 768 213 742 q 160 831 160 793 q 186 894 160 868 q 251 920 213 920 q 314 894 288 920 q 340 831 340 868 q 314 768 340 793 q 251 742 288 742 m 529 742 q 465 768 491 742 q 438 831 438 793 q 465 894 438 868 q 529 920 491 920 q 592 894 566 920 q 618 831 618 868 q 592 768 618 793 q 529 742 566 742 m 154 1122 l 624 1122 l 624 992 l 154 992 l 154 1122 z "},"ọ":{"ha":778,"x_min":42,"x_max":736,"o":"m 389 -18 q 214 31 293 -18 q 89 164 135 81 q 42 347 42 247 q 89 532 42 449 q 214 665 135 615 q 389 714 293 714 q 564 665 485 714 q 689 532 642 615 q 736 347 736 449 q 689 164 736 247 q 564 31 642 81 q 389 -18 485 -18 m 389 156 q 477 182 438 156 q 540 252 517 208 q 563 347 563 296 q 539 444 563 400 q 476 514 515 488 q 389 540 437 540 q 300 514 340 540 q 238 443 261 487 q 215 347 215 399 q 239 250 215 293 q 302 181 263 206 q 389 156 342 156 m 390 -308 q 325 -282 351 -308 q 299 -219 299 -257 q 325 -156 299 -181 q 390 -130 351 -130 q 452 -156 426 -130 q 478 -219 478 -181 q 453 -282 478 -257 q 390 -308 427 -308 z "},"ò":{"ha":778,"x_min":42,"x_max":736,"o":"m 389 -18 q 214 31 293 -18 q 89 164 135 81 q 42 347 42 247 q 89 532 42 449 q 214 665 135 615 q 389 714 293 714 q 564 665 485 714 q 689 532 642 615 q 736 347 736 449 q 689 164 736 247 q 564 31 642 81 q 389 -18 485 -18 m 389 156 q 477 182 438 156 q 540 252 517 208 q 563 347 563 296 q 539 444 563 400 q 476 514 515 488 q 389 540 437 540 q 300 514 340 540 q 238 443 261 487 q 215 347 215 399 q 239 250 215 293 q 302 181 263 206 q 389 156 342 156 m 205 971 l 378 971 l 433 771 l 318 771 l 205 971 z "},"ő":{"ha":778,"x_min":42,"x_max":736,"o":"m 389 -18 q 214 31 293 -18 q 89 164 135 81 q 42 347 42 247 q 89 532 42 449 q 214 665 135 615 q 389 714 293 714 q 564 665 485 714 q 689 532 642 615 q 736 347 736 449 q 689 164 736 247 q 564 31 642 81 q 389 -18 485 -18 m 389 156 q 477 182 438 156 q 540 252 517 208 q 563 347 563 296 q 539 444 563 400 q 476 514 515 488 q 389 540 437 540 q 300 514 340 540 q 238 443 261 487 q 215 347 215 399 q 239 250 215 293 q 302 181 263 206 q 389 156 342 156 m 468 772 l 524 972 l 697 972 l 584 772 l 468 772 m 233 772 l 289 972 l 463 972 l 349 772 l 233 772 z "},"ō":{"ha":778,"x_min":42,"x_max":736,"o":"m 389 -18 q 214 31 293 -18 q 89 164 135 81 q 42 347 42 247 q 89 532 42 449 q 214 665 135 615 q 389 714 293 714 q 564 665 485 714 q 689 532 642 615 q 736 347 736 449 q 689 164 736 247 q 564 31 642 81 q 389 -18 485 -18 m 389 156 q 477 182 438 156 q 540 252 517 208 q 563 347 563 296 q 539 444 563 400 q 476 514 515 488 q 389 540 437 540 q 300 514 340 540 q 238 443 261 487 q 215 347 215 399 q 239 250 215 293 q 302 181 263 206 q 389 156 342 156 m 154 923 l 624 923 l 624 794 l 154 794 l 154 923 z "},"ṓ":{"ha":778,"x_min":42,"x_max":736,"o":"m 389 -18 q 214 31 293 -18 q 89 164 135 81 q 42 347 42 247 q 89 532 42 449 q 214 665 135 615 q 389 714 293 714 q 564 665 485 714 q 689 532 642 615 q 736 347 736 449 q 689 164 736 247 q 564 31 642 81 q 389 -18 485 -18 m 389 156 q 477 182 438 156 q 540 252 517 208 q 563 347 563 296 q 539 444 563 400 q 476 514 515 488 q 389 540 437 540 q 300 514 340 540 q 238 443 261 487 q 215 347 215 399 q 239 250 215 293 q 302 181 263 206 q 389 156 342 156 m 154 923 l 624 923 l 624 794 l 154 794 l 154 923 m 344 1001 l 399 1201 l 573 1201 l 460 1001 l 344 1001 z "},"ṑ":{"ha":778,"x_min":42,"x_max":736,"o":"m 389 -18 q 214 31 293 -18 q 89 164 135 81 q 42 347 42 247 q 89 532 42 449 q 214 665 135 615 q 389 714 293 714 q 564 665 485 714 q 689 532 642 615 q 736 347 736 449 q 689 164 736 247 q 564 31 642 81 q 389 -18 485 -18 m 389 156 q 477 182 438 156 q 540 252 517 208 q 563 347 563 296 q 539 444 563 400 q 476 514 515 488 q 389 540 437 540 q 300 514 340 540 q 238 443 261 487 q 215 347 215 399 q 239 250 215 293 q 302 181 263 206 q 389 156 342 156 m 154 923 l 624 923 l 624 794 l 154 794 l 154 923 m 205 1199 l 378 1199 l 433 999 l 318 999 l 205 1199 z "},"ø":{"ha":778,"x_min":42,"x_max":736,"o":"m 239 -53 l 117 17 l 153 80 q 72 199 102 130 q 42 347 42 269 q 89 532 42 449 q 214 665 135 615 q 389 714 293 714 q 506 692 452 714 l 540 749 l 661 679 l 625 616 q 706 497 676 566 q 736 347 736 427 q 689 164 736 247 q 564 31 642 81 q 389 -18 485 -18 q 328 -12 358 -18 q 272 4 299 -6 l 239 -53 m 239 226 l 428 554 q 318 537 369 565 q 234 457 266 510 q 202 338 202 403 q 212 277 202 305 q 239 226 222 249 m 350 142 q 462 158 410 131 q 545 238 513 185 q 576 357 576 291 q 566 418 576 390 q 540 470 556 447 l 350 142 z "},"ǿ":{"ha":778,"x_min":42,"x_max":736,"o":"m 239 -53 l 117 17 l 153 80 q 72 199 102 130 q 42 347 42 269 q 89 532 42 449 q 214 665 135 615 q 389 714 293 714 q 506 692 452 714 l 540 749 l 661 679 l 625 616 q 706 497 676 566 q 736 347 736 427 q 689 164 736 247 q 564 31 642 81 q 389 -18 485 -18 q 328 -12 358 -18 q 272 4 299 -6 l 239 -53 m 239 226 l 428 554 q 318 537 369 565 q 234 457 266 510 q 202 338 202 403 q 212 277 202 305 q 239 226 222 249 m 350 142 q 462 158 410 131 q 545 238 513 185 q 576 357 576 291 q 566 418 576 390 q 540 470 556 447 l 350 142 m 344 773 l 399 973 l 573 973 l 460 773 l 344 773 z "},"õ":{"ha":778,"x_min":42,"x_max":736,"o":"m 389 -18 q 214 31 293 -18 q 89 164 135 81 q 42 347 42 247 q 89 532 42 449 q 214 665 135 615 q 389 714 293 714 q 564 665 485 714 q 689 532 642 615 q 736 347 736 449 q 689 164 736 247 q 564 31 642 81 q 389 -18 485 -18 m 389 156 q 477 182 438 156 q 540 252 517 208 q 563 347 563 296 q 539 444 563 400 q 476 514 515 488 q 389 540 437 540 q 300 514 340 540 q 238 443 261 487 q 215 347 215 399 q 239 250 215 293 q 302 181 263 206 q 389 156 342 156 m 497 767 q 435 785 471 767 q 365 825 400 803 q 304 861 331 847 q 269 865 278 874 q 259 841 261 855 q 264 804 258 826 l 164 776 q 153 876 144 831 q 195 948 163 922 q 281 975 228 975 q 339 960 306 975 q 405 926 372 945 q 464 891 438 906 q 501 876 490 876 q 520 897 522 876 q 513 935 519 917 l 615 969 q 624 865 634 911 q 580 793 613 819 q 497 767 547 767 z "},"œ":{"ha":1297,"x_min":42,"x_max":1263,"o":"m 389 -18 q 214 31 293 -18 q 89 164 135 81 q 42 347 42 247 q 89 532 42 449 q 214 665 135 615 q 389 714 293 714 q 537 677 469 714 q 649 581 605 641 q 763 677 694 641 q 910 714 831 714 q 1059 680 991 714 q 1174 585 1126 645 q 1242 449 1222 526 q 1251 289 1263 373 l 749 289 q 805 194 763 232 q 910 156 846 156 q 988 176 952 156 q 1047 233 1024 197 l 1224 192 q 1098 41 1182 99 q 910 -18 1014 -18 q 763 18 831 -18 q 649 115 694 55 q 537 18 605 55 q 389 -18 469 -18 m 743 419 l 1076 419 q 1017 521 1063 480 q 910 563 972 563 q 802 522 849 563 q 743 419 756 481 m 389 156 q 477 182 438 156 q 540 252 517 208 q 563 347 563 296 q 539 444 563 400 q 476 514 515 488 q 389 540 437 540 q 300 514 340 540 q 238 443 261 487 q 215 347 215 399 q 239 250 215 293 q 302 181 263 206 q 389 156 342 156 z "},"p":{"ha":861,"x_min":83,"x_max":820,"o":"m 257 -347 l 83 -347 l 83 694 l 257 694 l 257 609 q 340 684 290 655 q 455 713 389 713 q 639 663 556 713 q 771 531 722 614 q 820 347 820 448 q 771 163 820 246 q 639 30 722 79 q 455 -19 556 -19 q 340 9 389 -19 q 257 84 290 38 l 257 -347 m 452 546 q 359 519 400 546 q 295 447 319 492 q 272 347 272 402 q 295 247 272 292 q 359 175 318 202 q 452 149 400 149 q 548 175 505 149 q 617 247 591 201 q 643 347 643 292 q 617 447 643 401 q 548 519 592 492 q 452 546 505 546 z "},"þ":{"ha":861,"x_min":83,"x_max":820,"o":"m 83 -347 l 83 972 l 257 972 l 257 609 q 340 684 290 655 q 455 713 389 713 q 639 663 556 713 q 771 531 722 614 q 820 347 820 448 q 771 163 820 246 q 639 30 722 79 q 455 -19 556 -19 q 340 9 389 -19 q 257 84 290 38 l 257 -347 l 83 -347 m 452 149 q 548 175 505 149 q 617 247 591 201 q 643 347 643 292 q 617 447 643 401 q 548 519 592 492 q 452 546 505 546 q 359 519 400 546 q 295 447 319 492 q 272 347 272 402 q 295 247 272 292 q 359 175 318 202 q 452 149 400 149 z "},"q":{"ha":861,"x_min":42,"x_max":778,"o":"m 407 -19 q 223 30 306 -19 q 91 163 140 79 q 42 347 42 246 q 70 489 42 423 q 149 605 99 555 q 265 684 199 656 q 407 713 331 713 q 522 684 473 713 q 605 609 572 655 l 605 694 l 778 694 l 778 -347 l 605 -347 l 605 84 q 522 9 572 38 q 407 -19 473 -19 m 409 546 q 313 519 356 546 q 245 447 270 492 q 219 347 219 401 q 245 247 219 292 q 314 175 271 201 q 409 149 357 149 q 503 175 462 149 q 567 247 544 202 q 590 347 590 292 q 566 447 590 402 q 502 519 543 492 q 409 546 462 546 z "},"r":{"ha":537,"x_min":83,"x_max":523,"o":"m 84 0 l 83 694 l 257 694 l 257 635 q 342 693 293 672 q 446 714 390 714 q 523 703 485 714 l 454 528 q 402 538 430 538 q 299 496 342 538 q 257 393 257 453 l 257 0 l 84 0 z "},"ŕ":{"ha":537,"x_min":83,"x_max":523,"o":"m 84 0 l 83 694 l 257 694 l 257 635 q 342 693 293 672 q 446 714 390 714 q 523 703 485 714 l 454 528 q 402 538 430 538 q 299 496 342 538 q 257 393 257 453 l 257 0 l 84 0 m 262 773 l 317 973 l 491 973 l 378 773 l 262 773 z "},"ř":{"ha":537,"x_min":76,"x_max":538,"o":"m 84 0 l 83 694 l 257 694 l 257 635 q 342 693 293 672 q 446 714 390 714 q 523 703 485 714 l 454 528 q 402 538 430 538 q 299 496 342 538 q 257 393 257 453 l 257 0 l 84 0 m 211 771 l 76 971 l 192 971 l 308 837 l 422 971 l 538 971 l 406 771 l 211 771 z "},"ŗ":{"ha":537,"x_min":41,"x_max":523,"o":"m 84 0 l 83 694 l 257 694 l 257 635 q 342 693 293 672 q 446 714 390 714 q 523 703 485 714 l 454 528 q 402 538 430 538 q 299 496 342 538 q 257 393 257 453 l 257 0 l 84 0 m 41 -306 l 84 -72 l 258 -72 l 156 -306 l 41 -306 z "},"s":{"ha":603,"x_min":35,"x_max":570,"o":"m 288 -12 q 136 31 206 -7 q 35 136 66 69 l 181 199 q 227 156 194 178 q 307 134 261 134 q 377 150 345 134 q 408 201 408 167 q 391 240 408 226 q 347 261 373 254 q 297 274 322 268 q 175 315 231 287 q 83 387 118 342 q 49 494 49 432 q 85 614 49 563 q 181 691 122 664 q 308 718 240 718 q 459 684 390 718 q 569 588 528 649 l 432 506 q 387 549 417 530 q 322 570 357 567 q 243 556 276 572 q 211 499 211 539 q 232 460 211 473 q 281 441 252 448 q 336 426 310 435 q 451 377 397 406 q 537 305 504 348 q 568 203 570 263 q 528 85 568 136 q 424 8 488 35 q 288 -12 360 -18 z "},"ś":{"ha":603,"x_min":35,"x_max":570,"o":"m 288 -12 q 136 31 206 -7 q 35 136 66 69 l 181 199 q 227 156 194 178 q 307 134 261 134 q 377 150 345 134 q 408 201 408 167 q 391 240 408 226 q 347 261 373 254 q 297 274 322 268 q 175 315 231 287 q 83 387 118 342 q 49 494 49 432 q 85 614 49 563 q 181 691 122 664 q 308 718 240 718 q 459 684 390 718 q 569 588 528 649 l 432 506 q 387 549 417 530 q 322 570 357 567 q 243 556 276 572 q 211 499 211 539 q 232 460 211 473 q 281 441 252 448 q 336 426 310 435 q 451 377 397 406 q 537 305 504 348 q 568 203 570 263 q 528 85 568 136 q 424 8 488 35 q 288 -12 360 -18 m 256 773 l 312 973 l 485 973 l 372 773 l 256 773 z "},"š":{"ha":603,"x_min":35,"x_max":570,"o":"m 288 -12 q 136 31 206 -7 q 35 136 66 69 l 181 199 q 227 156 194 178 q 307 134 261 134 q 377 150 345 134 q 408 201 408 167 q 391 240 408 226 q 347 261 373 254 q 297 274 322 268 q 175 315 231 287 q 83 387 118 342 q 49 494 49 432 q 85 614 49 563 q 181 691 122 664 q 308 718 240 718 q 459 684 390 718 q 569 588 528 649 l 432 506 q 387 549 417 530 q 322 570 357 567 q 243 556 276 572 q 211 499 211 539 q 232 460 211 473 q 281 441 252 448 q 336 426 310 435 q 451 377 397 406 q 537 305 504 348 q 568 203 570 263 q 528 85 568 136 q 424 8 488 35 q 288 -12 360 -18 m 206 771 l 71 971 l 186 971 l 303 837 l 417 971 l 533 971 l 401 771 l 206 771 z "},"ş":{"ha":603,"x_min":35,"x_max":570,"o":"m 288 -12 q 136 31 206 -7 q 35 136 66 69 l 181 199 q 227 156 194 178 q 307 134 261 134 q 377 150 345 134 q 408 201 408 167 q 391 240 408 226 q 347 261 373 254 q 297 274 322 268 q 175 315 231 287 q 83 387 118 342 q 49 494 49 432 q 85 614 49 563 q 181 691 122 664 q 308 718 240 718 q 459 684 390 718 q 569 588 528 649 l 432 506 q 387 549 417 530 q 322 570 357 567 q 243 556 276 572 q 211 499 211 539 q 232 460 211 473 q 281 441 252 448 q 336 426 310 435 q 451 377 397 406 q 537 305 504 348 q 568 203 570 263 q 528 85 568 136 q 424 8 488 35 q 288 -12 360 -18 m 348 -261 q 253 -249 298 -275 q 195 -174 208 -223 l 283 -150 q 298 -170 286 -163 q 324 -174 310 -177 q 344 -158 338 -170 q 348 -132 351 -146 q 333 -113 344 -119 q 307 -108 321 -107 l 217 -111 l 315 62 l 394 16 l 368 -29 q 436 -109 421 -51 q 424 -203 449 -158 q 348 -261 398 -249 z "},"ŝ":{"ha":603,"x_min":35,"x_max":570,"o":"m 288 -12 q 136 31 206 -7 q 35 136 66 69 l 181 199 q 227 156 194 178 q 307 134 261 134 q 377 150 345 134 q 408 201 408 167 q 391 240 408 226 q 347 261 373 254 q 297 274 322 268 q 175 315 231 287 q 83 387 118 342 q 49 494 49 432 q 85 614 49 563 q 181 691 122 664 q 308 718 240 718 q 459 684 390 718 q 569 588 528 649 l 432 506 q 387 549 417 530 q 322 570 357 567 q 243 556 276 572 q 211 499 211 539 q 232 460 211 473 q 281 441 252 448 q 336 426 310 435 q 451 377 397 406 q 537 305 504 348 q 568 203 570 263 q 528 85 568 136 q 424 8 488 35 q 288 -12 360 -18 m 399 971 l 534 771 l 418 771 l 302 905 l 188 771 l 72 771 l 204 971 l 399 971 z "},"ș":{"ha":603,"x_min":35,"x_max":570,"o":"m 288 -12 q 136 31 206 -7 q 35 136 66 69 l 181 199 q 227 156 194 178 q 307 134 261 134 q 377 150 345 134 q 408 201 408 167 q 391 240 408 226 q 347 261 373 254 q 297 274 322 268 q 175 315 231 287 q 83 387 118 342 q 49 494 49 432 q 85 614 49 563 q 181 691 122 664 q 308 718 240 718 q 459 684 390 718 q 569 588 528 649 l 432 506 q 387 549 417 530 q 322 570 357 567 q 243 556 276 572 q 211 499 211 539 q 232 460 211 473 q 281 441 252 448 q 336 426 310 435 q 451 377 397 406 q 537 305 504 348 q 568 203 570 263 q 528 85 568 136 q 424 8 488 35 q 288 -12 360 -18 m 213 -306 l 256 -72 l 429 -72 l 328 -306 l 213 -306 z "},"ṣ":{"ha":603,"x_min":35,"x_max":570,"o":"m 288 -12 q 136 31 206 -7 q 35 136 66 69 l 181 199 q 227 156 194 178 q 307 134 261 134 q 377 150 345 134 q 408 201 408 167 q 391 240 408 226 q 347 261 373 254 q 297 274 322 268 q 175 315 231 287 q 83 387 118 342 q 49 494 49 432 q 85 614 49 563 q 181 691 122 664 q 308 718 240 718 q 459 684 390 718 q 569 588 528 649 l 432 506 q 387 549 417 530 q 322 570 357 567 q 243 556 276 572 q 211 499 211 539 q 232 460 211 473 q 281 441 252 448 q 336 426 310 435 q 451 377 397 406 q 537 305 504 348 q 568 203 570 263 q 528 85 568 136 q 424 8 488 35 q 288 -12 360 -18 m 343 -308 q 279 -282 305 -308 q 253 -219 253 -257 q 279 -156 253 -181 q 343 -130 305 -130 q 406 -156 380 -130 q 432 -219 432 -181 q 406 -282 432 -257 q 343 -308 381 -308 z "},"ß":{"ha":798,"x_min":83,"x_max":756,"o":"m 83 0 l 83 622 q 130 798 83 719 q 257 925 177 877 q 433 972 336 972 q 573 936 510 972 q 672 837 635 899 q 708 696 708 774 q 687 589 708 644 q 611 506 665 533 q 702 458 671 496 q 745 369 733 419 q 756 274 756 319 q 718 133 756 195 q 615 36 679 72 q 472 0 551 0 l 421 0 l 396 148 l 455 148 q 559 189 516 148 q 601 285 601 229 q 559 381 601 342 q 455 422 516 420 l 396 424 l 396 566 l 413 568 q 499 608 463 574 q 535 696 535 643 q 499 785 535 748 q 413 823 463 823 q 302 777 348 823 q 257 666 257 731 l 257 0 l 83 0 z "},"t":{"ha":498,"x_min":49,"x_max":457,"o":"m 457 521 l 324 521 l 324 0 l 150 0 l 150 521 l 49 521 l 49 694 l 150 694 l 150 913 l 324 913 l 324 694 l 457 694 l 457 521 z "},"ť":{"ha":498,"x_min":49,"x_max":599,"o":"m 457 521 l 324 521 l 324 0 l 150 0 l 150 521 l 49 521 l 49 694 l 150 694 l 150 913 l 324 913 l 324 694 l 457 694 l 457 521 m 369 843 l 425 1043 l 599 1043 l 485 843 l 369 843 z "},"ţ":{"ha":498,"x_min":49,"x_max":457,"o":"m 457 521 l 324 521 l 324 0 l 150 0 l 150 521 l 49 521 l 49 694 l 150 694 l 150 913 l 324 913 l 324 694 l 457 694 l 457 521 m 242 -261 q 148 -249 192 -275 q 90 -174 103 -223 l 177 -150 q 193 -170 181 -163 q 219 -174 205 -177 q 239 -158 232 -170 q 242 -132 246 -146 q 227 -113 239 -119 q 201 -108 215 -107 l 111 -111 l 209 62 l 289 16 l 263 -29 q 331 -109 315 -51 q 318 -203 344 -158 q 242 -261 292 -249 z "},"ț":{"ha":498,"x_min":49,"x_max":457,"o":"m 457 521 l 324 521 l 324 0 l 150 0 l 150 521 l 49 521 l 49 694 l 150 694 l 150 913 l 324 913 l 324 694 l 457 694 l 457 521 m 107 -306 l 150 -72 l 324 -72 l 222 -306 l 107 -306 z "},"ẗ":{"ha":498,"x_min":8,"x_max":465,"o":"m 457 521 l 324 521 l 324 0 l 150 0 l 150 521 l 49 521 l 49 694 l 150 694 l 150 913 l 324 913 l 324 694 l 457 694 l 457 521 m 98 960 q 34 986 60 960 q 8 1049 8 1011 q 34 1112 8 1086 q 98 1138 60 1138 q 161 1112 135 1138 q 187 1049 187 1086 q 161 986 187 1011 q 98 960 135 960 m 376 960 q 312 986 338 960 q 285 1049 285 1011 q 312 1112 285 1086 q 376 1138 338 1138 q 439 1112 413 1138 q 465 1049 465 1086 q 439 986 465 1011 q 376 960 413 960 z "},"ṭ":{"ha":498,"x_min":49,"x_max":457,"o":"m 457 521 l 324 521 l 324 0 l 150 0 l 150 521 l 49 521 l 49 694 l 150 694 l 150 913 l 324 913 l 324 694 l 457 694 l 457 521 m 238 -308 q 173 -282 199 -308 q 147 -219 147 -257 q 173 -156 147 -181 q 238 -130 199 -130 q 300 -156 274 -130 q 326 -219 326 -181 q 301 -282 326 -257 q 238 -308 275 -308 z "},"u":{"ha":749,"x_min":56,"x_max":693,"o":"m 56 256 l 56 694 l 229 694 l 229 303 q 272 200 229 242 q 374 158 314 158 q 476 200 434 158 q 519 303 519 242 l 519 694 l 692 694 l 693 0 l 519 0 l 519 61 q 434 3 483 24 q 330 -18 385 -18 q 192 19 254 -18 q 93 118 130 56 q 56 256 56 181 z "},"ú":{"ha":749,"x_min":56,"x_max":693,"o":"m 56 256 l 56 694 l 229 694 l 229 303 q 272 200 229 242 q 374 158 314 158 q 476 200 434 158 q 519 303 519 242 l 519 694 l 692 694 l 693 0 l 519 0 l 519 61 q 434 3 483 24 q 330 -18 385 -18 q 192 19 254 -18 q 93 118 130 56 q 56 256 56 181 m 350 773 l 406 973 l 579 973 l 466 773 l 350 773 z "},"ŭ":{"ha":749,"x_min":56,"x_max":693,"o":"m 56 256 l 56 694 l 229 694 l 229 303 q 272 200 229 242 q 374 158 314 158 q 476 200 434 158 q 519 303 519 242 l 519 694 l 692 694 l 693 0 l 519 0 l 519 61 q 434 3 483 24 q 330 -18 385 -18 q 192 19 254 -18 q 93 118 130 56 q 56 256 56 181 m 395 756 q 280 787 332 756 q 196 870 227 818 q 165 986 165 923 l 272 986 q 309 899 272 935 q 395 863 345 863 q 482 899 446 863 q 518 986 518 935 l 626 986 q 594 869 626 922 q 511 786 563 817 q 395 756 458 756 z "},"ǔ":{"ha":749,"x_min":56,"x_max":693,"o":"m 56 256 l 56 694 l 229 694 l 229 303 q 272 200 229 242 q 374 158 314 158 q 476 200 434 158 q 519 303 519 242 l 519 694 l 692 694 l 693 0 l 519 0 l 519 61 q 434 3 483 24 q 330 -18 385 -18 q 192 19 254 -18 q 93 118 130 56 q 56 256 56 181 m 299 771 l 165 971 l 280 971 l 397 837 l 510 971 l 626 971 l 494 771 l 299 771 z "},"û":{"ha":749,"x_min":56,"x_max":693,"o":"m 56 256 l 56 694 l 229 694 l 229 303 q 272 200 229 242 q 374 158 314 158 q 476 200 434 158 q 519 303 519 242 l 519 694 l 692 694 l 693 0 l 519 0 l 519 61 q 434 3 483 24 q 330 -18 385 -18 q 192 19 254 -18 q 93 118 130 56 q 56 256 56 181 m 493 971 l 628 771 l 512 771 l 396 905 l 281 771 l 165 771 l 298 971 l 493 971 z "},"ü":{"ha":749,"x_min":56,"x_max":693,"o":"m 56 256 l 56 694 l 229 694 l 229 303 q 272 200 229 242 q 374 158 314 158 q 476 200 434 158 q 519 303 519 242 l 519 694 l 692 694 l 693 0 l 519 0 l 519 61 q 434 3 483 24 q 330 -18 385 -18 q 192 19 254 -18 q 93 118 130 56 q 56 256 56 181 m 257 742 q 193 768 219 742 q 167 831 167 793 q 193 894 167 868 q 257 920 219 920 q 320 894 294 920 q 346 831 346 868 q 320 768 346 793 q 257 742 294 742 m 535 742 q 471 768 497 742 q 444 831 444 793 q 471 894 444 868 q 535 920 497 920 q 598 894 572 920 q 624 831 624 868 q 598 768 624 793 q 535 742 572 742 z "},"ǘ":{"ha":749,"x_min":56,"x_max":693,"o":"m 56 256 l 56 694 l 229 694 l 229 303 q 272 200 229 242 q 374 158 314 158 q 476 200 434 158 q 519 303 519 242 l 519 694 l 692 694 l 693 0 l 519 0 l 519 61 q 434 3 483 24 q 330 -18 385 -18 q 192 19 254 -18 q 93 118 130 56 q 56 256 56 181 m 257 742 q 193 768 219 742 q 167 831 167 793 q 193 894 167 868 q 257 920 219 920 q 320 894 294 920 q 346 831 346 868 q 320 768 346 793 q 257 742 294 742 m 535 742 q 471 768 497 742 q 444 831 444 793 q 471 894 444 868 q 535 920 497 920 q 598 894 572 920 q 624 831 624 868 q 598 768 624 793 q 535 742 572 742 m 350 972 l 406 1172 l 579 1172 l 466 972 l 350 972 z "},"ǚ":{"ha":749,"x_min":56,"x_max":693,"o":"m 56 256 l 56 694 l 229 694 l 229 303 q 272 200 229 242 q 374 158 314 158 q 476 200 434 158 q 519 303 519 242 l 519 694 l 692 694 l 693 0 l 519 0 l 519 61 q 434 3 483 24 q 330 -18 385 -18 q 192 19 254 -18 q 93 118 130 56 q 56 256 56 181 m 257 742 q 193 768 219 742 q 167 831 167 793 q 193 894 167 868 q 257 920 219 920 q 320 894 294 920 q 346 831 346 868 q 320 768 346 793 q 257 742 294 742 m 535 742 q 471 768 497 742 q 444 831 444 793 q 471 894 444 868 q 535 920 497 920 q 598 894 572 920 q 624 831 624 868 q 598 768 624 793 q 535 742 572 742 m 299 969 l 165 1169 l 280 1169 l 397 1035 l 510 1169 l 626 1169 l 494 969 l 299 969 z "},"ǜ":{"ha":749,"x_min":56,"x_max":693,"o":"m 56 256 l 56 694 l 229 694 l 229 303 q 272 200 229 242 q 374 158 314 158 q 476 200 434 158 q 519 303 519 242 l 519 694 l 692 694 l 693 0 l 519 0 l 519 61 q 434 3 483 24 q 330 -18 385 -18 q 192 19 254 -18 q 93 118 130 56 q 56 256 56 181 m 257 742 q 193 768 219 742 q 167 831 167 793 q 193 894 167 868 q 257 920 219 920 q 320 894 294 920 q 346 831 346 868 q 320 768 346 793 q 257 742 294 742 m 535 742 q 471 768 497 742 q 444 831 444 793 q 471 894 444 868 q 535 920 497 920 q 598 894 572 920 q 624 831 624 868 q 598 768 624 793 q 535 742 572 742 m 212 1169 l 385 1169 l 440 969 l 325 969 l 212 1169 z "},"ǖ":{"ha":749,"x_min":56,"x_max":693,"o":"m 56 256 l 56 694 l 229 694 l 229 303 q 272 200 229 242 q 374 158 314 158 q 476 200 434 158 q 519 303 519 242 l 519 694 l 692 694 l 693 0 l 519 0 l 519 61 q 434 3 483 24 q 330 -18 385 -18 q 192 19 254 -18 q 93 118 130 56 q 56 256 56 181 m 257 742 q 193 768 219 742 q 167 831 167 793 q 193 894 167 868 q 257 920 219 920 q 320 894 294 920 q 346 831 346 868 q 320 768 346 793 q 257 742 294 742 m 535 742 q 471 768 497 742 q 444 831 444 793 q 471 894 444 868 q 535 920 497 920 q 598 894 572 920 q 624 831 624 868 q 598 768 624 793 q 535 742 572 742 m 160 1122 l 630 1122 l 630 992 l 160 992 l 160 1122 z "},"ụ":{"ha":749,"x_min":56,"x_max":693,"o":"m 56 256 l 56 694 l 229 694 l 229 303 q 272 200 229 242 q 374 158 314 158 q 476 200 434 158 q 519 303 519 242 l 519 694 l 692 694 l 693 0 l 519 0 l 519 61 q 434 3 483 24 q 330 -18 385 -18 q 192 19 254 -18 q 93 118 130 56 q 56 256 56 181 m 397 -306 q 332 -281 358 -306 q 306 -217 306 -256 q 332 -154 306 -180 q 397 -128 358 -128 q 459 -154 433 -128 q 485 -217 485 -180 q 460 -281 485 -256 q 397 -306 434 -306 z "},"ù":{"ha":749,"x_min":56,"x_max":693,"o":"m 56 256 l 56 694 l 229 694 l 229 303 q 272 200 229 242 q 374 158 314 158 q 476 200 434 158 q 519 303 519 242 l 519 694 l 692 694 l 693 0 l 519 0 l 519 61 q 434 3 483 24 q 330 -18 385 -18 q 192 19 254 -18 q 93 118 130 56 q 56 256 56 181 m 212 971 l 385 971 l 440 771 l 325 771 l 212 971 z "},"ű":{"ha":749,"x_min":56,"x_max":703,"o":"m 56 256 l 56 694 l 229 694 l 229 303 q 272 200 229 242 q 374 158 314 158 q 476 200 434 158 q 519 303 519 242 l 519 694 l 692 694 l 693 0 l 519 0 l 519 61 q 434 3 483 24 q 330 -18 385 -18 q 192 19 254 -18 q 93 118 130 56 q 56 256 56 181 m 474 772 l 530 972 l 703 972 l 590 772 l 474 772 m 240 772 l 295 972 l 469 972 l 356 772 l 240 772 z "},"ū":{"ha":749,"x_min":56,"x_max":693,"o":"m 56 256 l 56 694 l 229 694 l 229 303 q 272 200 229 242 q 374 158 314 158 q 476 200 434 158 q 519 303 519 242 l 519 694 l 692 694 l 693 0 l 519 0 l 519 61 q 434 3 483 24 q 330 -18 385 -18 q 192 19 254 -18 q 93 118 130 56 q 56 256 56 181 m 160 923 l 630 923 l 630 794 l 160 794 l 160 923 z "},"ų":{"ha":749,"x_min":56,"x_max":790,"o":"m 56 256 l 56 694 l 229 694 l 229 303 q 272 200 229 242 q 374 158 314 158 q 476 200 434 158 q 519 303 519 242 l 519 694 l 692 694 l 693 0 l 519 0 l 519 61 q 434 3 483 24 q 330 -18 385 -18 q 192 19 254 -18 q 93 118 130 56 q 56 256 56 181 m 608 -314 q 521 -290 558 -314 q 464 -228 484 -266 q 443 -147 443 -190 q 455 -86 443 -117 q 492 -31 467 -56 l 608 85 l 692 1 q 607 -84 642 -49 q 572 -154 572 -120 q 583 -184 572 -171 q 615 -198 594 -198 q 661 -179 641 -198 q 681 -132 681 -160 l 790 -132 q 766 -223 790 -181 q 701 -289 742 -264 q 608 -314 660 -314 z "},"ů":{"ha":749,"x_min":56,"x_max":693,"o":"m 56 256 l 56 694 l 229 694 l 229 303 q 272 200 229 242 q 374 158 314 158 q 476 200 434 158 q 519 303 519 242 l 519 694 l 692 694 l 693 0 l 519 0 l 519 61 q 434 3 483 24 q 330 -18 385 -18 q 192 19 254 -18 q 93 118 130 56 q 56 256 56 181 m 395 741 q 303 780 342 741 q 265 872 265 819 q 303 963 265 924 q 395 1001 342 1001 q 487 963 449 1001 q 525 872 525 924 q 487 779 525 817 q 395 741 449 741 m 395 824 q 427 838 414 824 q 441 872 441 852 q 427 903 441 890 q 395 917 414 917 q 363 903 376 917 q 349 872 349 890 q 363 838 349 852 q 395 824 376 824 z "},"ũ":{"ha":749,"x_min":56,"x_max":693,"o":"m 56 256 l 56 694 l 229 694 l 229 303 q 272 200 229 242 q 374 158 314 158 q 476 200 434 158 q 519 303 519 242 l 519 694 l 692 694 l 693 0 l 519 0 l 519 61 q 434 3 483 24 q 330 -18 385 -18 q 192 19 254 -18 q 93 118 130 56 q 56 256 56 181 m 503 767 q 442 785 477 767 q 372 825 406 803 q 310 861 337 847 q 276 865 284 874 q 266 841 267 855 q 270 804 264 826 l 170 776 q 160 876 151 831 q 202 948 169 922 q 287 975 235 975 q 345 960 312 975 q 411 926 378 945 q 470 891 444 906 q 507 876 497 876 q 527 897 528 876 q 519 935 526 917 l 622 969 q 630 865 640 911 q 586 793 619 819 q 503 767 553 767 z "},"v":{"ha":813,"x_min":42,"x_max":772,"o":"m 518 0 l 294 0 l 42 695 l 226 695 l 406 199 l 586 695 l 772 695 l 518 0 z "},"w":{"ha":1187,"x_min":42,"x_max":1146,"o":"m 445 0 l 274 0 l 42 694 l 211 694 l 360 251 l 508 694 l 679 694 l 827 251 l 976 694 l 1146 694 l 913 0 l 742 0 l 593 445 l 445 0 z "},"ẃ":{"ha":1188,"x_min":42,"x_max":1146,"o":"m 445 0 l 274 0 l 42 694 l 211 694 l 360 251 l 508 694 l 679 694 l 827 251 l 976 694 l 1146 694 l 913 0 l 742 0 l 593 445 l 445 0 m 548 773 l 603 973 l 777 973 l 664 773 l 548 773 z "},"ŵ":{"ha":1188,"x_min":42,"x_max":1146,"o":"m 445 0 l 274 0 l 42 694 l 211 694 l 360 251 l 508 694 l 679 694 l 827 251 l 976 694 l 1146 694 l 913 0 l 742 0 l 593 445 l 445 0 m 691 971 l 826 771 l 710 771 l 594 905 l 479 771 l 363 771 l 496 971 l 691 971 z "},"ẅ":{"ha":1188,"x_min":42,"x_max":1146,"o":"m 445 0 l 274 0 l 42 694 l 211 694 l 360 251 l 508 694 l 679 694 l 827 251 l 976 694 l 1146 694 l 913 0 l 742 0 l 593 445 l 445 0 m 455 742 q 391 768 417 742 q 365 831 365 793 q 391 894 365 868 q 455 920 417 920 q 518 894 492 920 q 544 831 544 868 q 518 768 544 793 q 455 742 492 742 m 733 742 q 669 768 695 742 q 642 831 642 793 q 669 894 642 868 q 733 920 695 920 q 796 894 770 920 q 822 831 822 868 q 796 768 822 793 q 733 742 770 742 z "},"ẁ":{"ha":1188,"x_min":42,"x_max":1146,"o":"m 445 0 l 274 0 l 42 694 l 211 694 l 360 251 l 508 694 l 679 694 l 827 251 l 976 694 l 1146 694 l 913 0 l 742 0 l 593 445 l 445 0 m 410 971 l 583 971 l 638 771 l 523 771 l 410 971 z "},"x":{"ha":833,"x_min":56,"x_max":778,"o":"m 56 0 l 310 349 l 58 695 l 272 695 l 416 497 l 562 695 l 776 695 l 524 349 l 778 0 l 564 0 l 416 202 l 269 0 l 56 0 z "},"y":{"ha":799,"x_min":56,"x_max":744,"o":"m 560 694 l 744 694 l 364 -347 l 180 -347 l 306 0 l 56 694 l 245 694 l 392 237 l 560 694 z "},"ý":{"ha":799,"x_min":56,"x_max":744,"o":"m 560 694 l 744 694 l 364 -347 l 180 -347 l 306 0 l 56 694 l 245 694 l 392 237 l 560 694 m 354 773 l 410 973 l 583 973 l 470 773 l 354 773 z "},"ŷ":{"ha":799,"x_min":56,"x_max":744,"o":"m 560 694 l 744 694 l 364 -347 l 180 -347 l 306 0 l 56 694 l 245 694 l 392 237 l 560 694 m 497 971 l 632 771 l 516 771 l 400 905 l 285 771 l 169 771 l 302 971 l 497 971 z "},"ÿ":{"ha":799,"x_min":56,"x_max":744,"o":"m 560 694 l 744 694 l 364 -347 l 180 -347 l 306 0 l 56 694 l 245 694 l 392 237 l 560 694 m 261 742 q 197 768 223 742 q 171 831 171 793 q 197 894 171 868 q 261 920 223 920 q 324 894 299 920 q 350 831 350 868 q 324 768 350 793 q 261 742 299 742 m 540 742 q 475 768 501 742 q 449 831 449 793 q 475 894 449 868 q 540 920 501 920 q 602 894 576 920 q 628 831 628 868 q 602 768 628 793 q 540 742 576 742 z "},"ỵ":{"ha":799,"x_min":56,"x_max":744,"o":"m 560 694 l 744 694 l 364 -347 l 180 -347 l 306 0 l 56 694 l 245 694 l 392 237 l 560 694 m 567 -308 q 503 -282 529 -308 q 477 -219 477 -257 q 503 -156 477 -181 q 567 -130 529 -130 q 630 -156 604 -130 q 656 -219 656 -181 q 631 -282 656 -257 q 567 -308 605 -308 z "},"ỳ":{"ha":799,"x_min":56,"x_max":744,"o":"m 560 694 l 744 694 l 364 -347 l 180 -347 l 306 0 l 56 694 l 245 694 l 392 237 l 560 694 m 216 971 l 389 971 l 444 771 l 329 771 l 216 971 z "},"ȳ":{"ha":799,"x_min":56,"x_max":744,"o":"m 560 694 l 744 694 l 364 -347 l 180 -347 l 306 0 l 56 694 l 245 694 l 392 237 l 560 694 m 165 923 l 635 923 l 635 794 l 165 794 l 165 923 z "},"ỹ":{"ha":799,"x_min":56,"x_max":744,"o":"m 560 694 l 744 694 l 364 -347 l 180 -347 l 306 0 l 56 694 l 245 694 l 392 237 l 560 694 m 508 767 q 447 785 482 767 q 376 825 411 803 q 315 861 342 847 q 281 865 289 874 q 270 841 272 855 q 275 804 269 826 l 175 776 q 165 876 156 831 q 207 948 174 922 q 292 975 240 975 q 350 960 317 975 q 416 926 383 945 q 475 891 449 906 q 512 876 501 876 q 532 897 533 876 q 524 935 531 917 l 626 969 q 635 865 645 911 q 591 793 624 819 q 508 767 558 767 z "},"z":{"ha":704,"x_min":56,"x_max":649,"o":"m 649 521 l 306 174 l 649 174 l 649 0 l 56 0 l 56 174 l 399 521 l 56 521 l 56 694 l 649 694 l 649 521 z "},"ź":{"ha":704,"x_min":56,"x_max":649,"o":"m 649 521 l 306 174 l 649 174 l 649 0 l 56 0 l 56 174 l 399 521 l 56 521 l 56 694 l 649 694 l 649 521 m 307 773 l 363 973 l 536 973 l 423 773 l 307 773 z "},"ž":{"ha":704,"x_min":56,"x_max":649,"o":"m 649 521 l 306 174 l 649 174 l 649 0 l 56 0 l 56 174 l 399 521 l 56 521 l 56 694 l 649 694 l 649 521 m 256 771 l 121 971 l 236 971 l 353 837 l 467 971 l 583 971 l 451 771 l 256 771 z "},"ż":{"ha":704,"x_min":56,"x_max":649,"o":"m 649 521 l 306 174 l 649 174 l 649 0 l 56 0 l 56 174 l 399 521 l 56 521 l 56 694 l 649 694 l 649 521 m 353 782 q 289 807 315 782 q 263 871 263 833 q 289 934 263 908 q 353 960 315 960 q 416 934 390 960 q 442 871 442 908 q 416 807 442 833 q 353 782 390 782 z "},"ẓ":{"ha":704,"x_min":56,"x_max":649,"o":"m 649 521 l 306 174 l 649 174 l 649 0 l 56 0 l 56 174 l 399 521 l 56 521 l 56 694 l 649 694 l 649 521 m 353 -308 q 289 -282 315 -308 q 263 -219 263 -257 q 289 -156 263 -181 q 353 -130 315 -130 q 416 -156 390 -130 q 442 -219 442 -181 q 416 -282 442 -257 q 353 -308 390 -308 z "},"ꞌ":{"ha":257,"x_min":42,"x_max":215,"o":"m 215 1042 l 186 662 l 71 662 l 42 1042 l 215 1042 z "},"ﬁ":{"ha":838,"x_min":35,"x_max":758,"o":"m 283 838 l 283 694 l 472 694 l 472 521 l 283 521 l 283 0 l 109 0 l 109 521 l 35 521 l 35 694 l 109 694 l 109 838 q 139 949 109 899 q 219 1028 169 999 q 331 1058 269 1058 q 418 1040 375 1058 q 495 984 462 1022 l 371 862 q 331 885 358 885 q 297 871 311 885 q 283 838 283 858 m 581 694 l 754 694 l 754 0 l 581 0 l 581 694 m 669 782 q 605 807 631 782 q 578 871 578 833 q 605 934 578 908 q 669 960 631 960 q 732 934 706 960 q 758 871 758 908 q 732 807 758 833 q 669 782 706 782 z "},"ﬂ":{"ha":869,"x_min":35,"x_max":779,"o":"m 283 838 l 283 694 l 472 694 l 472 521 l 283 521 l 283 0 l 109 0 l 109 521 l 35 521 l 35 694 l 109 694 l 109 838 q 139 949 109 899 q 219 1028 169 999 q 331 1058 269 1058 q 418 1040 375 1058 q 495 984 462 1022 l 371 862 q 331 885 358 885 q 297 871 311 885 q 283 838 283 858 m 606 0 l 606 1042 l 779 1042 l 779 0 l 606 0 z "},"ª":{"ha":574,"x_min":42,"x_max":532,"o":"m 281 507 q 160 540 215 507 q 74 628 106 573 q 42 750 42 683 q 74 872 42 817 q 160 960 106 927 q 281 993 215 993 q 373 974 333 993 q 440 922 413 954 l 440 980 l 532 980 l 532 519 l 440 519 l 440 578 q 373 526 413 545 q 281 507 333 507 m 163 749 q 199 658 163 695 q 285 620 236 620 q 370 659 338 620 q 403 749 403 697 q 370 841 403 804 q 285 878 336 878 q 199 841 235 878 q 163 749 163 804 z "},"º":{"ha":544,"x_min":42,"x_max":503,"o":"m 272 507 q 156 540 208 507 q 73 627 103 572 q 42 749 42 683 q 73 872 42 817 q 156 960 103 927 q 272 993 208 993 q 388 960 336 993 q 472 872 440 927 q 503 749 503 817 q 472 627 503 683 q 388 540 440 572 q 272 507 336 507 m 133 749 q 174 643 133 688 q 272 598 215 598 q 345 620 313 598 q 394 676 376 642 q 412 749 412 711 q 372 856 412 810 q 272 902 333 902 q 199 880 231 902 q 150 823 167 858 q 133 749 133 788 z "},"Δ":{"ha":877,"x_min":21,"x_max":856,"o":"m 856 0 l 21 0 l 439 972 l 856 0 m 284 174 l 592 174 l 439 533 l 284 174 z "},"Ω":{"ha":1042,"x_min":42,"x_max":1000,"o":"m 42 0 l 42 174 l 158 174 q 73 315 105 234 q 42 486 42 395 q 79 682 42 590 q 183 842 117 773 q 335 951 249 912 q 521 990 422 990 q 707 951 620 990 q 860 842 794 912 q 963 682 926 773 q 1000 486 1000 590 q 969 315 1000 395 q 885 174 938 234 l 1000 174 l 1000 0 l 628 0 l 628 177 q 771 297 715 213 q 826 486 826 381 q 785 652 826 577 q 674 772 744 727 q 521 817 605 817 q 367 772 436 817 q 257 652 298 727 q 215 486 215 576 q 271 297 215 381 q 413 177 327 213 l 413 0 l 42 0 z "},"μ":{"ha":791,"x_min":56,"x_max":735,"o":"m 56 -300 l 56 694 l 229 694 l 229 340 q 251 244 229 288 q 312 174 273 200 q 401 149 351 149 q 519 205 476 149 q 562 340 562 260 l 562 694 l 735 694 l 735 0 l 562 0 l 562 81 q 480 8 527 35 q 372 -19 432 -19 q 293 -6 329 -19 q 229 31 258 8 l 229 -300 l 56 -300 z "},"π":{"ha":760,"x_min":42,"x_max":718,"o":"m 112 0 l 112 521 l 42 521 l 42 694 l 718 694 l 718 521 l 648 521 l 648 235 q 666 191 648 209 q 710 174 684 174 l 710 0 q 590 32 643 0 q 506 117 537 64 q 474 235 474 170 l 474 521 l 285 521 l 285 0 l 112 0 z "},"⁄":{"ha":313,"x_min":-196,"x_max":508,"o":"m -196 0 l 365 972 l 508 972 l -53 0 l -196 0 z "},"∕":{"ha":313,"x_min":-196,"x_max":508,"o":"m -196 0 l 365 972 l 508 972 l -53 0 l -196 0 z "},"½":{"ha":1123,"x_min":67,"x_max":1023,"o":"m 112 568 l 112 903 l 67 903 l 81 1006 l 214 1006 l 214 568 l 112 568 m 118 0 l 679 972 l 822 972 l 261 0 l 118 0 m 693 0 l 693 91 q 777 147 732 117 q 861 213 822 176 q 920 294 901 249 q 902 338 920 321 q 859 356 885 356 q 814 338 833 356 q 796 294 796 321 l 693 294 q 716 377 693 340 q 776 436 738 414 q 859 458 813 458 q 941 436 904 458 q 1001 377 978 414 q 1023 294 1023 340 q 1001 224 1023 257 q 945 160 978 190 q 879 103 913 130 l 1017 103 l 1017 0 l 693 0 z "},"¼":{"ha":1107,"x_min":67,"x_max":1006,"o":"m 112 568 l 112 903 l 67 903 l 81 1006 l 214 1006 l 214 568 l 112 568 m 118 0 l 679 972 l 822 972 l 261 0 l 118 0 m 863 0 l 863 67 l 693 67 l 693 191 l 850 438 l 966 438 l 966 170 l 1006 170 l 1006 67 l 966 67 l 966 0 l 863 0 m 794 170 l 873 170 l 873 295 l 794 170 z "},"¾":{"ha":1194,"x_min":50,"x_max":1094,"o":"m 201 554 q 94 595 139 554 q 50 698 50 635 l 153 698 q 167 664 153 677 q 201 651 181 651 q 235 664 221 651 q 249 698 249 677 q 227 742 249 722 q 165 763 206 763 l 165 831 q 221 849 206 831 q 237 886 237 867 q 225 912 237 901 q 198 923 213 923 q 171 912 183 923 q 160 886 160 901 l 57 886 q 98 982 57 944 q 198 1019 140 1019 q 298 982 257 1019 q 340 886 340 944 q 309 799 340 835 q 351 698 351 759 q 307 595 351 635 q 201 554 263 554 m 206 0 l 767 972 l 910 972 l 349 0 l 206 0 m 951 0 l 951 67 l 781 67 l 781 191 l 938 438 l 1053 438 l 1053 170 l 1094 170 l 1094 67 l 1053 67 l 1053 0 l 951 0 m 881 170 l 960 170 l 960 295 l 881 170 z "},"⅛":{"ha":1062,"x_min":67,"x_max":995,"o":"m 112 568 l 112 903 l 67 903 l 81 1006 l 214 1006 l 214 568 l 112 568 m 118 0 l 679 972 l 822 972 l 261 0 l 118 0 m 843 -22 q 737 21 781 -22 q 693 125 693 63 q 704 182 693 156 q 733 228 715 209 q 702 315 702 267 q 743 416 702 375 q 843 456 785 456 q 944 416 902 456 q 986 315 986 375 q 955 228 986 267 q 984 182 974 209 q 995 125 995 156 q 951 21 995 63 q 843 -22 907 -22 m 843 276 q 872 288 860 276 q 883 315 883 300 q 872 343 883 332 q 843 353 860 353 q 816 343 828 353 q 805 315 805 332 q 816 288 805 300 q 843 276 828 276 m 843 79 q 878 92 864 79 q 892 125 892 106 q 878 160 892 146 q 843 174 864 174 q 810 160 824 174 q 796 125 796 146 q 810 92 796 106 q 843 79 824 79 z "},"⅜":{"ha":1149,"x_min":50,"x_max":1083,"o":"m 201 554 q 94 595 139 554 q 50 698 50 635 l 153 698 q 167 664 153 677 q 201 651 181 651 q 235 664 221 651 q 249 698 249 677 q 227 742 249 722 q 165 763 206 763 l 165 831 q 221 849 206 831 q 237 886 237 867 q 225 912 237 901 q 198 923 213 923 q 171 912 183 923 q 160 886 160 901 l 57 886 q 98 982 57 944 q 198 1019 140 1019 q 298 982 257 1019 q 340 886 340 944 q 309 799 340 835 q 351 698 351 759 q 307 595 351 635 q 201 554 263 554 m 206 0 l 767 972 l 910 972 l 349 0 l 206 0 m 931 -22 q 825 21 869 -22 q 781 125 781 63 q 791 182 781 156 q 821 228 802 209 q 790 315 790 267 q 831 416 790 375 q 931 456 872 456 q 1032 416 990 456 q 1074 315 1074 375 q 1042 228 1074 267 q 1072 182 1061 209 q 1083 125 1083 156 q 1039 21 1083 63 q 931 -22 994 -22 m 931 276 q 959 288 947 276 q 971 315 971 300 q 959 343 971 332 q 931 353 947 353 q 904 343 915 353 q 892 315 892 332 q 904 288 892 300 q 931 276 915 276 m 931 79 q 966 92 951 79 q 980 125 980 106 q 966 160 980 146 q 931 174 951 174 q 897 160 911 174 q 883 125 883 146 q 897 92 883 106 q 931 79 911 79 z "},"⅝":{"ha":1233,"x_min":58,"x_max":1166,"o":"m 222 554 q 106 598 154 554 q 58 709 58 641 l 161 709 q 178 667 161 684 q 222 651 196 651 q 265 667 247 651 q 283 709 283 684 q 265 750 283 733 q 222 769 247 767 q 158 768 199 770 q 81 759 117 765 l 104 1006 l 342 1006 l 342 917 l 198 917 l 196 870 q 333 828 282 873 q 385 709 385 783 q 337 598 385 641 q 222 554 289 554 m 289 0 l 850 972 l 993 972 l 432 0 l 289 0 m 1014 -22 q 908 21 952 -22 q 864 125 864 63 q 875 182 864 156 q 904 228 885 209 q 873 315 873 267 q 914 416 873 375 q 1014 456 956 456 q 1115 416 1073 456 q 1157 315 1157 375 q 1126 228 1157 267 q 1155 182 1144 209 q 1166 125 1166 156 q 1122 21 1166 63 q 1014 -22 1078 -22 m 1014 276 q 1042 288 1031 276 q 1054 315 1054 300 q 1042 343 1054 332 q 1014 353 1031 353 q 987 343 999 353 q 976 315 976 332 q 987 288 976 300 q 1014 276 999 276 m 1014 79 q 1049 92 1035 79 q 1063 125 1063 106 q 1049 160 1063 146 q 1014 174 1035 174 q 981 160 994 174 q 967 125 967 146 q 981 92 967 106 q 1014 79 994 79 z "},"⅞":{"ha":1213,"x_min":83,"x_max":1147,"o":"m 106 568 l 297 902 l 83 902 l 83 1005 l 416 1005 l 416 905 l 223 568 l 106 568 m 270 0 l 831 972 l 974 972 l 413 0 l 270 0 m 995 -22 q 889 21 933 -22 q 845 125 845 63 q 856 182 845 156 q 885 228 867 209 q 854 315 854 267 q 895 416 854 375 q 995 456 937 456 q 1096 416 1054 456 q 1138 315 1138 375 q 1107 228 1138 267 q 1136 182 1126 209 q 1147 125 1147 156 q 1103 21 1147 63 q 995 -22 1059 -22 m 995 276 q 1024 288 1012 276 q 1035 315 1035 300 q 1024 343 1035 332 q 995 353 1012 353 q 968 343 980 353 q 957 315 957 332 q 968 288 957 300 q 995 276 980 276 m 995 79 q 1030 92 1016 79 q 1044 125 1044 106 q 1030 160 1044 146 q 995 174 1016 174 q 962 160 976 174 q 948 125 948 146 q 962 92 948 106 q 995 79 976 79 z "},"₀":{"ha":450,"x_min":50,"x_max":400,"o":"m 225 -22 q 137 10 177 -22 q 74 97 97 42 q 50 218 50 151 q 74 338 50 283 q 137 424 97 392 q 225 456 177 456 q 313 424 274 456 q 376 338 353 392 q 400 218 400 283 q 376 97 400 151 q 313 10 353 42 q 225 -22 274 -22 m 225 81 q 264 104 248 81 q 289 159 281 127 q 297 218 297 191 q 289 279 297 248 q 264 332 280 310 q 225 353 247 353 q 184 331 201 353 q 160 277 168 309 q 153 218 153 246 q 161 155 153 186 q 186 102 169 123 q 225 81 202 81 z "},"₁":{"ha":314,"x_min":67,"x_max":214,"o":"m 112 0 l 112 335 l 67 335 l 81 438 l 214 438 l 214 0 l 112 0 z "},"₂":{"ha":497,"x_min":67,"x_max":397,"o":"m 67 0 l 67 91 q 151 147 106 117 q 235 213 196 176 q 294 294 274 249 q 276 338 294 321 q 233 356 258 356 q 188 338 206 356 q 169 294 169 321 l 67 294 q 89 377 67 340 q 149 436 112 414 q 233 458 187 458 q 315 436 278 458 q 374 377 352 414 q 397 294 397 340 q 374 224 397 257 q 319 160 352 190 q 253 103 286 130 l 390 103 l 390 0 l 67 0 z "},"₃":{"ha":401,"x_min":50,"x_max":351,"o":"m 201 -22 q 94 22 139 -22 q 50 128 50 66 l 153 128 q 167 94 153 108 q 201 81 181 81 q 235 94 221 81 q 249 128 249 108 q 227 172 249 152 q 165 192 206 192 l 165 261 q 221 279 206 261 q 237 317 237 297 q 225 343 237 333 q 198 353 213 353 q 171 343 183 353 q 160 317 160 333 l 57 317 q 98 415 57 375 q 198 456 140 456 q 298 415 257 456 q 340 317 340 375 q 309 231 340 267 q 351 128 351 189 q 331 53 351 87 q 276 -1 310 19 q 201 -22 242 -22 z "},"₄":{"ha":480,"x_min":67,"x_max":380,"o":"m 237 0 l 237 67 l 67 67 l 67 191 l 224 438 l 340 438 l 340 170 l 380 170 l 380 67 l 340 67 l 340 0 l 237 0 m 167 170 l 247 170 l 247 295 l 167 170 z "},"₅":{"ha":485,"x_min":58,"x_max":385,"o":"m 222 -22 q 140 0 176 -22 q 81 57 103 21 q 58 139 58 94 l 161 139 q 178 98 161 115 q 222 81 196 81 q 265 98 247 81 q 283 139 283 115 q 265 181 283 164 q 222 199 247 199 l 81 194 l 104 436 l 342 436 l 342 346 l 198 346 l 196 300 l 223 301 q 343 255 301 301 q 385 139 385 208 q 363 57 385 94 q 303 0 341 21 q 222 -22 266 -22 z "},"₆":{"ha":474,"x_min":67,"x_max":390,"o":"m 228 -22 q 113 25 160 -22 q 67 139 67 71 q 71 175 67 158 q 90 221 76 192 q 134 300 105 249 q 213 435 164 350 l 333 435 l 251 295 q 353 240 316 283 q 390 137 390 196 q 368 56 390 92 q 309 -1 346 20 q 228 -22 272 -22 m 228 81 q 273 100 255 81 q 286 146 290 119 q 267 182 283 169 q 228 196 250 196 q 183 174 198 196 q 170 128 167 152 q 191 92 174 103 q 228 81 209 81 z "},"₇":{"ha":465,"x_min":83,"x_max":416,"o":"m 103 0 l 297 335 l 83 335 l 83 438 l 416 438 l 416 338 l 221 0 l 103 0 z "},"₈":{"ha":435,"x_min":67,"x_max":369,"o":"m 217 -22 q 111 21 155 -22 q 67 125 67 63 q 77 182 67 156 q 107 228 88 209 q 76 315 76 267 q 117 416 76 375 q 217 456 158 456 q 318 416 276 456 q 360 315 360 375 q 328 228 360 267 q 358 182 347 209 q 369 125 369 156 q 325 21 369 63 q 217 -22 281 -22 m 217 276 q 245 288 233 276 q 257 315 257 300 q 245 343 257 332 q 217 353 233 353 q 190 343 201 353 q 178 315 178 332 q 190 288 178 300 q 217 276 201 276 m 217 79 q 252 92 238 79 q 266 125 266 106 q 252 160 266 146 q 217 174 238 174 q 183 160 197 174 q 169 125 169 146 q 183 92 169 106 q 217 79 197 79 z "},"₉":{"ha":457,"x_min":47,"x_max":375,"o":"m 107 0 l 188 142 q 111 172 144 145 q 63 236 78 198 q 55 315 47 275 q 105 417 59 376 q 212 458 150 458 q 294 436 258 458 q 351 379 331 415 q 374 301 372 344 q 351 218 375 259 l 225 0 l 107 0 m 212 240 q 256 259 238 240 q 270 306 273 279 q 250 341 268 326 q 212 356 232 356 q 167 335 183 356 q 153 291 151 315 q 176 251 156 263 q 212 240 195 240 z "},"⁰":{"ha":450,"x_min":50,"x_max":400,"o":"m 225 554 q 137 585 177 554 q 74 668 97 615 q 50 788 50 721 q 74 906 50 853 q 137 989 97 958 q 225 1019 177 1019 q 313 989 274 1019 q 376 906 353 958 q 400 788 400 853 q 376 668 400 721 q 313 585 353 615 q 225 554 274 554 m 225 651 q 264 674 248 651 q 289 728 281 697 q 297 788 297 760 q 289 849 297 818 q 264 902 280 881 q 225 924 247 924 q 184 901 201 924 q 160 848 168 879 q 153 788 153 816 q 161 724 153 756 q 186 672 169 692 q 225 651 202 651 z "},"¹":{"ha":314,"x_min":67,"x_max":214,"o":"m 112 568 l 112 903 l 67 903 l 81 1006 l 214 1006 l 214 568 l 112 568 z "},"²":{"ha":497,"x_min":67,"x_max":397,"o":"m 67 568 l 67 659 q 151 715 106 685 q 235 780 196 744 q 294 862 274 816 q 276 906 294 888 q 233 924 258 924 q 188 906 206 924 q 169 862 169 888 l 67 862 q 115 975 67 931 q 233 1019 164 1019 q 349 975 301 1019 q 397 862 397 931 q 374 791 397 825 q 319 728 352 758 q 253 671 286 698 l 390 671 l 390 568 l 67 568 z "},"³":{"ha":401,"x_min":50,"x_max":351,"o":"m 201 554 q 94 595 139 554 q 50 698 50 635 l 153 698 q 167 664 153 677 q 201 651 181 651 q 235 664 221 651 q 249 698 249 677 q 227 742 249 722 q 165 763 206 763 l 165 831 q 221 849 206 831 q 237 886 237 867 q 225 912 237 901 q 198 923 213 923 q 171 912 183 923 q 160 886 160 901 l 57 886 q 98 982 57 944 q 198 1019 140 1019 q 298 982 257 1019 q 340 886 340 944 q 309 799 340 835 q 351 698 351 759 q 307 595 351 635 q 201 554 263 554 z "},"⁴":{"ha":480,"x_min":67,"x_max":380,"o":"m 237 568 l 237 635 l 67 635 l 67 759 l 224 1006 l 340 1006 l 340 738 l 380 738 l 380 635 l 340 635 l 340 568 l 237 568 m 167 738 l 247 738 l 247 863 l 167 738 z "},"⁵":{"ha":485,"x_min":58,"x_max":385,"o":"m 222 554 q 106 598 154 554 q 58 709 58 641 l 161 709 q 178 667 161 684 q 222 651 196 651 q 265 667 247 651 q 283 709 283 684 q 265 750 283 733 q 222 769 247 767 q 158 768 199 770 q 81 759 117 765 l 104 1006 l 342 1006 l 342 917 l 198 917 l 196 870 q 333 828 282 873 q 385 709 385 783 q 337 598 385 641 q 222 554 289 554 z "},"⁶":{"ha":490,"x_min":67,"x_max":390,"o":"m 228 554 q 113 597 160 554 q 67 708 67 640 q 71 744 67 727 q 90 790 76 762 q 134 868 105 818 q 213 1004 164 919 l 333 1004 l 251 865 q 353 809 316 853 q 390 706 390 765 q 342 596 390 638 q 228 554 294 554 m 228 651 q 273 670 255 651 q 286 716 290 689 q 267 752 283 738 q 228 766 250 766 q 182 744 198 766 q 170 698 167 722 q 191 662 174 673 q 228 651 209 651 z "},"⁷":{"ha":465,"x_min":83,"x_max":416,"o":"m 106 568 l 297 902 l 83 902 l 83 1005 l 416 1005 l 416 905 l 223 568 l 106 568 z "},"⁸":{"ha":435,"x_min":67,"x_max":369,"o":"m 217 554 q 111 593 155 554 q 67 695 67 633 q 77 752 67 726 q 107 798 88 778 q 76 885 76 835 q 117 983 76 944 q 217 1021 158 1021 q 318 983 276 1021 q 360 885 360 944 q 328 798 360 835 q 358 752 347 778 q 369 695 369 726 q 325 593 369 633 q 217 554 281 554 m 217 847 q 245 858 233 847 q 257 885 257 869 q 245 913 257 902 q 217 924 233 924 q 190 913 201 924 q 178 885 178 902 q 190 858 178 869 q 217 847 201 847 m 217 649 q 252 663 238 649 q 266 695 266 676 q 252 730 266 715 q 217 744 238 744 q 183 730 197 744 q 169 695 169 715 q 183 663 169 676 q 217 649 197 649 z "},"⁹":{"ha":457,"x_min":47,"x_max":376,"o":"m 107 568 l 188 710 q 111 739 144 713 q 63 804 78 765 q 55 883 47 842 q 105 982 59 944 q 212 1019 150 1019 q 300 995 262 1019 q 357 933 338 972 q 369 849 376 894 q 351 785 369 816 l 225 568 l 107 568 m 212 807 q 256 827 238 807 q 270 874 273 847 q 250 909 268 894 q 212 924 232 924 q 167 903 183 924 q 153 859 151 883 q 176 819 156 831 q 212 807 195 807 z "}," ":{"ha":333,"x_min":0,"x_max":0,"o":""}," ":{"ha":333,"x_min":0,"x_max":0,"o":""}," ":{"ha":694,"x_min":0,"x_max":0,"o":""}," ":{"ha":278,"x_min":0,"x_max":0,"o":""},"​":{"ha":0,"x_min":0,"x_max":0,"o":""},"\u0000":{"ha":833,"x_min":0,"x_max":0,"o":""},"\r":{"ha":833,"x_min":0,"x_max":0,"o":""},"﻿":{"ha":833,"x_min":0,"x_max":0,"o":""},".":{"ha":317,"x_min":56,"x_max":233,"o":"m 144 -18 q 81 8 107 -18 q 56 71 56 33 q 81 134 56 108 q 144 160 107 160 q 207 134 181 160 q 233 71 233 108 q 207 8 233 33 q 144 -18 181 -18 z "},",":{"ha":356,"x_min":56,"x_max":272,"o":"m 56 -78 l 99 157 l 272 157 l 171 -78 l 56 -78 z "},":":{"ha":317,"x_min":56,"x_max":233,"o":"m 144 517 q 81 542 107 517 q 56 606 56 568 q 81 668 56 642 q 144 694 107 694 q 207 668 181 694 q 233 606 233 642 q 207 542 233 568 q 144 517 181 517 m 144 -18 q 81 8 107 -18 q 56 71 56 33 q 81 134 56 108 q 144 160 107 160 q 207 134 181 160 q 233 71 233 108 q 207 8 233 33 q 144 -18 181 -18 z "},";":{"ha":357,"x_min":56,"x_max":274,"o":"m 185 517 q 122 542 148 517 q 96 606 96 568 q 122 668 96 642 q 185 694 148 694 q 248 668 222 694 q 274 606 274 642 q 248 542 274 568 q 185 517 222 517 m 56 -78 l 99 157 l 272 157 l 171 -78 l 56 -78 z "},"…":{"ha":881,"x_min":56,"x_max":798,"o":"m 144 -18 q 81 8 107 -18 q 56 71 56 33 q 81 134 56 108 q 144 160 107 160 q 207 134 181 160 q 233 71 233 108 q 207 8 233 33 q 144 -18 181 -18 m 426 -18 q 363 8 389 -18 q 338 71 338 33 q 363 134 338 108 q 426 160 389 160 q 489 134 463 160 q 515 71 515 108 q 489 8 515 33 q 426 -18 463 -18 m 709 -18 q 646 8 672 -18 q 620 71 620 33 q 646 134 620 108 q 709 160 672 160 q 772 134 745 160 q 798 71 798 108 q 772 8 798 33 q 709 -18 745 -18 z "},"!":{"ha":315,"x_min":56,"x_max":232,"o":"m 71 292 l 71 972 l 217 972 l 217 292 l 71 292 m 144 -18 q 81 8 107 -18 q 56 72 56 34 q 81 134 56 108 q 144 160 107 160 q 207 134 181 160 q 232 72 232 108 q 207 8 232 34 q 144 -18 181 -18 z "},"¡":{"ha":310,"x_min":56,"x_max":232,"o":"m 143 713 q 206 686 181 713 q 232 622 232 660 q 206 560 232 586 q 143 535 181 535 q 81 560 107 535 q 56 622 56 586 q 81 686 56 660 q 143 713 107 713 m 217 403 l 217 -278 l 71 -278 l 71 403 l 217 403 z "},"?":{"ha":773,"x_min":56,"x_max":690,"o":"m 296 296 q 335 441 296 374 q 445 546 375 508 q 497 598 478 564 q 517 674 517 633 q 474 776 517 734 q 372 817 432 817 q 271 776 313 817 q 229 674 229 734 l 56 674 q 98 833 56 762 q 213 948 141 905 q 372 990 285 990 q 532 948 460 990 q 647 833 604 905 q 690 674 690 762 q 646 509 690 585 q 527 393 603 433 q 469 296 469 363 l 296 296 m 389 -18 q 326 8 352 -18 q 300 72 300 34 q 326 134 300 108 q 389 160 352 160 q 451 134 426 160 q 477 72 477 108 q 451 8 477 34 q 389 -18 426 -18 z "},"¿":{"ha":767,"x_min":56,"x_max":690,"o":"m 356 535 q 294 560 320 535 q 268 622 268 586 q 294 686 268 660 q 356 713 320 713 q 419 686 394 713 q 445 622 445 660 q 419 560 445 586 q 356 535 394 535 m 373 -296 q 213 -253 285 -296 q 98 -139 141 -210 q 56 20 56 -67 q 99 185 56 110 q 219 301 142 261 q 276 399 276 332 l 450 399 q 410 253 450 320 q 301 149 370 187 q 248 97 267 131 q 229 20 229 62 q 271 -81 229 -40 q 373 -123 313 -123 q 474 -81 432 -123 q 517 20 517 -40 l 690 20 q 647 -139 690 -67 q 532 -253 604 -210 q 373 -296 460 -296 z "},"·":{"ha":289,"x_min":56,"x_max":233,"o":"m 144 328 q 81 353 107 328 q 56 417 56 379 q 81 480 56 453 q 144 506 107 506 q 207 480 181 506 q 233 417 233 453 q 207 353 233 379 q 144 328 181 328 z "},"•":{"ha":348,"x_min":56,"x_max":292,"o":"m 174 298 q 90 332 124 298 q 56 417 56 367 q 90 501 56 466 q 174 535 124 535 q 258 501 223 535 q 292 417 292 466 q 258 332 292 367 q 174 298 223 298 z "},"*":{"ha":503,"x_min":35,"x_max":448,"o":"m 172 579 l 76 649 l 145 744 l 35 779 l 70 892 l 182 856 l 182 972 l 301 972 l 301 856 l 411 892 l 448 779 l 336 744 l 406 649 l 309 579 l 241 674 l 172 579 z "},"#":{"ha":1094,"x_min":56,"x_max":1039,"o":"m 994 608 l 879 608 l 813 365 l 929 365 l 884 198 l 769 198 l 717 0 l 543 0 l 597 198 l 344 198 l 292 0 l 118 0 l 170 198 l 56 198 l 101 365 l 215 365 l 281 608 l 165 608 l 210 775 l 325 775 l 378 972 l 551 972 l 499 775 l 751 775 l 803 972 l 976 972 l 924 775 l 1039 775 l 994 608 m 640 365 l 706 608 l 454 608 l 388 365 l 640 365 z "},"/":{"ha":566,"x_min":56,"x_max":510,"o":"m 510 972 l 229 -78 l 56 -78 l 338 972 l 510 972 z "},"\\":{"ha":565,"x_min":56,"x_max":510,"o":"m 336 -78 l 56 972 l 229 972 l 510 -78 l 336 -78 z "},"-":{"ha":611,"x_min":83,"x_max":528,"o":"m 83 503 l 528 503 l 528 330 l 83 330 l 83 503 z "},"­":{"ha":617,"x_min":89,"x_max":533,"o":"m 89 503 l 533 503 l 533 330 l 89 330 l 89 503 z "},"–":{"ha":861,"x_min":83,"x_max":778,"o":"m 83 503 l 778 503 l 778 330 l 83 330 l 83 503 z "},"—":{"ha":1417,"x_min":83,"x_max":1333,"o":"m 83 503 l 1333 503 l 1333 330 l 83 330 l 83 503 z "},"_":{"ha":861,"x_min":83,"x_max":778,"o":"m 83 96 l 778 96 l 778 -78 l 83 -78 l 83 96 z "},"(":{"ha":531,"x_min":83,"x_max":461,"o":"m 288 -78 q 132 157 180 28 q 83 447 83 286 q 93 560 83 497 q 121 687 103 622 q 165 810 140 752 q 221 912 190 869 q 288 972 252 955 l 461 972 q 390 889 426 948 q 324 751 354 829 q 276 593 294 674 q 257 447 258 513 q 288 240 258 339 q 365 60 318 141 q 461 -78 411 -22 l 288 -78 z "},")":{"ha":531,"x_min":69,"x_max":447,"o":"m 69 -78 q 166 60 119 -22 q 243 240 213 141 q 274 447 273 339 q 255 593 273 513 q 207 751 237 674 q 141 889 176 829 q 69 972 105 948 l 243 972 q 309 912 278 955 q 366 810 340 869 q 409 687 391 752 q 438 560 428 622 q 447 447 447 497 q 399 157 447 286 q 243 -78 351 28 l 69 -78 z "},"{":{"ha":571,"x_min":83,"x_max":501,"o":"m 425 -78 q 302 -45 358 -78 q 215 43 247 -12 q 182 165 182 98 l 182 335 q 167 365 182 353 q 132 388 151 377 q 98 411 113 398 q 83 447 83 425 q 98 481 83 467 q 132 507 113 495 q 167 530 151 518 q 182 558 182 542 l 182 729 q 215 851 182 796 q 302 939 247 906 q 425 972 358 972 l 501 972 l 501 799 l 425 799 q 376 778 397 799 q 356 729 356 758 l 356 553 q 341 513 354 529 q 313 482 328 497 q 290 447 298 467 q 314 411 299 426 q 341 381 328 397 q 356 342 354 365 l 356 165 q 376 116 356 136 q 425 95 396 95 l 501 95 l 501 -78 l 425 -78 z "},"}":{"ha":571,"x_min":69,"x_max":488,"o":"m 69 -78 l 69 95 l 146 95 q 195 116 174 95 q 215 165 215 136 l 215 342 q 230 381 217 365 q 257 411 242 397 q 281 447 272 426 q 257 482 272 467 q 230 513 242 497 q 215 553 217 529 l 215 729 q 195 778 215 758 q 146 799 174 799 l 69 799 l 69 972 l 146 972 q 268 939 213 972 q 356 851 323 906 q 389 729 389 796 l 389 558 q 404 530 389 542 q 438 507 419 518 q 473 481 458 495 q 488 447 488 467 q 473 411 488 425 q 438 388 458 398 q 404 365 419 377 q 389 335 389 353 l 389 165 q 356 43 389 98 q 268 -45 323 -12 q 146 -78 213 -78 l 69 -78 z "},"[":{"ha":449,"x_min":83,"x_max":379,"o":"m 379 96 l 379 -78 l 83 -78 l 83 972 l 379 972 l 379 799 l 257 799 l 257 96 l 379 96 z "},"]":{"ha":450,"x_min":69,"x_max":367,"o":"m 69 -78 l 69 96 l 193 96 l 193 799 l 69 799 l 69 972 l 367 972 l 367 -78 l 69 -78 z "},"‚":{"ha":322,"x_min":50,"x_max":267,"o":"m 50 -78 l 93 157 l 267 157 l 165 -78 l 50 -78 z "},"„":{"ha":581,"x_min":50,"x_max":526,"o":"m 50 -78 l 93 157 l 267 157 l 165 -78 l 50 -78 m 309 -78 l 352 157 l 526 157 l 424 -78 l 309 -78 z "},"“":{"ha":564,"x_min":83,"x_max":537,"o":"m 83 610 l 184 972 l 300 972 l 257 610 l 83 610 m 320 613 l 421 975 l 537 975 l 494 613 l 320 613 z "},"”":{"ha":564,"x_min":28,"x_max":481,"o":"m 28 610 l 71 972 l 244 972 l 143 610 l 28 610 m 265 610 l 308 972 l 481 972 l 380 610 l 265 610 z "},"″":{"ha":564,"x_min":28,"x_max":481,"o":"m 28 610 l 71 972 l 244 972 l 143 610 l 28 610 m 265 610 l 308 972 l 481 972 l 380 610 l 265 610 z "},"ʻ":{"ha":286,"x_min":42,"x_max":258,"o":"m 42 610 l 142 972 l 258 972 l 215 610 l 42 610 z "},"‘":{"ha":286,"x_min":42,"x_max":258,"o":"m 42 610 l 142 972 l 258 972 l 215 610 l 42 610 z "},"’":{"ha":286,"x_min":28,"x_max":244,"o":"m 28 610 l 71 972 l 244 972 l 143 610 l 28 610 z "},"′":{"ha":286,"x_min":28,"x_max":244,"o":"m 28 610 l 71 972 l 244 972 l 143 610 l 28 610 z "},"«":{"ha":822,"x_min":83,"x_max":753,"o":"m 292 181 l 83 417 l 292 652 l 468 652 l 260 417 l 468 181 l 292 181 m 577 181 l 369 417 l 577 652 l 753 652 l 546 417 l 753 181 l 577 181 z "},"»":{"ha":836,"x_min":69,"x_max":740,"o":"m 355 181 l 562 417 l 355 652 l 531 652 l 740 417 l 531 181 l 355 181 m 69 181 l 276 417 l 69 652 l 246 652 l 454 417 l 246 181 l 69 181 z "},"‹":{"ha":538,"x_min":83,"x_max":468,"o":"m 292 181 l 83 417 l 292 652 l 468 652 l 260 417 l 468 181 l 292 181 z "},"›":{"ha":538,"x_min":69,"x_max":454,"o":"m 69 181 l 276 417 l 69 652 l 246 652 l 454 417 l 246 181 l 69 181 z "},"‵":{"ha":383,"x_min":83,"x_max":300,"o":"m 184 610 l 83 972 l 257 972 l 300 610 l 184 610 z "},"\"":{"ha":411,"x_min":44,"x_max":367,"o":"m 44 610 l 44 972 l 163 972 l 163 610 l 44 610 m 248 610 l 248 972 l 367 972 l 367 610 l 248 610 z "},"'":{"ha":208,"x_min":44,"x_max":163,"o":"m 44 610 l 44 972 l 163 972 l 163 610 l 44 610 z "},"ƒ":{"ha":812,"x_min":42,"x_max":771,"o":"m 196 -18 q 111 0 151 -18 q 42 56 70 18 l 183 178 q 220 156 193 156 q 256 169 240 156 q 274 202 272 183 l 319 521 l 245 521 l 269 694 l 344 694 l 364 838 q 409 949 372 899 q 501 1028 447 999 q 617 1058 556 1058 q 702 1040 661 1058 q 771 984 742 1022 l 629 862 q 592 885 619 885 q 556 871 572 885 q 538 838 540 858 l 517 694 l 706 694 l 681 521 l 493 521 l 448 202 q 403 92 440 142 q 311 12 366 42 q 196 -18 257 -18 z "},"@":{"ha":1278,"x_min":56,"x_max":1222,"o":"m 639 -176 q 412 -135 518 -176 q 226 -18 306 -94 q 101 159 146 57 q 56 382 56 261 q 101 609 56 503 q 226 795 146 715 q 412 920 306 875 q 639 966 518 966 q 866 920 760 966 q 1052 794 972 874 q 1177 608 1132 714 q 1222 382 1222 502 q 1206 251 1222 315 q 1158 136 1190 188 q 1079 54 1126 84 q 973 24 1033 24 q 886 42 930 24 q 809 92 842 61 q 769 161 777 124 q 706 120 742 135 q 624 106 669 106 q 485 143 547 106 q 385 243 422 181 q 348 382 348 306 q 385 521 348 458 q 485 621 422 584 q 624 658 547 658 q 709 645 665 658 q 778 610 753 633 l 778 644 l 908 617 l 908 253 q 923 211 908 226 q 962 197 938 197 q 1012 229 993 197 q 1040 305 1031 261 q 1049 382 1049 348 q 1017 542 1049 467 q 928 673 985 617 q 797 761 872 729 q 639 792 723 792 q 481 761 555 792 q 350 673 406 729 q 261 542 293 617 q 229 382 229 467 q 284 182 229 269 q 432 46 339 95 q 639 -3 525 -3 l 639 -176 m 638 235 q 739 280 699 235 q 779 385 779 326 q 740 486 779 444 q 638 529 701 529 q 534 486 577 529 q 490 382 490 444 q 534 278 490 321 q 638 235 578 235 z "},"&":{"ha":994,"x_min":56,"x_max":938,"o":"m 356 -18 q 202 24 270 -18 q 95 134 134 65 q 56 282 56 202 q 64 360 56 326 q 92 425 72 393 q 147 494 113 456 q 233 583 181 531 q 173 650 195 622 q 142 709 151 679 q 133 777 133 738 q 163 892 133 841 q 245 972 194 942 q 356 1001 296 1001 q 468 972 417 1001 q 549 891 519 942 q 580 777 580 840 q 570 708 580 738 q 538 649 560 678 q 478 583 515 620 l 657 404 l 833 581 l 833 336 l 779 281 l 938 122 l 816 0 l 657 159 q 566 71 603 106 q 497 17 528 37 q 432 -10 465 -2 q 356 -18 399 -18 m 356 681 q 401 725 385 710 q 422 751 416 740 q 427 780 427 762 q 404 833 427 814 q 356 852 381 852 q 306 831 327 852 q 284 780 284 810 q 299 736 284 753 q 356 681 315 720 m 356 156 q 409 167 387 156 q 458 205 431 178 q 535 282 485 233 l 356 461 q 277 382 304 410 q 240 334 250 355 q 229 281 229 313 q 267 191 229 226 q 356 156 306 156 z "},"¶":{"ha":749,"x_min":56,"x_max":694,"o":"m 299 -210 l 299 499 q 175 531 230 499 q 88 616 120 563 q 56 736 56 670 q 88 855 56 801 q 175 940 120 908 q 299 972 230 972 l 472 972 l 472 -210 l 299 -210 m 521 -210 l 521 972 l 694 972 l 694 -210 l 521 -210 z "},"§":{"ha":766,"x_min":83,"x_max":683,"o":"m 377 -174 q 225 -139 294 -174 q 116 -43 156 -105 l 253 38 q 298 -4 267 15 q 363 -26 328 -23 q 441 -11 409 -28 q 474 46 474 6 q 453 86 474 72 q 404 107 433 100 q 349 118 375 114 q 213 174 273 128 q 118 287 153 219 q 83 431 83 354 q 118 572 83 506 q 210 676 153 637 q 131 811 131 722 q 167 930 131 880 q 263 1008 203 981 q 390 1035 322 1035 q 541 1000 472 1035 q 651 904 610 966 l 513 823 q 469 866 499 847 q 403 887 439 885 q 325 873 358 890 q 293 816 293 856 q 312 777 293 790 q 359 757 331 763 q 415 744 388 750 q 608 638 533 722 q 683 431 683 554 q 648 290 683 354 q 556 186 613 225 q 636 50 636 138 q 600 -69 636 -19 q 504 -147 563 -119 q 377 -174 445 -174 m 391 272 q 460 294 428 272 q 511 353 492 317 q 531 429 531 389 q 486 545 531 501 q 371 590 441 590 q 305 566 336 590 q 255 507 274 543 q 236 431 236 470 q 280 318 236 364 q 391 272 323 272 z "},"©":{"ha":1029,"x_min":42,"x_max":988,"o":"m 515 13 q 331 50 417 13 q 180 152 245 87 q 78 302 115 217 q 42 486 42 388 q 78 670 42 584 q 180 820 115 756 q 331 922 245 885 q 515 959 417 959 q 698 922 613 959 q 849 820 784 885 q 951 670 914 756 q 988 486 988 584 q 951 302 988 388 q 849 152 914 217 q 698 50 784 87 q 515 13 613 13 m 160 486 q 208 308 160 389 q 336 180 256 228 q 515 132 416 132 q 694 180 613 132 q 822 308 774 228 q 869 486 869 389 q 820 666 869 585 q 692 793 772 747 q 515 840 611 840 q 337 793 417 840 q 208 665 256 746 q 160 486 160 585 m 276 486 q 308 613 276 556 q 394 704 340 670 q 515 738 449 738 q 623 711 574 738 q 706 638 673 683 l 623 593 q 576 632 604 617 q 515 647 549 647 q 440 625 473 647 q 386 565 406 602 q 367 486 367 528 q 386 408 367 444 q 438 348 405 371 q 515 325 472 325 q 576 339 549 325 q 624 378 603 353 l 706 334 q 623 261 673 288 q 515 234 574 234 q 394 268 449 234 q 308 359 340 302 q 276 486 276 417 z "},"®":{"ha":654,"x_min":35,"x_max":619,"o":"m 327 458 q 180 497 247 458 q 74 603 113 537 q 35 750 35 669 q 74 897 35 831 q 180 1003 113 963 q 327 1042 247 1042 q 474 1003 408 1042 q 580 897 540 963 q 619 750 619 831 q 580 603 619 669 q 474 497 540 537 q 327 458 408 458 m 391 716 l 440 630 q 486 708 474 662 q 468 833 503 776 q 369 909 433 891 q 302 913 335 918 q 242 890 269 907 l 346 890 q 411 863 384 890 q 438 797 438 835 q 425 749 438 771 q 391 716 412 728 m 285 591 q 363 589 324 580 q 432 622 402 598 l 372 622 l 324 704 l 303 704 l 303 622 l 239 622 l 240 889 q 168 792 185 855 q 169 707 157 749 q 211 634 181 665 q 285 591 241 603 m 303 767 l 346 767 q 366 776 358 767 q 374 797 374 785 q 366 818 374 809 q 346 827 358 827 l 303 827 l 303 767 z "},"™":{"ha":955,"x_min":42,"x_max":913,"o":"m 396 972 l 396 881 l 265 881 l 265 519 l 174 519 l 174 881 l 42 881 l 42 972 l 396 972 m 826 972 l 913 519 l 821 519 l 771 780 l 690 565 l 602 565 l 522 780 l 471 519 l 378 519 l 465 972 l 546 972 l 646 706 l 746 972 l 826 972 z "},"°":{"ha":560,"x_min":42,"x_max":518,"o":"m 281 513 q 159 545 213 513 q 73 633 105 578 q 42 750 42 687 q 74 868 42 815 q 160 955 106 922 q 281 988 214 988 q 402 955 348 988 q 487 867 456 922 q 518 750 518 813 q 485 628 518 682 q 398 544 452 575 q 281 513 344 513 m 281 658 q 345 685 318 658 q 372 750 372 712 q 345 815 372 789 q 281 842 318 842 q 215 815 242 842 q 188 750 188 789 q 215 685 188 712 q 281 658 242 658 z "},"|":{"ha":368,"x_min":97,"x_max":271,"o":"m 97 972 l 271 972 l 271 -210 l 97 -210 l 97 972 z "},"¦":{"ha":340,"x_min":83,"x_max":257,"o":"m 83 972 l 257 972 l 257 451 l 83 451 l 83 972 m 83 311 l 257 311 l 257 -210 l 83 -210 l 83 311 z "},"†":{"ha":599,"x_min":56,"x_max":543,"o":"m 56 747 l 56 920 l 213 920 l 213 1042 l 386 1042 l 386 920 l 543 920 l 543 747 l 386 747 l 386 348 l 213 348 l 213 747 l 56 747 z "},"‡":{"ha":599,"x_min":56,"x_max":543,"o":"m 56 482 l 56 654 l 213 654 l 213 747 l 56 747 l 56 920 l 213 920 l 213 1042 l 386 1042 l 386 920 l 543 920 l 543 747 l 386 747 l 386 654 l 543 654 l 543 482 l 386 482 l 386 348 l 213 348 l 213 482 l 56 482 z "},"�":{"ha":1132,"x_min":83,"x_max":1049,"o":"m 567 -18 q 493 -4 529 -18 q 428 39 457 10 l 140 326 q 97 392 111 356 q 83 465 83 428 q 98 539 83 503 q 140 603 113 575 l 428 890 q 493 933 457 919 q 567 947 529 947 q 640 933 604 947 q 704 890 675 919 l 992 603 q 1035 538 1021 574 q 1049 465 1049 503 q 1035 392 1049 428 q 992 326 1021 356 l 704 39 q 640 -3 676 11 q 567 -18 604 -18 m 507 357 l 626 357 l 626 358 q 647 393 626 382 q 712 458 688 417 q 737 549 737 499 q 713 637 737 597 q 650 700 690 676 q 561 724 610 724 q 473 700 513 724 q 409 637 433 676 q 385 549 385 597 l 503 549 q 520 589 503 572 q 561 606 538 606 q 602 589 585 606 q 619 549 619 572 q 591 497 619 512 q 529 440 551 478 q 507 358 507 402 l 507 357 m 570 177 q 612 194 595 177 q 629 238 629 212 q 612 279 629 262 q 570 296 595 296 q 528 279 545 296 q 510 238 510 262 q 528 194 510 212 q 570 177 545 177 z "},"¢":{"ha":758,"x_min":56,"x_max":703,"o":"m 344 0 l 344 143 q 197 207 263 158 q 94 328 132 256 q 56 488 56 401 q 94 646 56 573 q 197 768 132 719 q 344 831 263 817 l 344 972 l 463 972 l 463 831 q 601 775 539 818 q 703 668 664 732 l 553 581 q 489 640 528 618 q 404 663 449 663 q 316 639 356 663 q 253 575 276 615 q 229 488 229 535 q 253 398 229 438 q 317 335 277 358 q 404 311 357 311 q 489 333 449 311 q 553 392 528 356 l 703 306 q 601 199 664 242 q 463 143 539 156 l 463 0 l 344 0 z "},"¤":{"ha":715,"x_min":56,"x_max":659,"o":"m 140 184 l 56 268 l 146 358 q 110 486 110 417 q 147 613 110 556 l 56 705 l 140 788 l 230 697 q 357 734 287 733 q 486 699 428 734 l 576 788 l 659 705 l 570 616 q 608 486 608 557 q 572 356 608 415 l 659 268 l 576 184 l 488 272 q 358 235 427 235 q 228 274 289 235 l 140 184 m 359 353 q 451 392 413 354 q 490 485 490 430 q 450 579 490 543 q 359 615 411 615 q 265 576 302 616 q 228 485 228 536 q 267 392 228 431 q 359 353 306 353 z "},"$":{"ha":840,"x_min":56,"x_max":785,"o":"m 420 815 q 328 800 372 815 q 258 757 285 784 q 231 694 231 729 q 256 626 231 649 q 324 592 281 603 q 420 573 367 581 q 601 522 518 558 q 733 425 683 485 q 783 277 783 365 q 742 136 783 198 q 632 36 701 75 q 480 -14 563 -3 l 480 -156 l 361 -156 l 361 -14 q 172 53 257 -1 q 56 194 88 108 l 218 255 q 290 185 233 214 q 420 156 347 156 q 513 171 469 156 q 583 214 556 186 q 610 277 610 241 q 582 339 610 315 q 510 377 553 363 q 420 399 467 392 q 234 448 317 415 q 105 541 152 482 q 57 694 57 601 q 98 835 57 774 q 208 936 139 897 q 361 985 277 975 l 361 1128 l 480 1128 l 480 985 q 610 950 548 977 q 717 878 672 923 q 785 775 763 834 l 622 716 q 550 786 607 757 q 420 815 494 815 z "},"€":{"ha":776,"x_min":56,"x_max":721,"o":"m 721 -11 q 487 7 597 -32 q 297 132 377 47 q 182 334 217 217 l 56 334 l 56 453 l 160 453 l 160 517 l 56 517 l 56 636 l 182 636 q 297 841 216 756 q 488 965 378 926 q 721 983 598 1004 l 721 805 q 576 809 645 826 q 454 748 508 793 q 369 636 400 702 l 556 636 l 556 517 l 334 517 l 335 453 l 556 453 l 556 334 l 371 334 q 457 222 403 266 q 580 163 512 178 q 721 168 648 148 l 721 -11 z "},"£":{"ha":831,"x_min":56,"x_max":776,"o":"m 72 0 l 72 174 q 144 182 108 174 q 209 208 181 191 q 250 249 238 225 q 249 303 263 273 q 247 310 248 306 l 72 310 l 72 428 l 159 428 q 88 519 121 470 q 56 631 56 567 q 84 770 56 705 q 161 884 112 835 q 276 962 211 934 q 415 990 341 990 q 596 942 514 990 q 727 811 678 893 q 776 631 776 730 l 603 631 q 577 724 603 682 q 509 792 552 767 q 415 817 467 817 q 322 792 364 817 q 254 724 279 767 q 229 631 229 682 q 247 548 229 583 q 293 485 265 514 q 349 428 321 457 l 608 428 l 608 310 l 423 310 q 431 250 431 281 q 420 204 431 226 q 399 174 409 182 l 762 174 l 762 0 l 72 0 z "},"¥":{"ha":931,"x_min":44,"x_max":887,"o":"m 379 0 l 379 101 l 213 101 l 213 219 l 379 219 l 379 286 l 213 286 l 213 404 l 379 404 l 379 438 l 44 972 l 249 972 l 465 627 l 682 972 l 887 972 l 552 438 l 552 404 l 718 404 l 718 286 l 552 286 l 552 219 l 718 219 l 718 101 l 552 101 l 552 0 l 379 0 z "},"+":{"ha":806,"x_min":56,"x_max":750,"o":"m 316 69 l 316 330 l 56 330 l 56 503 l 316 503 l 316 764 l 490 764 l 490 503 l 750 503 l 750 330 l 490 330 l 490 69 l 316 69 z "},"−":{"ha":806,"x_min":56,"x_max":750,"o":"m 56 330 l 56 503 l 750 503 l 750 330 l 56 330 z "},"×":{"ha":724,"x_min":56,"x_max":669,"o":"m 178 110 l 56 233 l 239 417 l 56 601 l 178 724 l 362 539 l 546 724 l 669 601 l 484 417 l 669 233 l 546 110 l 362 294 l 178 110 z "},"÷":{"ha":806,"x_min":56,"x_max":750,"o":"m 403 761 q 469 733 441 761 q 497 667 497 705 q 469 601 497 628 q 403 573 441 573 q 336 601 363 573 q 309 667 309 628 q 336 733 309 705 q 403 761 363 761 m 56 330 l 56 503 l 750 503 l 750 330 l 56 330 m 403 260 q 469 232 441 260 q 497 166 497 204 q 469 100 497 127 q 403 72 441 72 q 336 100 363 72 q 309 166 309 127 q 336 232 309 204 q 403 260 363 260 z "},"=":{"ha":806,"x_min":56,"x_max":750,"o":"m 56 480 l 56 653 l 750 653 l 750 480 l 56 480 m 56 181 l 56 353 l 750 353 l 750 181 l 56 181 z "},"≠":{"ha":806,"x_min":56,"x_max":750,"o":"m 610 821 l 562 653 l 750 653 l 750 480 l 510 480 l 474 353 l 750 353 l 750 181 l 423 181 l 374 13 l 194 13 l 243 181 l 56 181 l 56 353 l 294 353 l 331 480 l 56 480 l 56 653 l 381 653 l 431 821 l 610 821 z "},">":{"ha":806,"x_min":56,"x_max":750,"o":"m 56 81 l 56 261 l 625 417 l 56 572 l 56 753 l 750 560 l 750 272 l 56 81 z "},"<":{"ha":806,"x_min":56,"x_max":750,"o":"m 750 74 l 56 272 l 56 560 l 750 759 l 750 578 l 181 417 l 750 254 l 750 74 z "},"≥":{"ha":806,"x_min":56,"x_max":750,"o":"m 56 244 l 56 424 l 625 580 l 56 735 l 56 915 l 750 724 l 750 435 l 56 244 m 56 0 l 56 174 l 750 174 l 750 0 l 56 0 z "},"≤":{"ha":806,"x_min":56,"x_max":750,"o":"m 750 231 l 56 428 l 56 717 l 750 915 l 750 735 l 181 574 l 750 411 l 750 231 m 56 0 l 56 174 l 750 174 l 750 0 l 56 0 z "},"±":{"ha":806,"x_min":56,"x_max":750,"o":"m 316 263 l 316 524 l 56 524 l 56 697 l 316 697 l 316 958 l 490 958 l 490 697 l 750 697 l 750 524 l 490 524 l 490 263 l 316 263 m 56 0 l 56 174 l 750 174 l 750 0 l 56 0 z "},"≈":{"ha":910,"x_min":20,"x_max":833,"o":"m 642 471 q 544 489 597 471 q 439 531 492 508 q 339 573 386 555 q 256 591 292 592 q 210 567 223 592 q 200 513 197 542 l 30 515 q 47 632 20 577 q 124 720 73 686 q 238 754 174 754 q 331 735 283 754 q 425 691 378 716 q 515 648 472 667 q 595 629 558 629 q 642 653 628 629 q 653 709 656 677 l 823 708 q 813 591 833 645 q 750 504 794 537 q 642 471 706 471 m 642 90 q 544 109 597 90 q 439 151 492 127 q 339 193 386 174 q 256 210 292 211 q 210 186 223 211 q 200 133 197 162 l 30 135 q 47 251 20 197 q 124 340 73 306 q 238 374 174 374 q 331 355 283 374 q 425 311 378 335 q 515 267 472 286 q 595 249 558 249 q 642 273 628 249 q 653 328 656 297 l 823 327 q 813 210 833 265 q 750 123 794 156 q 642 90 706 90 z "},"~":{"ha":910,"x_min":48,"x_max":860,"o":"m 670 275 q 572 293 624 275 q 467 335 519 312 q 367 377 414 359 q 283 395 319 396 q 238 371 251 396 q 228 317 225 347 l 58 319 q 74 436 48 381 q 151 524 101 490 q 266 558 202 558 q 358 539 311 558 q 452 495 406 520 q 543 452 499 471 q 623 433 586 433 q 670 457 656 433 q 681 513 684 481 l 851 512 q 841 395 860 449 q 777 308 822 341 q 670 275 733 275 z "},"¬":{"ha":713,"x_min":56,"x_max":657,"o":"m 483 200 l 483 460 l 56 460 l 56 633 l 657 633 l 657 200 l 483 200 z "},"^":{"ha":672,"x_min":56,"x_max":617,"o":"m 56 694 l 219 1146 l 453 1146 l 617 694 l 432 694 l 336 958 l 240 694 l 56 694 z "},"∅":{"ha":806,"x_min":56,"x_max":750,"o":"m 253 -53 l 131 17 l 167 80 q 86 199 116 130 q 56 347 56 269 q 102 532 56 449 q 228 665 149 615 q 403 714 307 714 q 519 692 466 714 l 553 749 l 675 679 l 639 616 q 720 497 690 566 q 750 347 750 427 q 703 164 750 247 q 577 31 656 81 q 403 -18 499 -18 q 285 4 342 -18 l 253 -53 m 253 226 l 442 554 q 332 537 383 565 q 248 457 280 510 q 216 338 216 403 q 226 277 216 305 q 253 226 235 249 m 364 142 q 476 158 424 131 q 559 238 527 185 q 590 357 590 291 q 580 418 590 390 q 553 470 569 447 l 364 142 z "},"∞":{"ha":1058,"x_min":56,"x_max":1003,"o":"m 306 174 q 122 257 189 185 q 56 429 56 328 q 87 557 56 500 q 175 649 119 615 q 306 683 232 683 q 427 652 376 683 q 529 562 479 622 q 633 653 581 622 q 749 683 685 683 q 886 647 830 683 q 973 555 943 612 q 1003 429 1003 497 q 972 301 1003 358 q 884 210 940 244 q 753 174 828 176 q 633 205 684 174 q 529 295 581 235 q 425 202 477 233 q 306 174 374 171 m 755 333 q 823 364 799 335 q 847 429 847 393 q 823 495 847 467 q 758 526 798 524 q 686 497 717 526 q 626 429 656 467 q 686 362 655 392 q 755 333 717 332 m 305 333 q 376 365 344 333 q 433 429 409 397 q 375 495 407 464 q 305 524 343 526 q 237 493 261 522 q 213 429 213 464 q 238 361 213 389 q 305 333 264 334 z "},"∫":{"ha":753,"x_min":52,"x_max":701,"o":"m 249 -18 q 147 8 192 -18 q 77 81 102 35 q 56 185 52 126 l 165 176 q 174 137 168 153 q 202 120 180 121 q 240 132 224 119 q 258 166 255 144 l 325 847 q 359 920 331 888 q 428 972 388 953 q 511 990 469 990 q 610 961 566 990 q 677 885 653 932 q 697 786 701 839 l 597 796 q 576 841 593 828 q 538 850 560 853 q 508 836 521 849 q 493 802 496 824 l 427 124 q 360 15 410 49 q 249 -18 310 -18 z "},"∆":{"ha":877,"x_min":21,"x_max":856,"o":"m 856 0 l 21 0 l 439 972 l 856 0 m 284 174 l 592 174 l 439 533 l 284 174 z "},"∏":{"ha":889,"x_min":56,"x_max":833,"o":"m 56 972 l 833 972 l 833 799 l 740 799 l 740 0 l 566 0 l 566 799 l 323 799 l 323 0 l 149 0 l 149 799 l 56 799 l 56 972 z "}}}
